<svg xmlns="http://www.w3.org/2000/svg" xmlns:xlink="http://www.w3.org/1999/xlink" width="1080pt" height="299pt" viewBox="0.00 0.00 1080.00 299.00">
<g id="graph0" class="graph" transform="scale(1.47596 1.47596) rotate(0) translate(4 198.45)">
<title>CrossServiceReferences</title>
<!-- Identity -->
<g id="node1" class="node">
<title>Identity</title>
<path fill="#fdf2f8" stroke="#334155" d="M42,-72.22C42,-72.22 12,-72.22 12,-72.22 6,-72.22 0,-66.22 0,-60.22 0,-60.22 0,-48.23 0,-48.23 0,-42.23 6,-36.23 12,-36.23 12,-36.23 42,-36.23 42,-36.23 48,-36.23 54,-42.23 54,-48.23 54,-48.23 54,-60.22 54,-60.22 54,-66.22 48,-72.22 42,-72.22"/>
<text xml:space="preserve" text-anchor="middle" x="27" y="-56.93" font-family="Inter" font-size="9.00">Identity</text>
<text xml:space="preserve" text-anchor="middle" x="27" y="-46.13" font-family="Inter" font-size="9.00">Service</text>
</g>
<!-- Profile -->
<g id="node2" class="node">
<title>Profile</title>
<path fill="#f8fafc" stroke="#334155" d="M174.65,-72.22C174.65,-72.22 144.65,-72.22 144.65,-72.22 138.65,-72.22 132.65,-66.22 132.65,-60.22 132.65,-60.22 132.65,-48.23 132.65,-48.23 132.65,-42.23 138.65,-36.23 144.65,-36.23 144.65,-36.23 174.65,-36.23 174.65,-36.23 180.65,-36.23 186.65,-42.23 186.65,-48.23 186.65,-48.23 186.65,-60.22 186.65,-60.22 186.65,-66.22 180.65,-72.22 174.65,-72.22"/>
<text xml:space="preserve" text-anchor="middle" x="159.65" y="-56.93" font-family="Inter" font-size="9.00">Profile</text>
<text xml:space="preserve" text-anchor="middle" x="159.65" y="-46.13" font-family="Inter" font-size="9.00">Service</text>
</g>
<!-- Identity&#45;&gt;Profile -->
<g id="edge1" class="edge">
<title>Identity-&gt;Profile</title>
<path fill="none" stroke="#475569" stroke-width="0.9" d="M54.49,-54.23C54.49,-54.23 124.84,-54.23 124.84,-54.23"/>
<polygon fill="#475569" stroke="#475569" stroke-width="0.9" points="124.84,-56.33 130.84,-54.23 124.84,-52.13 124.84,-56.33"/>
<text xml:space="preserve" text-anchor="middle" x="93.33" y="-56.62" font-family="Inter" font-size="8.00">/internal/api</text>
</g>
<!-- Listing -->
<g id="node3" class="node">
<title>Listing</title>
<path fill="#f8fafc" stroke="#334155" d="M298.2,-115.22C298.2,-115.22 268.2,-115.22 268.2,-115.22 262.2,-115.22 256.2,-109.22 256.2,-103.22 256.2,-103.22 256.2,-91.22 256.2,-91.22 256.2,-85.22 262.2,-79.22 268.2,-79.22 268.2,-79.22 298.2,-79.22 298.2,-79.22 304.2,-79.22 310.2,-85.22 310.2,-91.22 310.2,-91.22 310.2,-103.22 310.2,-103.22 310.2,-109.22 304.2,-115.22 298.2,-115.22"/>
<text xml:space="preserve" text-anchor="middle" x="283.2" y="-99.92" font-family="Inter" font-size="9.00">Listing</text>
<text xml:space="preserve" text-anchor="middle" x="283.2" y="-89.12" font-family="Inter" font-size="9.00">Service</text>
</g>
<!-- Profile&#45;&gt;Listing -->
<g id="edge6" class="edge">
<title>Profile-&gt;Listing</title>
<path fill="none" stroke="#475569" stroke-width="0.9" stroke-dasharray="5,2" d="M186.97,-63.34C223.23,-63.34 282.73,-63.34 282.73,-63.34 282.73,-63.34 282.73,-71.73 282.73,-71.73"/>
<polygon fill="#475569" stroke="#475569" stroke-width="0.9" points="280.63,-71.73 282.73,-77.73 284.83,-71.73 280.63,-71.73"/>
<text xml:space="preserve" text-anchor="middle" x="221.43" y="-84.62" font-family="Inter" font-size="8.00">profile id</text>
</g>
<!-- ProfileDB -->
<g id="node8" class="node">
<title>ProfileDB</title>
<path fill="#fff7ed" stroke="#334155" d="M310.2,-49.5C310.2,-52.23 298.1,-54.45 283.2,-54.45 268.3,-54.45 256.2,-52.23 256.2,-49.5 256.2,-49.5 256.2,-4.95 256.2,-4.95 256.2,-2.22 268.3,0 283.2,0 298.1,0 310.2,-2.22 310.2,-4.95 310.2,-4.95 310.2,-49.5 310.2,-49.5"/>
<path fill="none" stroke="#334155" d="M310.2,-49.5C310.2,-46.77 298.1,-44.55 283.2,-44.55 268.3,-44.55 256.2,-46.77 256.2,-49.5"/>
<text xml:space="preserve" text-anchor="middle" x="283.2" y="-35.32" font-family="Inter" font-size="9.00">Profile DB</text>
<text xml:space="preserve" text-anchor="middle" x="283.2" y="-24.52" font-family="Inter" font-size="9.00">user_id</text>
<text xml:space="preserve" text-anchor="middle" x="283.2" y="-13.73" font-family="Inter" font-size="9.00">profile_id</text>
</g>
<!-- Profile&#45;&gt;ProfileDB -->
<g id="edge2" class="edge">
<title>Profile-&gt;ProfileDB</title>
<path fill="none" stroke="#475569" stroke-width="0.9" d="M187.07,-45.34C187.07,-45.34 248.49,-45.34 248.49,-45.34"/>
<polygon fill="#475569" stroke="#475569" stroke-width="0.9" points="248.49,-47.44 254.49,-45.34 248.49,-43.24 248.49,-47.44"/>
<text xml:space="preserve" text-anchor="middle" x="221.43" y="-29.62" font-family="Inter" font-size="8.00">owns</text>
</g>
<!-- Rental -->
<g id="node4" class="node">
<title>Rental</title>
<path fill="#f8fafc" stroke="#334155" d="M434.18,-184.03C434.18,-184.03 404.18,-184.03 404.18,-184.03 398.18,-184.03 392.18,-178.03 392.18,-172.03 392.18,-172.03 392.18,-156.42 392.18,-156.42 392.18,-150.42 398.18,-144.42 404.18,-144.42 404.18,-144.42 434.18,-144.42 434.18,-144.42 440.18,-144.42 446.18,-150.42 446.18,-156.42 446.18,-156.42 446.18,-172.03 446.18,-172.03 446.18,-178.03 440.18,-184.03 434.18,-184.03"/>
<text xml:space="preserve" text-anchor="middle" x="419.18" y="-172.32" font-family="Inter" font-size="9.00">Rental</text>
<text xml:space="preserve" text-anchor="middle" x="419.18" y="-161.52" font-family="Inter" font-size="9.00">Request</text>
<text xml:space="preserve" text-anchor="middle" x="419.18" y="-150.72" font-family="Inter" font-size="9.00">Service</text>
</g>
<!-- Listing&#45;&gt;Rental -->
<g id="edge7" class="edge">
<title>Listing-&gt;Rental</title>
<path fill="none" stroke="#475569" stroke-width="0.9" stroke-dasharray="5,2" d="M282.73,-115.53C282.73,-135.37 282.73,-164.22 282.73,-164.22 282.73,-164.22 384.53,-164.22 384.53,-164.22"/>
<polygon fill="#475569" stroke="#475569" stroke-width="0.9" points="384.53,-166.33 390.53,-164.23 384.53,-162.13 384.53,-166.33"/>
<text xml:space="preserve" text-anchor="middle" x="344.31" y="-154.63" font-family="Inter" font-size="8.00">listing id</text>
</g>
<!-- Kafka -->
<g id="node7" class="node">
<title>Kafka</title>
<path fill="#fff7ed" stroke="#334155" d="M446.18,-111.95C446.18,-113.76 434.08,-115.22 419.18,-115.22 404.28,-115.22 392.18,-113.76 392.18,-111.95 392.18,-111.95 392.18,-82.5 392.18,-82.5 392.18,-80.69 404.28,-79.22 419.18,-79.22 434.08,-79.22 446.18,-80.69 446.18,-82.5 446.18,-82.5 446.18,-111.95 446.18,-111.95"/>
<path fill="none" stroke="#334155" d="M446.18,-111.95C446.18,-110.15 434.08,-108.68 419.18,-108.68 404.28,-108.68 392.18,-110.15 392.18,-111.95"/>
<text xml:space="preserve" text-anchor="middle" x="419.18" y="-94.53" font-family="Inter" font-size="9.00">Kafka</text>
</g>
<!-- Listing&#45;&gt;Kafka -->
<g id="edge8" class="edge">
<title>Listing-&gt;Kafka</title>
<path fill="none" stroke="#475569" stroke-width="0.9" d="M310.39,-103.22C310.39,-103.22 384.67,-103.22 384.67,-103.22"/>
<polygon fill="#475569" stroke="#475569" stroke-width="0.9" points="384.67,-105.33 390.67,-103.23 384.67,-101.13 384.67,-105.33"/>
<text xml:space="preserve" text-anchor="middle" x="344.31" y="-99.62" font-family="Inter" font-size="8.00">events</text>
</g>
<!-- ListingDB -->
<g id="node9" class="node">
<title>ListingDB</title>
<path fill="#fff7ed" stroke="#334155" d="M459.93,-50.42C459.93,-52.41 441.66,-54.02 419.18,-54.02 396.69,-54.02 378.43,-52.41 378.43,-50.42 378.43,-50.42 378.43,-18.03 378.43,-18.03 378.43,-16.04 396.69,-14.43 419.18,-14.43 441.66,-14.43 459.93,-16.04 459.93,-18.03 459.93,-18.03 459.93,-50.42 459.93,-50.42"/>
<path fill="none" stroke="#334155" d="M459.93,-50.42C459.93,-48.44 441.66,-46.82 419.18,-46.82 396.69,-46.82 378.43,-48.44 378.43,-50.42"/>
<text xml:space="preserve" text-anchor="middle" x="419.18" y="-36.92" font-family="Inter" font-size="9.00">Listing DB</text>
<text xml:space="preserve" text-anchor="middle" x="419.18" y="-26.12" font-family="Inter" font-size="9.00">landlord_profile_id</text>
</g>
<!-- Listing&#45;&gt;ListingDB -->
<g id="edge3" class="edge">
<title>Listing-&gt;ListingDB</title>
<path fill="none" stroke="#475569" stroke-width="0.9" d="M310.68,-91.22C341.05,-91.22 385.73,-91.22 385.73,-91.22 385.73,-91.22 385.73,-60.88 385.73,-60.88"/>
<polygon fill="#475569" stroke="#475569" stroke-width="0.9" points="387.83,-60.88 385.73,-54.88 383.63,-60.88 387.83,-60.88"/>
<text xml:space="preserve" text-anchor="middle" x="344.31" y="-36.62" font-family="Inter" font-size="8.00">owns</text>
</g>
<!-- RentalDB -->
<g id="node10" class="node">
<title>RentalDB</title>
<path fill="#fff7ed" stroke="#334155" d="M608.09,-189.5C608.09,-192.23 591.62,-194.45 571.34,-194.45 551.06,-194.45 534.59,-192.23 534.59,-189.5 534.59,-189.5 534.59,-144.95 534.59,-144.95 534.59,-142.22 551.06,-140 571.34,-140 591.62,-140 608.09,-142.22 608.09,-144.95 608.09,-144.95 608.09,-189.5 608.09,-189.5"/>
<path fill="none" stroke="#334155" d="M608.09,-189.5C608.09,-186.77 591.62,-184.55 571.34,-184.55 551.06,-184.55 534.59,-186.77 534.59,-189.5"/>
<text xml:space="preserve" text-anchor="middle" x="571.34" y="-175.32" font-family="Inter" font-size="9.00">Rental DB</text>
<text xml:space="preserve" text-anchor="middle" x="571.34" y="-164.52" font-family="Inter" font-size="9.00">tenant_profile_id</text>
<text xml:space="preserve" text-anchor="middle" x="571.34" y="-153.72" font-family="Inter" font-size="9.00">listing_id</text>
</g>
<!-- Rental&#45;&gt;RentalDB -->
<g id="edge4" class="edge">
<title>Rental-&gt;RentalDB</title>
<path fill="none" stroke="#475569" stroke-width="0.9" d="M446.38,-164.22C446.38,-164.22 527,-164.22 527,-164.22"/>
<polygon fill="#475569" stroke="#475569" stroke-width="0.9" points="527,-166.33 533,-164.23 527,-162.13 527,-166.33"/>
<text xml:space="preserve" text-anchor="middle" x="497.26" y="-169.63" font-family="Inter" font-size="8.00">owns</text>
</g>
<!-- Search -->
<g id="node5" class="node">
<title>Search</title>
<path fill="#f8fafc" stroke="#334155" d="M586.34,-115.22C586.34,-115.22 556.34,-115.22 556.34,-115.22 550.34,-115.22 544.34,-109.22 544.34,-103.22 544.34,-103.22 544.34,-91.22 544.34,-91.22 544.34,-85.22 550.34,-79.22 556.34,-79.22 556.34,-79.22 586.34,-79.22 586.34,-79.22 592.34,-79.22 598.34,-85.22 598.34,-91.22 598.34,-91.22 598.34,-103.22 598.34,-103.22 598.34,-109.22 592.34,-115.22 586.34,-115.22"/>
<text xml:space="preserve" text-anchor="middle" x="571.34" y="-99.92" font-family="Inter" font-size="9.00">Search</text>
<text xml:space="preserve" text-anchor="middle" x="571.34" y="-89.12" font-family="Inter" font-size="9.00">Service</text>
</g>
<!-- SearchIndex -->
<g id="node11" class="node">
<title>SearchIndex</title>
<path fill="#fff7ed" stroke="#334155" d="M723.73,-111.95C723.73,-113.76 710.56,-115.22 694.35,-115.22 678.15,-115.22 664.98,-113.76 664.98,-111.95 664.98,-111.95 664.98,-82.5 664.98,-82.5 664.98,-80.69 678.15,-79.22 694.35,-79.22 710.56,-79.22 723.73,-80.69 723.73,-82.5 723.73,-82.5 723.73,-111.95 723.73,-111.95"/>
<path fill="none" stroke="#334155" d="M723.73,-111.95C723.73,-110.15 710.56,-108.68 694.35,-108.68 678.15,-108.68 664.98,-110.15 664.98,-111.95"/>
<text xml:space="preserve" text-anchor="middle" x="694.35" y="-94.53" font-family="Inter" font-size="9.00">Search Index</text>
</g>
<!-- Search&#45;&gt;SearchIndex -->
<g id="edge5" class="edge">
<title>Search-&gt;SearchIndex</title>
<path fill="none" stroke="#475569" stroke-width="0.9" d="M598.64,-97.22C598.64,-97.22 657.18,-97.22 657.18,-97.22"/>
<polygon fill="#475569" stroke="#475569" stroke-width="0.9" points="657.18,-99.33 663.18,-97.23 657.18,-95.13 657.18,-99.33"/>
<text xml:space="preserve" text-anchor="middle" x="636.53" y="-99.62" font-family="Inter" font-size="8.00">owns</text>
</g>
<!-- Notification -->
<g id="node6" class="node">
<title>Notification</title>
<path fill="#f8fafc" stroke="#334155" d="M586.84,-54.23C586.84,-54.23 555.83,-54.23 555.83,-54.23 549.83,-54.23 543.83,-48.23 543.83,-42.23 543.83,-42.23 543.83,-30.22 543.83,-30.22 543.83,-24.23 549.83,-18.23 555.83,-18.23 555.83,-18.23 586.84,-18.23 586.84,-18.23 592.84,-18.23 598.84,-24.23 598.84,-30.23 598.84,-30.23 598.84,-42.23 598.84,-42.23 598.84,-48.23 592.84,-54.23 586.84,-54.23"/>
<text xml:space="preserve" text-anchor="middle" x="571.34" y="-38.92" font-family="Inter" font-size="9.00">Notification</text>
<text xml:space="preserve" text-anchor="middle" x="571.34" y="-28.12" font-family="Inter" font-size="9.00">Service</text>
</g>
<!-- Kafka&#45;&gt;Search -->
<g id="edge9" class="edge">
<title>Kafka-&gt;Search</title>
<path fill="none" stroke="#475569" stroke-width="0.9" d="M446.38,-103.22C446.38,-103.22 536.5,-103.22 536.5,-103.22"/>
<polygon fill="#475569" stroke="#475569" stroke-width="0.9" points="536.5,-105.33 542.5,-103.23 536.5,-101.13 536.5,-105.33"/>
<text xml:space="preserve" text-anchor="middle" x="497.26" y="-99.62" font-family="Inter" font-size="8.00">projection</text>
</g>
<!-- Kafka&#45;&gt;Notification -->
<g id="edge10" class="edge">
<title>Kafka-&gt;Notification</title>
<path fill="none" stroke="#475569" stroke-width="0.9" d="M446.6,-91.22C481.9,-91.22 538.73,-91.22 538.73,-91.22 538.73,-91.22 538.73,-36.13 538.73,-36.13 538.73,-36.13 539.21,-36.13 539.21,-36.13"/>
<polygon fill="#475569" stroke="#475569" stroke-width="0.9" points="536.18,-38.23 542.18,-36.13 536.18,-34.03 536.18,-38.23"/>
<text xml:space="preserve" text-anchor="middle" x="497.26" y="-38.62" font-family="Inter" font-size="8.00">commands</text>
</g>
</g>
</svg>