<svg xmlns="http://www.w3.org/2000/svg" xmlns:xlink="http://www.w3.org/1999/xlink" width="1577pt" height="1929pt" viewBox="0.00 0.00 1577.00 1929.00">
<g id="graph0" class="graph" transform="scale(2.77778 2.77778) rotate(0) translate(4 690.4)">
<title>G</title>
<polygon fill="white" stroke="none" points="-4,4 -4,-690.4 563.86,-690.4 563.86,4 -4,4"/>
<!-- Identity -->
<g id="node1" class="node">
<title>Identity</title>
<polygon fill="none" stroke="black" points="344.2,-686.4 284.66,-686.4 284.66,-644.8 344.2,-644.8 344.2,-686.4"/>
<text xml:space="preserve" text-anchor="middle" x="314.43" y="-669.8" font-family="Times,serif" font-size="14.00">Identity</text>
<text xml:space="preserve" text-anchor="middle" x="314.43" y="-653" font-family="Times,serif" font-size="14.00">Service</text>
</g>
<!-- Profile -->
<g id="node2" class="node">
<title>Profile</title>
<polygon fill="none" stroke="black" points="343.42,-575.2 285.44,-575.2 285.44,-533.6 343.42,-533.6 343.42,-575.2"/>
<text xml:space="preserve" text-anchor="middle" x="314.43" y="-558.6" font-family="Times,serif" font-size="14.00">Profile</text>
<text xml:space="preserve" text-anchor="middle" x="314.43" y="-541.8" font-family="Times,serif" font-size="14.00">Service</text>
</g>
<!-- Identity&#45;&gt;Profile -->
<g id="edge1" class="edge">
<title>Identity-&gt;Profile</title>
<path fill="none" stroke="black" d="M314.43,-644.32C314.43,-628.23 314.43,-605.45 314.43,-586.98"/>
<polygon fill="black" stroke="black" points="317.93,-587.09 314.43,-577.09 310.93,-587.09 317.93,-587.09"/>
<text xml:space="preserve" text-anchor="middle" x="363.8" y="-614.2" font-family="Times,serif" font-size="14.00">/internal/api</text>
<text xml:space="preserve" text-anchor="middle" x="363.8" y="-597.4" font-family="Times,serif" font-size="14.00">client_credentials</text>
</g>
<!-- Listing -->
<g id="node3" class="node">
<title>Listing</title>
<polygon fill="none" stroke="black" points="221.42,-449.9 163.44,-449.9 163.44,-408.3 221.42,-408.3 221.42,-449.9"/>
<text xml:space="preserve" text-anchor="middle" x="192.43" y="-433.3" font-family="Times,serif" font-size="14.00">Listing</text>
<text xml:space="preserve" text-anchor="middle" x="192.43" y="-416.5" font-family="Times,serif" font-size="14.00">Service</text>
</g>
<!-- Profile&#45;&gt;Listing -->
<g id="edge6" class="edge">
<title>Profile-&gt;Listing</title>
<path fill="none" stroke="black" stroke-dasharray="5,2" d="M285.41,-533.28C278.24,-527.84 270.76,-521.75 264.28,-515.6 246,-498.26 227.76,-476.5 214.24,-459.27"/>
<polygon fill="black" stroke="black" points="217.05,-457.18 208.17,-451.42 211.52,-461.47 217.05,-457.18"/>
<text xml:space="preserve" text-anchor="middle" x="292.85" y="-503" font-family="Times,serif" font-size="14.00">profile ids</text>
</g>
<!-- Rental -->
<g id="node4" class="node">
<title>Rental</title>
<polygon fill="none" stroke="black" points="92.98,-324.6 31.88,-324.6 31.88,-266.2 92.98,-266.2 92.98,-324.6"/>
<text xml:space="preserve" text-anchor="middle" x="62.43" y="-308" font-family="Times,serif" font-size="14.00">Rental</text>
<text xml:space="preserve" text-anchor="middle" x="62.43" y="-291.2" font-family="Times,serif" font-size="14.00">Request</text>
<text xml:space="preserve" text-anchor="middle" x="62.43" y="-274.4" font-family="Times,serif" font-size="14.00">Service</text>
</g>
<!-- Profile&#45;&gt;Rental -->
<g id="edge7" class="edge">
<title>Profile-&gt;Rental</title>
<path fill="none" stroke="black" stroke-dasharray="5,2" d="M285.13,-552.56C238,-549.52 145.76,-536.36 97.28,-480.8 62.48,-440.92 57.81,-377.39 59.05,-336.29"/>
<polygon fill="black" stroke="black" points="62.54,-336.48 59.5,-326.33 55.55,-336.16 62.54,-336.48"/>
<text xml:space="preserve" text-anchor="middle" x="125.85" y="-424.9" font-family="Times,serif" font-size="14.00">profile ids</text>
</g>
<!-- Kafka -->
<g id="node7" class="node">
<title>Kafka</title>
<path fill="none" stroke="black" d="M333.43,-310.13C333.43,-311.93 321.33,-313.4 306.43,-313.4 291.53,-313.4 279.43,-311.93 279.43,-310.13 279.43,-310.13 279.43,-280.67 279.43,-280.67 279.43,-278.87 291.53,-277.4 306.43,-277.4 321.33,-277.4 333.43,-278.87 333.43,-280.67 333.43,-280.67 333.43,-310.13 333.43,-310.13"/>
<path fill="none" stroke="black" d="M333.43,-310.13C333.43,-308.32 321.33,-306.85 306.43,-306.85 291.53,-306.85 279.43,-308.32 279.43,-310.13"/>
<text xml:space="preserve" text-anchor="middle" x="306.43" y="-291.2" font-family="Times,serif" font-size="14.00">Kafka</text>
</g>
<!-- Profile&#45;&gt;Kafka -->
<g id="edge10" class="edge">
<title>Profile-&gt;Kafka</title>
<path fill="none" stroke="black" d="M318.82,-533.49C319.9,-527.74 320.89,-521.45 321.43,-515.6 328.46,-439.03 333.45,-418.54 321.43,-342.6 320.48,-336.61 318.88,-330.34 317.08,-324.42"/>
<polygon fill="black" stroke="black" points="320.44,-323.43 313.93,-315.07 313.8,-325.66 320.44,-323.43"/>
<text xml:space="preserve" text-anchor="middle" x="369.51" y="-424.9" font-family="Times,serif" font-size="14.00">ProfileCreated</text>
</g>
<!-- ProfileDB -->
<g id="node8" class="node">
<title>ProfileDB</title>
<path fill="none" stroke="black" d="M559.86,-471.4C559.86,-476.59 531.88,-480.8 497.43,-480.8 462.98,-480.8 435,-476.59 435,-471.4 435,-471.4 435,-386.8 435,-386.8 435,-381.61 462.98,-377.4 497.43,-377.4 531.88,-377.4 559.86,-381.61 559.86,-386.8 559.86,-386.8 559.86,-471.4 559.86,-471.4"/>
<path fill="none" stroke="black" d="M559.86,-471.4C559.86,-466.21 531.88,-462 497.43,-462 462.98,-462 435,-466.21 435,-471.4"/>
<text xml:space="preserve" text-anchor="middle" x="497.43" y="-450.1" font-family="Times,serif" font-size="14.00">Profile DB</text>
<text xml:space="preserve" text-anchor="middle" x="497.43" y="-433.3" font-family="Times,serif" font-size="14.00">user_id</text>
<text xml:space="preserve" text-anchor="middle" x="497.43" y="-416.5" font-family="Times,serif" font-size="14.00">tenant_profile_id</text>
<text xml:space="preserve" text-anchor="middle" x="497.43" y="-399.7" font-family="Times,serif" font-size="14.00">landlord_profile_id</text>
</g>
<!-- Profile&#45;&gt;ProfileDB -->
<g id="edge2" class="edge">
<title>Profile-&gt;ProfileDB</title>
<path fill="none" stroke="black" d="M343.83,-533.59C365.8,-518.79 396.81,-497.9 425.22,-478.75"/>
<polygon fill="black" stroke="black" points="427.14,-481.68 433.48,-473.19 423.23,-475.87 427.14,-481.68"/>
<text xml:space="preserve" text-anchor="middle" x="409.75" y="-503" font-family="Times,serif" font-size="14.00">owns</text>
</g>
<!-- Listing&#45;&gt;Rental -->
<g id="edge8" class="edge">
<title>Listing-&gt;Rental</title>
<path fill="none" stroke="black" stroke-dasharray="5,2" d="M169.79,-407.84C155.03,-394.41 135.52,-376.23 119.03,-359.4 110.93,-351.13 102.46,-341.99 94.61,-333.29"/>
<polygon fill="black" stroke="black" points="97.29,-331.04 88.01,-325.92 92.07,-335.7 97.29,-331.04"/>
<text xml:space="preserve" text-anchor="middle" x="143.73" y="-346.8" font-family="Times,serif" font-size="14.00">listing id</text>
</g>
<!-- Listing&#45;&gt;Kafka -->
<g id="edge9" class="edge">
<title>Listing-&gt;Kafka</title>
<path fill="none" stroke="black" d="M196.42,-408.14C201.01,-389.44 210.12,-361.58 226.53,-342.6 238.03,-329.31 254.34,-318.92 269.23,-311.4"/>
<polygon fill="black" stroke="black" points="270.34,-314.74 277.87,-307.29 267.34,-308.42 270.34,-314.74"/>
<text xml:space="preserve" text-anchor="middle" x="273.98" y="-346.8" font-family="Times,serif" font-size="14.00">ListingPublished</text>
</g>
<!-- ListingDB -->
<g id="node9" class="node">
<title>ListingDB</title>
<path fill="none" stroke="black" d="M235.86,-318.8C235.86,-321.67 207.88,-324 173.43,-324 138.98,-324 111,-321.67 111,-318.8 111,-318.8 111,-272 111,-272 111,-269.13 138.98,-266.8 173.43,-266.8 207.88,-266.8 235.86,-269.13 235.86,-272 235.86,-272 235.86,-318.8 235.86,-318.8"/>
<path fill="none" stroke="black" d="M235.86,-318.8C235.86,-315.93 207.88,-313.6 173.43,-313.6 138.98,-313.6 111,-315.93 111,-318.8"/>
<text xml:space="preserve" text-anchor="middle" x="173.43" y="-299.6" font-family="Times,serif" font-size="14.00">Listing DB</text>
<text xml:space="preserve" text-anchor="middle" x="173.43" y="-282.8" font-family="Times,serif" font-size="14.00">landlord_profile_id</text>
</g>
<!-- Listing&#45;&gt;ListingDB -->
<g id="edge3" class="edge">
<title>Listing-&gt;ListingDB</title>
<path fill="none" stroke="black" d="M185.52,-407.94C181.24,-394.4 176.14,-376.05 173.87,-359.4 172.84,-351.84 172.34,-343.73 172.16,-335.92"/>
<polygon fill="black" stroke="black" points="175.66,-335.92 172.1,-325.94 168.66,-335.95 175.66,-335.92"/>
<text xml:space="preserve" text-anchor="middle" x="188.65" y="-346.8" font-family="Times,serif" font-size="14.00">owns</text>
</g>
<!-- RentalDB -->
<g id="node10" class="node">
<title>RentalDB</title>
<path fill="none" stroke="black" d="M124.86,-204C124.86,-209.19 96.88,-213.4 62.43,-213.4 27.98,-213.4 0,-209.19 0,-204 0,-204 0,-119.4 0,-119.4 0,-114.21 27.98,-110 62.43,-110 96.88,-110 124.86,-114.21 124.86,-119.4 124.86,-119.4 124.86,-204 124.86,-204"/>
<path fill="none" stroke="black" d="M124.86,-204C124.86,-198.81 96.88,-194.6 62.43,-194.6 27.98,-194.6 0,-198.81 0,-204"/>
<text xml:space="preserve" text-anchor="middle" x="62.43" y="-182.7" font-family="Times,serif" font-size="14.00">Rental DB</text>
<text xml:space="preserve" text-anchor="middle" x="62.43" y="-165.9" font-family="Times,serif" font-size="14.00">tenant_profile_id</text>
<text xml:space="preserve" text-anchor="middle" x="62.43" y="-149.1" font-family="Times,serif" font-size="14.00">landlord_profile_id</text>
<text xml:space="preserve" text-anchor="middle" x="62.43" y="-132.3" font-family="Times,serif" font-size="14.00">listing_id</text>
</g>
<!-- Rental&#45;&gt;RentalDB -->
<g id="edge4" class="edge">
<title>Rental-&gt;RentalDB</title>
<path fill="none" stroke="black" d="M62.43,-265.82C62.43,-253.82 62.43,-239.36 62.43,-225.12"/>
<polygon fill="black" stroke="black" points="65.93,-225.3 62.43,-215.3 58.93,-225.3 65.93,-225.3"/>
<text xml:space="preserve" text-anchor="middle" x="77.21" y="-235.6" font-family="Times,serif" font-size="14.00">owns</text>
</g>
<!-- Search -->
<g id="node5" class="node">
<title>Search</title>
<polygon fill="none" stroke="black" points="380.42,-182.5 322.44,-182.5 322.44,-140.9 380.42,-140.9 380.42,-182.5"/>
<text xml:space="preserve" text-anchor="middle" x="351.43" y="-165.9" font-family="Times,serif" font-size="14.00">Search</text>
<text xml:space="preserve" text-anchor="middle" x="351.43" y="-149.1" font-family="Times,serif" font-size="14.00">Service</text>
</g>
<!-- SearchIndex -->
<g id="node11" class="node">
<title>SearchIndex</title>
<path fill="none" stroke="black" d="M409.01,-52C409.01,-54.87 383.2,-57.2 351.43,-57.2 319.66,-57.2 293.85,-54.87 293.85,-52 293.85,-52 293.85,-5.2 293.85,-5.2 293.85,-2.33 319.66,0 351.43,0 383.2,0 409.01,-2.33 409.01,-5.2 409.01,-5.2 409.01,-52 409.01,-52"/>
<path fill="none" stroke="black" d="M409.01,-52C409.01,-49.13 383.2,-46.8 351.43,-46.8 319.66,-46.8 293.85,-49.13 293.85,-52"/>
<text xml:space="preserve" text-anchor="middle" x="351.43" y="-32.8" font-family="Times,serif" font-size="14.00">Search Index</text>
<text xml:space="preserve" text-anchor="middle" x="351.43" y="-16" font-family="Times,serif" font-size="14.00">listing documents</text>
</g>
<!-- Search&#45;&gt;SearchIndex -->
<g id="edge5" class="edge">
<title>Search-&gt;SearchIndex</title>
<path fill="none" stroke="black" d="M351.43,-140.5C351.43,-121.46 351.43,-92.39 351.43,-68.79"/>
<polygon fill="black" stroke="black" points="354.93,-68.88 351.43,-58.88 347.93,-68.88 354.93,-68.88"/>
<text xml:space="preserve" text-anchor="middle" x="366.21" y="-79.4" font-family="Times,serif" font-size="14.00">owns</text>
</g>
<!-- Notification -->
<g id="node6" class="node">
<title>Notification</title>
<polygon fill="none" stroke="black" points="304.26,-182.5 220.61,-182.5 220.61,-140.9 304.26,-140.9 304.26,-182.5"/>
<text xml:space="preserve" text-anchor="middle" x="262.43" y="-165.9" font-family="Times,serif" font-size="14.00">Notification</text>
<text xml:space="preserve" text-anchor="middle" x="262.43" y="-149.1" font-family="Times,serif" font-size="14.00">Service</text>
</g>
<!-- Kafka&#45;&gt;Search -->
<g id="edge11" class="edge">
<title>Kafka-&gt;Search</title>
<path fill="none" stroke="black" d="M315.05,-277.11C319.12,-268.54 323.86,-257.97 327.43,-248.2 333.9,-230.49 339.67,-210.18 343.92,-193.81"/>
<polygon fill="black" stroke="black" points="347.31,-194.69 346.37,-184.14 340.53,-192.97 347.31,-194.69"/>
<text xml:space="preserve" text-anchor="middle" x="361.3" y="-235.6" font-family="Times,serif" font-size="14.00">projection</text>
</g>
<!-- Kafka&#45;&gt;Notification -->
<g id="edge12" class="edge">
<title>Kafka-&gt;Notification</title>
<path fill="none" stroke="black" d="M285.6,-277.73C277.28,-269.77 268.6,-259.52 264.08,-248.2 257.29,-231.23 256.65,-210.81 257.81,-194.18"/>
<polygon fill="black" stroke="black" points="261.28,-194.64 258.77,-184.35 254.32,-193.96 261.28,-194.64"/>
<text xml:space="preserve" text-anchor="middle" x="295.75" y="-235.6" font-family="Times,serif" font-size="14.00">side effects</text>
</g>
</g>
</svg>