<svg xmlns="http://www.w3.org/2000/svg" xmlns:xlink="http://www.w3.org/1999/xlink" width="3133pt" height="574pt" viewBox="0.00 0.00 3133.00 574.00">
<g id="graph0" class="graph" transform="scale(2.77778 2.77778) rotate(0) translate(4 202.8)">
<title>CrossServiceReferences</title>
<polygon fill="white" stroke="none" points="-4,4 -4,-202.8 1124.02,-202.8 1124.02,4 -4,4"/>
<!-- Keycloak -->
<g id="node1" class="node">
<title>Keycloak</title>
<polygon fill="none" stroke="black" points="89.82,-196 20.18,-196 20.18,-160 89.82,-160 89.82,-196"/>
<text xml:space="preserve" text-anchor="middle" x="55" y="-173.8" font-family="Times,serif" font-size="14.00">Keycloak</text>
</g>
<!-- RegistrationSPI -->
<g id="node2" class="node">
<title>RegistrationSPI</title>
<polygon fill="none" stroke="black" points="440.22,-198.8 355.78,-198.8 355.78,-157.2 440.22,-157.2 440.22,-198.8"/>
<text xml:space="preserve" text-anchor="middle" x="398" y="-182.2" font-family="Times,serif" font-size="14.00">Registration</text>
<text xml:space="preserve" text-anchor="middle" x="398" y="-165.4" font-family="Times,serif" font-size="14.00">Event SPI</text>
</g>
<!-- Keycloak&#45;&gt;RegistrationSPI -->
<g id="edge1" class="edge">
<title>Keycloak-&gt;RegistrationSPI</title>
<path fill="none" stroke="black" d="M90.1,-178C90.1,-178 343.98,-178 343.98,-178"/>
<polygon fill="black" stroke="black" points="343.98,-181.5 353.98,-178 343.98,-174.5 343.98,-181.5"/>
</g>
<!-- Kafka -->
<g id="node3" class="node">
<title>Kafka</title>
<path fill="none" stroke="black" d="M693,-192.73C693,-194.53 680.9,-196 666,-196 651.1,-196 639,-194.53 639,-192.73 639,-192.73 639,-163.27 639,-163.27 639,-161.47 651.1,-160 666,-160 680.9,-160 693,-161.47 693,-163.27 693,-163.27 693,-192.73 693,-192.73"/>
<path fill="none" stroke="black" d="M693,-192.73C693,-190.92 680.9,-189.45 666,-189.45 651.1,-189.45 639,-190.92 639,-192.73"/>
<text xml:space="preserve" text-anchor="middle" x="666" y="-173.8" font-family="Times,serif" font-size="14.00">Kafka</text>
</g>
<!-- RegistrationSPI&#45;&gt;Kafka -->
<g id="edge2" class="edge">
<title>RegistrationSPI-&gt;Kafka</title>
<path fill="none" stroke="black" d="M440.47,-178C440.47,-178 627.32,-178 627.32,-178"/>
<polygon fill="black" stroke="black" points="627.32,-181.5 637.32,-178 627.32,-174.5 627.32,-181.5"/>
</g>
<!-- Profile -->
<g id="node4" class="node">
<title>Profile</title>
<polygon fill="none" stroke="black" points="80.99,-65.6 23.01,-65.6 23.01,-24 80.99,-24 80.99,-65.6"/>
<text xml:space="preserve" text-anchor="middle" x="52" y="-49" font-family="Times,serif" font-size="14.00">Profile</text>
<text xml:space="preserve" text-anchor="middle" x="52" y="-32.2" font-family="Times,serif" font-size="14.00">Service</text>
</g>
<!-- Kafka&#45;&gt;Profile -->
<g id="edge3" class="edge">
<title>Kafka-&gt;Profile</title>
<path fill="none" stroke="black" d="M657,-159.69C657,-139.85 657,-111 657,-111 657,-111 61.66,-111 61.66,-111 61.66,-111 61.66,-77.26 61.66,-77.26"/>
<polygon fill="black" stroke="black" points="65.16,-77.26 61.66,-67.26 58.16,-77.26 65.16,-77.26"/>
<text xml:space="preserve" text-anchor="middle" x="205.15" y="-107.2" font-family="Times,serif" font-size="14.00">UserRegistered</text>
</g>
<!-- Search -->
<g id="node7" class="node">
<title>Search</title>
<polygon fill="none" stroke="black" points="694.99,-65.6 637.01,-65.6 637.01,-24 694.99,-24 694.99,-65.6"/>
<text xml:space="preserve" text-anchor="middle" x="666" y="-49" font-family="Times,serif" font-size="14.00">Search</text>
<text xml:space="preserve" text-anchor="middle" x="666" y="-32.2" font-family="Times,serif" font-size="14.00">Service</text>
</g>
<!-- Kafka&#45;&gt;Search -->
<g id="edge4" class="edge">
<title>Kafka-&gt;Search</title>
<path fill="none" stroke="black" d="M675,-159.76C675,-159.76 675,-77.41 675,-77.41"/>
<polygon fill="black" stroke="black" points="678.5,-77.41 675,-67.41 671.5,-77.41 678.5,-77.41"/>
<text xml:space="preserve" text-anchor="middle" x="703.14" y="-107.2" font-family="Times,serif" font-size="14.00">listing events</text>
</g>
<!-- Notification -->
<g id="node8" class="node">
<title>Notification</title>
<polygon fill="none" stroke="black" points="893.82,-65.6 810.18,-65.6 810.18,-24 893.82,-24 893.82,-65.6"/>
<text xml:space="preserve" text-anchor="middle" x="852" y="-49" font-family="Times,serif" font-size="14.00">Notification</text>
<text xml:space="preserve" text-anchor="middle" x="852" y="-32.2" font-family="Times,serif" font-size="14.00">Service</text>
</g>
<!-- Kafka&#45;&gt;Notification -->
<g id="edge5" class="edge">
<title>Kafka-&gt;Notification</title>
<path fill="none" stroke="black" d="M693.44,-172C745.18,-172 852,-172 852,-172 852,-172 852,-77.6 852,-77.6"/>
<polygon fill="black" stroke="black" points="855.5,-77.6 852,-67.6 848.5,-77.6 855.5,-77.6"/>
<text xml:space="preserve" text-anchor="middle" x="891.35" y="-107.2" font-family="Times,serif" font-size="14.00">notification commands</text>
</g>
<!-- Analytics -->
<g id="node9" class="node">
<title>Analytics</title>
<polygon fill="none" stroke="black" points="1078.83,-65.6 1009.17,-65.6 1009.17,-24 1078.83,-24 1078.83,-65.6"/>
<text xml:space="preserve" text-anchor="middle" x="1044" y="-49" font-family="Times,serif" font-size="14.00">Analytics</text>
<text xml:space="preserve" text-anchor="middle" x="1044" y="-32.2" font-family="Times,serif" font-size="14.00">Service</text>
</g>
<!-- Kafka&#45;&gt;Analytics -->
<g id="edge6" class="edge">
<title>Kafka-&gt;Analytics</title>
<path fill="none" stroke="black" d="M693.49,-184C780.47,-184 1044,-184 1044,-184 1044,-184 1044,-77.46 1044,-77.46"/>
<polygon fill="black" stroke="black" points="1047.5,-77.45 1044,-67.46 1040.5,-77.46 1047.5,-77.45"/>
<text xml:space="preserve" text-anchor="middle" x="1075.51" y="-107.2" font-family="Times,serif" font-size="14.00">analytics events</text>
</g>
<!-- Profile&#45;&gt;Keycloak -->
<g id="edge7" class="edge">
<title>Profile-&gt;Keycloak</title>
<path fill="none" stroke="black" d="M42.34,-65.91C42.34,-65.91 42.34,-148.05 42.34,-148.05"/>
<polygon fill="black" stroke="black" points="38.84,-148.05 42.34,-158.05 45.84,-148.05 38.84,-148.05"/>
<text xml:space="preserve" text-anchor="middle" x="49.37" y="-107.2" font-family="Times,serif" font-size="14.00">keycloak_user_id</text>
</g>
<!-- Listing -->
<g id="node5" class="node">
<title>Listing</title>
<polygon fill="none" stroke="black" points="304.99,-65.6 247.01,-65.6 247.01,-24 304.99,-24 304.99,-65.6"/>
<text xml:space="preserve" text-anchor="middle" x="276" y="-49" font-family="Times,serif" font-size="14.00">Listing</text>
<text xml:space="preserve" text-anchor="middle" x="276" y="-32.2" font-family="Times,serif" font-size="14.00">Service</text>
</g>
<!-- Profile&#45;&gt;Listing -->
<!-- Listing&#45;&gt;Profile -->
<g id="edge8" class="edge">
<title>Listing-&gt;Profile</title>
<path fill="none" stroke="black" d="M246.72,-52C246.72,-52 92.8,-52 92.8,-52"/>
<polygon fill="black" stroke="black" points="92.8,-48.5 82.8,-52 92.8,-55.5 92.8,-48.5"/>
</g>
<!-- Rental -->
<g id="node6" class="node">
<title>Rental</title>
<polygon fill="none" stroke="black" points="521.57,-65.6 420.43,-65.6 420.43,-24 521.57,-24 521.57,-65.6"/>
<text xml:space="preserve" text-anchor="middle" x="471" y="-49" font-family="Times,serif" font-size="14.00">Rental Request</text>
<text xml:space="preserve" text-anchor="middle" x="471" y="-32.2" font-family="Times,serif" font-size="14.00">Service</text>
</g>
<!-- Listing&#45;&gt;Rental -->
<!-- Rental&#45;&gt;Profile -->
<g id="edge9" class="edge">
<title>Rental-&gt;Profile</title>
<path fill="none" stroke="black" d="M471,-23.84C471,-17.41 471,-12 471,-12 471,-12 52,-12 52,-12 52,-12 52,-13.18 52,-13.18"/>
<polygon fill="black" stroke="black" points="48.5,-12.33 52,-22.33 55.5,-12.33 48.5,-12.33"/>
<text xml:space="preserve" text-anchor="middle" x="308" y="-115.6" font-family="Times,serif" font-size="14.00">tenant_profile_id</text>
<text xml:space="preserve" text-anchor="middle" x="308" y="-98.8" font-family="Times,serif" font-size="14.00">landlord_profile_id</text>
</g>
<!-- Rental&#45;&gt;Search -->
<!-- Search&#45;&gt;Listing -->
<g id="edge10" class="edge">
<title>Search-&gt;Listing</title>
<path fill="none" stroke="black" d="M666,-23.71C666,-12.09 666,0 666,0 666,0 276,0 276,0 276,0 276,-12.2 276,-12.2"/>
<polygon fill="black" stroke="black" points="272.5,-12.2 276,-22.2 279.5,-12.2 272.5,-12.2"/>
<text xml:space="preserve" text-anchor="middle" x="473" y="-107.2" font-family="Times,serif" font-size="14.00">projected listing data</text>
</g>
<!-- Search&#45;&gt;Notification -->
<!-- Notification&#45;&gt;Analytics -->
</g>
</svg>