<svg xmlns="http://www.w3.org/2000/svg" xmlns:xlink="http://www.w3.org/1999/xlink" width="3323pt" height="399pt" viewBox="0.00 0.00 3323.00 399.00">
<g id="graph0" class="graph" transform="scale(2.77778 2.77778) rotate(0) translate(4 139.6)">
<title>DataStoresOwnership</title>
<polygon fill="white" stroke="none" points="-4,4 -4,-139.6 1192.15,-139.6 1192.15,4 -4,4"/>
<!-- Keycloak -->
<g id="node1" class="node">
<title>Keycloak</title>
<polygon fill="none" stroke="black" points="87.59,-132.8 17.94,-132.8 17.94,-96.8 87.59,-96.8 87.59,-132.8"/>
<text xml:space="preserve" text-anchor="middle" x="52.77" y="-110.6" font-family="Times,serif" font-size="14.00">Keycloak</text>
</g>
<!-- Profile -->
<g id="node2" class="node">
<title>Profile</title>
<polygon fill="none" stroke="black" points="207.76,-135.6 149.78,-135.6 149.78,-94 207.76,-94 207.76,-135.6"/>
<text xml:space="preserve" text-anchor="middle" x="178.77" y="-119" font-family="Times,serif" font-size="14.00">Profile</text>
<text xml:space="preserve" text-anchor="middle" x="178.77" y="-102.2" font-family="Times,serif" font-size="14.00">Service</text>
</g>
<!-- Keycloak&#45;&gt;Profile -->
<!-- KeycloakDb -->
<g id="node10" class="node">
<title>KeycloakDb</title>
<path fill="none" stroke="black" d="M87.53,-32.73C87.53,-34.53 67.91,-36 43.77,-36 19.62,-36 0,-34.53 0,-32.73 0,-32.73 0,-3.27 0,-3.27 0,-1.47 19.62,0 43.77,0 67.91,0 87.53,-1.47 87.53,-3.27 87.53,-3.27 87.53,-32.73 87.53,-32.73"/>
<path fill="none" stroke="black" d="M87.53,-32.73C87.53,-30.92 67.91,-29.45 43.77,-29.45 19.62,-29.45 0,-30.92 0,-32.73"/>
<text xml:space="preserve" text-anchor="middle" x="43.77" y="-13.8" font-family="Times,serif" font-size="14.00">keycloak_db</text>
</g>
<!-- Keycloak&#45;&gt;KeycloakDb -->
<g id="edge1" class="edge">
<title>Keycloak-&gt;KeycloakDb</title>
<path fill="none" stroke="black" d="M52.74,-96.59C52.74,-96.59 52.74,-47.97 52.74,-47.97"/>
<polygon fill="black" stroke="black" points="56.24,-47.97 52.74,-37.97 49.24,-47.97 56.24,-47.97"/>
</g>
<!-- Listing -->
<g id="node3" class="node">
<title>Listing</title>
<polygon fill="none" stroke="black" points="334.76,-135.6 276.78,-135.6 276.78,-94 334.76,-94 334.76,-135.6"/>
<text xml:space="preserve" text-anchor="middle" x="305.77" y="-119" font-family="Times,serif" font-size="14.00">Listing</text>
<text xml:space="preserve" text-anchor="middle" x="305.77" y="-102.2" font-family="Times,serif" font-size="14.00">Service</text>
</g>
<!-- Profile&#45;&gt;Listing -->
<!-- ProfileDb -->
<g id="node11" class="node">
<title>ProfileDb</title>
<path fill="none" stroke="black" d="M215.92,-32.73C215.92,-34.53 199.27,-36 178.77,-36 158.26,-36 141.61,-34.53 141.61,-32.73 141.61,-32.73 141.61,-3.27 141.61,-3.27 141.61,-1.47 158.26,0 178.77,0 199.27,0 215.92,-1.47 215.92,-3.27 215.92,-3.27 215.92,-32.73 215.92,-32.73"/>
<path fill="none" stroke="black" d="M215.92,-32.73C215.92,-30.92 199.27,-29.45 178.77,-29.45 158.26,-29.45 141.61,-30.92 141.61,-32.73"/>
<text xml:space="preserve" text-anchor="middle" x="178.77" y="-13.8" font-family="Times,serif" font-size="14.00">profile_db</text>
</g>
<!-- Profile&#45;&gt;ProfileDb -->
<g id="edge2" class="edge">
<title>Profile-&gt;ProfileDb</title>
<path fill="none" stroke="black" d="M178.77,-93.8C178.77,-93.8 178.77,-47.87 178.77,-47.87"/>
<polygon fill="black" stroke="black" points="182.27,-47.87 178.77,-37.87 175.27,-47.87 182.27,-47.87"/>
</g>
<!-- Media -->
<g id="node4" class="node">
<title>Media</title>
<polygon fill="none" stroke="black" points="460.76,-135.6 402.78,-135.6 402.78,-94 460.76,-94 460.76,-135.6"/>
<text xml:space="preserve" text-anchor="middle" x="431.77" y="-119" font-family="Times,serif" font-size="14.00">Media</text>
<text xml:space="preserve" text-anchor="middle" x="431.77" y="-102.2" font-family="Times,serif" font-size="14.00">Service</text>
</g>
<!-- Listing&#45;&gt;Media -->
<!-- ListingDb -->
<g id="node12" class="node">
<title>ListingDb</title>
<path fill="none" stroke="black" d="M341.77,-32.73C341.77,-34.53 325.63,-36 305.77,-36 285.9,-36 269.76,-34.53 269.76,-32.73 269.76,-32.73 269.76,-3.27 269.76,-3.27 269.76,-1.47 285.9,0 305.77,0 325.63,0 341.77,-1.47 341.77,-3.27 341.77,-3.27 341.77,-32.73 341.77,-32.73"/>
<path fill="none" stroke="black" d="M341.77,-32.73C341.77,-30.92 325.63,-29.45 305.77,-29.45 285.9,-29.45 269.76,-30.92 269.76,-32.73"/>
<text xml:space="preserve" text-anchor="middle" x="305.77" y="-13.8" font-family="Times,serif" font-size="14.00">listing_db</text>
</g>
<!-- Listing&#45;&gt;ListingDb -->
<g id="edge3" class="edge">
<title>Listing-&gt;ListingDb</title>
<path fill="none" stroke="black" d="M305.77,-93.8C305.77,-93.8 305.77,-47.87 305.77,-47.87"/>
<polygon fill="black" stroke="black" points="309.27,-47.87 305.77,-37.87 302.27,-47.87 309.27,-47.87"/>
</g>
<!-- Search -->
<g id="node5" class="node">
<title>Search</title>
<polygon fill="none" stroke="black" points="594.76,-135.6 536.78,-135.6 536.78,-94 594.76,-94 594.76,-135.6"/>
<text xml:space="preserve" text-anchor="middle" x="565.77" y="-119" font-family="Times,serif" font-size="14.00">Search</text>
<text xml:space="preserve" text-anchor="middle" x="565.77" y="-102.2" font-family="Times,serif" font-size="14.00">Service</text>
</g>
<!-- Media&#45;&gt;Search -->
<!-- MediaDb -->
<g id="node13" class="node">
<title>MediaDb</title>
<path fill="none" stroke="black" d="M467.37,-32.73C467.37,-34.53 451.41,-36 431.77,-36 412.12,-36 396.16,-34.53 396.16,-32.73 396.16,-32.73 396.16,-3.27 396.16,-3.27 396.16,-1.47 412.12,0 431.77,0 451.41,0 467.37,-1.47 467.37,-3.27 467.37,-3.27 467.37,-32.73 467.37,-32.73"/>
<path fill="none" stroke="black" d="M467.37,-32.73C467.37,-30.92 451.41,-29.45 431.77,-29.45 412.12,-29.45 396.16,-30.92 396.16,-32.73"/>
<text xml:space="preserve" text-anchor="middle" x="431.77" y="-13.8" font-family="Times,serif" font-size="14.00">media_db</text>
</g>
<!-- Media&#45;&gt;MediaDb -->
<g id="edge4" class="edge">
<title>Media-&gt;MediaDb</title>
<path fill="none" stroke="black" d="M431.77,-93.8C431.77,-93.8 431.77,-47.87 431.77,-47.87"/>
<polygon fill="black" stroke="black" points="435.27,-47.87 431.77,-37.87 428.27,-47.87 435.27,-47.87"/>
</g>
<!-- Rental -->
<g id="node6" class="node">
<title>Rental</title>
<polygon fill="none" stroke="black" points="750.34,-135.6 649.19,-135.6 649.19,-94 750.34,-94 750.34,-135.6"/>
<text xml:space="preserve" text-anchor="middle" x="699.77" y="-119" font-family="Times,serif" font-size="14.00">Rental Request</text>
<text xml:space="preserve" text-anchor="middle" x="699.77" y="-102.2" font-family="Times,serif" font-size="14.00">Service</text>
</g>
<!-- Search&#45;&gt;Rental -->
<!-- SearchIndex -->
<g id="node14" class="node">
<title>SearchIndex</title>
<path fill="none" stroke="black" d="M611.69,-32.73C611.69,-34.53 591.56,-36 566.77,-36 541.98,-36 521.84,-34.53 521.84,-32.73 521.84,-32.73 521.84,-3.27 521.84,-3.27 521.84,-1.47 541.98,0 566.77,0 591.56,0 611.69,-1.47 611.69,-3.27 611.69,-3.27 611.69,-32.73 611.69,-32.73"/>
<path fill="none" stroke="black" d="M611.69,-32.73C611.69,-30.92 591.56,-29.45 566.77,-29.45 541.98,-29.45 521.84,-30.92 521.84,-32.73"/>
<text xml:space="preserve" text-anchor="middle" x="566.77" y="-13.8" font-family="Times,serif" font-size="14.00">search_index</text>
</g>
<!-- Search&#45;&gt;SearchIndex -->
<g id="edge5" class="edge">
<title>Search-&gt;SearchIndex</title>
<path fill="none" stroke="black" d="M565.77,-93.8C565.77,-93.8 565.77,-47.87 565.77,-47.87"/>
<polygon fill="black" stroke="black" points="569.27,-47.87 565.77,-37.87 562.27,-47.87 569.27,-47.87"/>
</g>
<!-- Moderation -->
<g id="node7" class="node">
<title>Moderation</title>
<polygon fill="none" stroke="black" points="885.42,-135.6 804.11,-135.6 804.11,-94 885.42,-94 885.42,-135.6"/>
<text xml:space="preserve" text-anchor="middle" x="844.77" y="-119" font-family="Times,serif" font-size="14.00">Moderation</text>
<text xml:space="preserve" text-anchor="middle" x="844.77" y="-102.2" font-family="Times,serif" font-size="14.00">Service</text>
</g>
<!-- Rental&#45;&gt;Moderation -->
<!-- RentalDb -->
<g id="node15" class="node">
<title>RentalDb</title>
<path fill="none" stroke="black" d="M734.2,-32.73C734.2,-34.53 718.77,-36 699.77,-36 680.77,-36 665.33,-34.53 665.33,-32.73 665.33,-32.73 665.33,-3.27 665.33,-3.27 665.33,-1.47 680.77,0 699.77,0 718.77,0 734.2,-1.47 734.2,-3.27 734.2,-3.27 734.2,-32.73 734.2,-32.73"/>
<path fill="none" stroke="black" d="M734.2,-32.73C734.2,-30.92 718.77,-29.45 699.77,-29.45 680.77,-29.45 665.33,-30.92 665.33,-32.73"/>
<text xml:space="preserve" text-anchor="middle" x="699.77" y="-13.8" font-family="Times,serif" font-size="14.00">rental_db</text>
</g>
<!-- Rental&#45;&gt;RentalDb -->
<g id="edge6" class="edge">
<title>Rental-&gt;RentalDb</title>
<path fill="none" stroke="black" d="M699.77,-93.8C699.77,-93.8 699.77,-47.87 699.77,-47.87"/>
<polygon fill="black" stroke="black" points="703.27,-47.87 699.77,-37.87 696.27,-47.87 703.27,-47.87"/>
</g>
<!-- Notification -->
<g id="node8" class="node">
<title>Notification</title>
<polygon fill="none" stroke="black" points="1038.59,-135.6 954.94,-135.6 954.94,-94 1038.59,-94 1038.59,-135.6"/>
<text xml:space="preserve" text-anchor="middle" x="996.77" y="-119" font-family="Times,serif" font-size="14.00">Notification</text>
<text xml:space="preserve" text-anchor="middle" x="996.77" y="-102.2" font-family="Times,serif" font-size="14.00">Service</text>
</g>
<!-- Moderation&#45;&gt;Notification -->
<!-- ModerationDb -->
<g id="node16" class="node">
<title>ModerationDb</title>
<path fill="none" stroke="black" d="M892.15,-32.73C892.15,-34.53 869.56,-36 841.77,-36 813.97,-36 791.39,-34.53 791.39,-32.73 791.39,-32.73 791.39,-3.27 791.39,-3.27 791.39,-1.47 813.97,0 841.77,0 869.56,0 892.15,-1.47 892.15,-3.27 892.15,-3.27 892.15,-32.73 892.15,-32.73"/>
<path fill="none" stroke="black" d="M892.15,-32.73C892.15,-30.92 869.56,-29.45 841.77,-29.45 813.97,-29.45 791.39,-30.92 791.39,-32.73"/>
<text xml:space="preserve" text-anchor="middle" x="841.77" y="-13.8" font-family="Times,serif" font-size="14.00">moderation_db</text>
</g>
<!-- Moderation&#45;&gt;ModerationDb -->
<g id="edge7" class="edge">
<title>Moderation-&gt;ModerationDb</title>
<path fill="none" stroke="black" d="M844.77,-93.8C844.77,-93.8 844.77,-47.87 844.77,-47.87"/>
<polygon fill="black" stroke="black" points="848.27,-47.87 844.77,-37.87 841.27,-47.87 848.27,-47.87"/>
</g>
<!-- Analytics -->
<g id="node9" class="node">
<title>Analytics</title>
<polygon fill="none" stroke="black" points="1170.59,-135.6 1100.94,-135.6 1100.94,-94 1170.59,-94 1170.59,-135.6"/>
<text xml:space="preserve" text-anchor="middle" x="1135.77" y="-119" font-family="Times,serif" font-size="14.00">Analytics</text>
<text xml:space="preserve" text-anchor="middle" x="1135.77" y="-102.2" font-family="Times,serif" font-size="14.00">Service</text>
</g>
<!-- Notification&#45;&gt;Analytics -->
<!-- NotificationDb -->
<g id="node17" class="node">
<title>NotificationDb</title>
<path fill="none" stroke="black" d="M1047.53,-32.73C1047.53,-34.53 1024.78,-36 996.77,-36 968.75,-36 946,-34.53 946,-32.73 946,-32.73 946,-3.27 946,-3.27 946,-1.47 968.75,0 996.77,0 1024.78,0 1047.53,-1.47 1047.53,-3.27 1047.53,-3.27 1047.53,-32.73 1047.53,-32.73"/>
<path fill="none" stroke="black" d="M1047.53,-32.73C1047.53,-30.92 1024.78,-29.45 996.77,-29.45 968.75,-29.45 946,-30.92 946,-32.73"/>
<text xml:space="preserve" text-anchor="middle" x="996.77" y="-13.8" font-family="Times,serif" font-size="14.00">notification_db</text>
</g>
<!-- Notification&#45;&gt;NotificationDb -->
<g id="edge8" class="edge">
<title>Notification-&gt;NotificationDb</title>
<path fill="none" stroke="black" d="M996.77,-93.8C996.77,-93.8 996.77,-47.87 996.77,-47.87"/>
<polygon fill="black" stroke="black" points="1000.27,-47.87 996.77,-37.87 993.27,-47.87 1000.27,-47.87"/>
</g>
<!-- AnalyticsDb -->
<g id="node18" class="node">
<title>AnalyticsDb</title>
<path fill="none" stroke="black" d="M1188.15,-32.73C1188.15,-34.53 1168.7,-36 1144.77,-36 1120.83,-36 1101.39,-34.53 1101.39,-32.73 1101.39,-32.73 1101.39,-3.27 1101.39,-3.27 1101.39,-1.47 1120.83,0 1144.77,0 1168.7,0 1188.15,-1.47 1188.15,-3.27 1188.15,-3.27 1188.15,-32.73 1188.15,-32.73"/>
<path fill="none" stroke="black" d="M1188.15,-32.73C1188.15,-30.92 1168.7,-29.45 1144.77,-29.45 1120.83,-29.45 1101.39,-30.92 1101.39,-32.73"/>
<text xml:space="preserve" text-anchor="middle" x="1144.77" y="-13.8" font-family="Times,serif" font-size="14.00">analytics_db</text>
</g>
<!-- Analytics&#45;&gt;AnalyticsDb -->
<g id="edge9" class="edge">
<title>Analytics-&gt;AnalyticsDb</title>
<path fill="none" stroke="black" d="M1135.99,-93.8C1135.99,-93.8 1135.99,-47.87 1135.99,-47.87"/>
<polygon fill="black" stroke="black" points="1139.49,-47.87 1135.99,-37.87 1132.49,-47.87 1139.49,-47.87"/>
</g>
</g>
</svg>