<svg xmlns="http://www.w3.org/2000/svg" width="988" height="890" viewBox="0 0 988 890" role="img" aria-labelledby="title desc">
<title>Listing Service Database Schema</title>
<desc>Entity relationship diagram for Listing Service Database Schema.</desc>
<defs>
<filter id="shadow" x="-8%" y="-8%" width="116%" height="124%"><feDropShadow dx="0" dy="8" stdDeviation="8" flood-color="#0f172a" flood-opacity=".10"/></filter>
<marker id="arrow" markerWidth="12" markerHeight="12" refX="10" refY="6" orient="auto"><path d="M2,2 L10,6 L2,10" fill="none" stroke="#64748b" stroke-width="1.8" stroke-linecap="round" stroke-linejoin="round"/></marker>
</defs>
<rect width="100%" height="100%" fill="#ffffff"/>
<rect x="18" y="18" width="952" height="854" rx="18" fill="#f8fafc" stroke="#e2e8f0"/>
<text x="40" y="56" font-family="Inter, Segoe UI, Arial, sans-serif" font-size="22" font-weight="700" fill="#0f172a">Listing Service Database Schema</text>
<path d="M 463.0 484 C 463.0 522.0, 210.0 522.0, 210.0 560" fill="none" stroke="#64748b" stroke-width="2.2" marker-end="url(#arrow)"/>
<text x="336.5" y="486.0" text-anchor="middle" font-family="Inter, Segoe UI, Arial, sans-serif" font-size="12" font-weight="700" fill="#475569">1:1</text>
<path d="M 463.0 484 C 463.0 547.0, 810.0 547.0, 810.0 610" fill="none" stroke="#64748b" stroke-width="2.2" marker-end="url(#arrow)"/>
<text x="636.5" y="497.0" text-anchor="middle" font-family="Inter, Segoe UI, Arial, sans-serif" font-size="12" font-weight="700" fill="#475569">1:1</text>
<g filter="url(#shadow)">
<rect x="330" y="90" width="266" height="394" rx="10" fill="#ffffff" stroke="#cbd5e1"/>
<rect x="330" y="90" width="266" height="44" rx="10" fill="#2563eb"/>
<path d="M 330 124 H 596 V 134 H 330 Z" fill="#2563eb"/>
<text x="348" y="119" font-family="Inter, Segoe UI, Arial, sans-serif" font-size="16" font-weight="700" fill="#ffffff">listings</text>
<rect x="344" y="138" width="238" height="24" rx="6" fill="#eff6ff"/>
<text x="354" y="156" font-family="Inter, Segoe UI, Arial, sans-serif" font-size="10" font-weight="800" fill="#2563eb">PK</text>
<text x="386" y="156" font-family="Inter, Segoe UI, Arial, sans-serif" font-size="13" font-weight="600" fill="#0f172a">id</text>
<text x="578" y="156" text-anchor="end" font-family="Inter, Segoe UI, Arial, sans-serif" font-size="12" fill="#64748b">uuid</text>
<rect x="344" y="166" width="238" height="24" rx="6" fill="#ffffff"/>
<text x="354" y="184" font-family="Inter, Segoe UI, Arial, sans-serif" font-size="10" font-weight="800" fill="#2563eb">FK</text>
<text x="386" y="184" font-family="Inter, Segoe UI, Arial, sans-serif" font-size="13" font-weight="600" fill="#0f172a">landlord_profile_id</text>
<text x="578" y="184" text-anchor="end" font-family="Inter, Segoe UI, Arial, sans-serif" font-size="12" fill="#64748b">uuid</text>
<rect x="344" y="194" width="238" height="24" rx="6" fill="#ffffff"/>
<text x="386" y="212" font-family="Inter, Segoe UI, Arial, sans-serif" font-size="13" font-weight="600" fill="#0f172a">title</text>
<text x="578" y="212" text-anchor="end" font-family="Inter, Segoe UI, Arial, sans-serif" font-size="12" fill="#64748b">varchar(200)</text>
<rect x="344" y="222" width="238" height="24" rx="6" fill="#ffffff"/>
<text x="386" y="240" font-family="Inter, Segoe UI, Arial, sans-serif" font-size="13" font-weight="600" fill="#0f172a">description</text>
<text x="578" y="240" text-anchor="end" font-family="Inter, Segoe UI, Arial, sans-serif" font-size="12" fill="#64748b">text</text>
<rect x="344" y="250" width="238" height="24" rx="6" fill="#ffffff"/>
<text x="386" y="268" font-family="Inter, Segoe UI, Arial, sans-serif" font-size="13" font-weight="600" fill="#0f172a">property_type</text>
<text x="578" y="268" text-anchor="end" font-family="Inter, Segoe UI, Arial, sans-serif" font-size="12" fill="#64748b">varchar(40)</text>
<rect x="344" y="278" width="238" height="24" rx="6" fill="#ffffff"/>
<text x="386" y="296" font-family="Inter, Segoe UI, Arial, sans-serif" font-size="13" font-weight="600" fill="#0f172a">deal_type</text>
<text x="578" y="296" text-anchor="end" font-family="Inter, Segoe UI, Arial, sans-serif" font-size="12" fill="#64748b">varchar(40)</text>
<rect x="344" y="306" width="238" height="24" rx="6" fill="#ffffff"/>
<text x="386" y="324" font-family="Inter, Segoe UI, Arial, sans-serif" font-size="13" font-weight="600" fill="#0f172a">price_amount</text>
<text x="578" y="324" text-anchor="end" font-family="Inter, Segoe UI, Arial, sans-serif" font-size="12" fill="#64748b">numeric(12,2)</text>
<rect x="344" y="334" width="238" height="24" rx="6" fill="#ffffff"/>
<text x="386" y="352" font-family="Inter, Segoe UI, Arial, sans-serif" font-size="13" font-weight="600" fill="#0f172a">price_currency</text>
<text x="578" y="352" text-anchor="end" font-family="Inter, Segoe UI, Arial, sans-serif" font-size="12" fill="#64748b">char(3)</text>
<rect x="344" y="362" width="238" height="24" rx="6" fill="#ffffff"/>
<text x="386" y="380" font-family="Inter, Segoe UI, Arial, sans-serif" font-size="13" font-weight="600" fill="#0f172a">status</text>
<text x="578" y="380" text-anchor="end" font-family="Inter, Segoe UI, Arial, sans-serif" font-size="12" fill="#64748b">varchar(32)</text>
<rect x="344" y="390" width="238" height="24" rx="6" fill="#ffffff"/>
<text x="386" y="408" font-family="Inter, Segoe UI, Arial, sans-serif" font-size="13" font-weight="600" fill="#0f172a">version</text>
<text x="578" y="408" text-anchor="end" font-family="Inter, Segoe UI, Arial, sans-serif" font-size="12" fill="#64748b">bigint</text>
<rect x="344" y="418" width="238" height="24" rx="6" fill="#ffffff"/>
<text x="386" y="436" font-family="Inter, Segoe UI, Arial, sans-serif" font-size="13" font-weight="600" fill="#0f172a">created_at</text>
<text x="578" y="436" text-anchor="end" font-family="Inter, Segoe UI, Arial, sans-serif" font-size="12" fill="#64748b">timestamptz</text>
<rect x="344" y="446" width="238" height="24" rx="6" fill="#ffffff"/>
<text x="386" y="464" font-family="Inter, Segoe UI, Arial, sans-serif" font-size="13" font-weight="600" fill="#0f172a">updated_at</text>
<text x="578" y="464" text-anchor="end" font-family="Inter, Segoe UI, Arial, sans-serif" font-size="12" fill="#64748b">timestamptz</text>
</g>
<g filter="url(#shadow)">
<rect x="80" y="560" width="260" height="282" rx="10" fill="#ffffff" stroke="#cbd5e1"/>
<rect x="80" y="560" width="260" height="44" rx="10" fill="#2563eb"/>
<path d="M 80 594 H 340 V 604 H 80 Z" fill="#2563eb"/>
<text x="98" y="589" font-family="Inter, Segoe UI, Arial, sans-serif" font-size="16" font-weight="700" fill="#ffffff">listing_locations</text>
<rect x="94" y="608" width="232" height="24" rx="6" fill="#eff6ff"/>
<text x="104" y="626" font-family="Inter, Segoe UI, Arial, sans-serif" font-size="10" font-weight="800" fill="#2563eb">PK</text>
<text x="136" y="626" font-family="Inter, Segoe UI, Arial, sans-serif" font-size="13" font-weight="600" fill="#0f172a">listing_id</text>
<text x="322" y="626" text-anchor="end" font-family="Inter, Segoe UI, Arial, sans-serif" font-size="12" fill="#64748b">uuid</text>
<rect x="94" y="636" width="232" height="24" rx="6" fill="#ffffff"/>
<text x="136" y="654" font-family="Inter, Segoe UI, Arial, sans-serif" font-size="13" font-weight="600" fill="#0f172a">country</text>
<text x="322" y="654" text-anchor="end" font-family="Inter, Segoe UI, Arial, sans-serif" font-size="12" fill="#64748b">varchar(80)</text>
<rect x="94" y="664" width="232" height="24" rx="6" fill="#ffffff"/>
<text x="136" y="682" font-family="Inter, Segoe UI, Arial, sans-serif" font-size="13" font-weight="600" fill="#0f172a">city</text>
<text x="322" y="682" text-anchor="end" font-family="Inter, Segoe UI, Arial, sans-serif" font-size="12" fill="#64748b">varchar(120)</text>
<rect x="94" y="692" width="232" height="24" rx="6" fill="#ffffff"/>
<text x="136" y="710" font-family="Inter, Segoe UI, Arial, sans-serif" font-size="13" font-weight="600" fill="#0f172a">district</text>
<text x="322" y="710" text-anchor="end" font-family="Inter, Segoe UI, Arial, sans-serif" font-size="12" fill="#64748b">varchar(120)</text>
<rect x="94" y="720" width="232" height="24" rx="6" fill="#ffffff"/>
<text x="136" y="738" font-family="Inter, Segoe UI, Arial, sans-serif" font-size="13" font-weight="600" fill="#0f172a">street</text>
<text x="322" y="738" text-anchor="end" font-family="Inter, Segoe UI, Arial, sans-serif" font-size="12" fill="#64748b">varchar(180)</text>
<rect x="94" y="748" width="232" height="24" rx="6" fill="#ffffff"/>
<text x="136" y="766" font-family="Inter, Segoe UI, Arial, sans-serif" font-size="13" font-weight="600" fill="#0f172a">building</text>
<text x="322" y="766" text-anchor="end" font-family="Inter, Segoe UI, Arial, sans-serif" font-size="12" fill="#64748b">varchar(40)</text>
<rect x="94" y="776" width="232" height="24" rx="6" fill="#ffffff"/>
<text x="136" y="794" font-family="Inter, Segoe UI, Arial, sans-serif" font-size="13" font-weight="600" fill="#0f172a">latitude</text>
<text x="322" y="794" text-anchor="end" font-family="Inter, Segoe UI, Arial, sans-serif" font-size="12" fill="#64748b">numeric(10,7)</text>
<rect x="94" y="804" width="232" height="24" rx="6" fill="#ffffff"/>
<text x="136" y="822" font-family="Inter, Segoe UI, Arial, sans-serif" font-size="13" font-weight="600" fill="#0f172a">longitude</text>
<text x="322" y="822" text-anchor="end" font-family="Inter, Segoe UI, Arial, sans-serif" font-size="12" fill="#64748b">numeric(10,7)</text>
</g>
<g filter="url(#shadow)">
<rect x="680" y="610" width="260" height="226" rx="10" fill="#ffffff" stroke="#cbd5e1"/>
<rect x="680" y="610" width="260" height="44" rx="10" fill="#2563eb"/>
<path d="M 680 644 H 940 V 654 H 680 Z" fill="#2563eb"/>
<text x="698" y="639" font-family="Inter, Segoe UI, Arial, sans-serif" font-size="16" font-weight="700" fill="#ffffff">listing_details</text>
<rect x="694" y="658" width="232" height="24" rx="6" fill="#eff6ff"/>
<text x="704" y="676" font-family="Inter, Segoe UI, Arial, sans-serif" font-size="10" font-weight="800" fill="#2563eb">PK</text>
<text x="736" y="676" font-family="Inter, Segoe UI, Arial, sans-serif" font-size="13" font-weight="600" fill="#0f172a">listing_id</text>
<text x="922" y="676" text-anchor="end" font-family="Inter, Segoe UI, Arial, sans-serif" font-size="12" fill="#64748b">uuid</text>
<rect x="694" y="686" width="232" height="24" rx="6" fill="#ffffff"/>
<text x="736" y="704" font-family="Inter, Segoe UI, Arial, sans-serif" font-size="13" font-weight="600" fill="#0f172a">rooms</text>
<text x="922" y="704" text-anchor="end" font-family="Inter, Segoe UI, Arial, sans-serif" font-size="12" fill="#64748b">integer</text>
<rect x="694" y="714" width="232" height="24" rx="6" fill="#ffffff"/>
<text x="736" y="732" font-family="Inter, Segoe UI, Arial, sans-serif" font-size="13" font-weight="600" fill="#0f172a">total_area</text>
<text x="922" y="732" text-anchor="end" font-family="Inter, Segoe UI, Arial, sans-serif" font-size="12" fill="#64748b">numeric(8,2)</text>
<rect x="694" y="742" width="232" height="24" rx="6" fill="#ffffff"/>
<text x="736" y="760" font-family="Inter, Segoe UI, Arial, sans-serif" font-size="13" font-weight="600" fill="#0f172a">floor</text>
<text x="922" y="760" text-anchor="end" font-family="Inter, Segoe UI, Arial, sans-serif" font-size="12" fill="#64748b">integer</text>
<rect x="694" y="770" width="232" height="24" rx="6" fill="#ffffff"/>
<text x="736" y="788" font-family="Inter, Segoe UI, Arial, sans-serif" font-size="13" font-weight="600" fill="#0f172a">floors_total</text>
<text x="922" y="788" text-anchor="end" font-family="Inter, Segoe UI, Arial, sans-serif" font-size="12" fill="#64748b">integer</text>
<rect x="694" y="798" width="232" height="24" rx="6" fill="#ffffff"/>
<text x="736" y="816" font-family="Inter, Segoe UI, Arial, sans-serif" font-size="13" font-weight="600" fill="#0f172a">attributes</text>
<text x="922" y="816" text-anchor="end" font-family="Inter, Segoe UI, Arial, sans-serif" font-size="12" fill="#64748b">jsonb</text>
</g>
</svg>
