<svg xmlns="http://www.w3.org/2000/svg" xmlns:xlink="http://www.w3.org/1999/xlink" width="1372pt" height="1057pt" viewBox="0.00 0.00 1372.00 1057.00">
<g id="graph0" class="graph" transform="scale(2.77778 2.77778) rotate(0) translate(4 376.4)">
<title>G</title>
<polygon fill="white" stroke="none" points="-4,4 -4,-376.4 489.88,-376.4 489.88,4 -4,4"/>
<!-- listings -->
<g id="node1" class="node">
<title>listings</title>
<polygon fill="none" stroke="black" points="159.76,-187.9 159.76,-371.9 320.4,-371.9 320.4,-187.9 159.76,-187.9"/>
<text xml:space="preserve" text-anchor="middle" x="240.08" y="-355.3" font-family="Times,serif" font-size="14.00">listings</text>
<polyline fill="none" stroke="black" points="159.76,-347.1 320.4,-347.1"/>
<text xml:space="preserve" text-anchor="start" x="167.76" y="-330.5" font-family="Times,serif" font-size="14.00">id : uuid PK</text>
<text xml:space="preserve" text-anchor="start" x="167.76" y="-313.7" font-family="Times,serif" font-size="14.00">landlord_profile_id : uuid</text>
<text xml:space="preserve" text-anchor="start" x="167.76" y="-296.9" font-family="Times,serif" font-size="14.00">title : varchar(180)</text>
<text xml:space="preserve" text-anchor="start" x="167.76" y="-280.1" font-family="Times,serif" font-size="14.00">description : text</text>
<text xml:space="preserve" text-anchor="start" x="167.76" y="-263.3" font-family="Times,serif" font-size="14.00">status : varchar(32)</text>
<text xml:space="preserve" text-anchor="start" x="167.76" y="-246.5" font-family="Times,serif" font-size="14.00">price_amount : numeric</text>
<text xml:space="preserve" text-anchor="start" x="167.76" y="-229.7" font-family="Times,serif" font-size="14.00">price_currency : char(3)</text>
<text xml:space="preserve" text-anchor="start" x="167.76" y="-212.9" font-family="Times,serif" font-size="14.00">created_at : timestamptz</text>
<text xml:space="preserve" text-anchor="start" x="167.76" y="-196.1" font-family="Times,serif" font-size="14.00">updated_at : timestamptz</text>
</g>
<!-- listing_addresses -->
<g id="node2" class="node">
<title>listing_addresses</title>
<polygon fill="none" stroke="black" points="0,-0.5 0,-134.1 148.15,-134.1 148.15,-0.5 0,-0.5"/>
<text xml:space="preserve" text-anchor="middle" x="74.08" y="-117.5" font-family="Times,serif" font-size="14.00">listing_addresses</text>
<polyline fill="none" stroke="black" points="0,-109.3 148.15,-109.3"/>
<text xml:space="preserve" text-anchor="start" x="8" y="-92.7" font-family="Times,serif" font-size="14.00">listing_id : uuid PK/FK</text>
<text xml:space="preserve" text-anchor="start" x="8" y="-75.9" font-family="Times,serif" font-size="14.00">country : varchar(80)</text>
<text xml:space="preserve" text-anchor="start" x="8" y="-59.1" font-family="Times,serif" font-size="14.00">city : varchar(120)</text>
<text xml:space="preserve" text-anchor="start" x="8" y="-42.3" font-family="Times,serif" font-size="14.00">street : varchar(180)</text>
<text xml:space="preserve" text-anchor="start" x="8" y="-25.5" font-family="Times,serif" font-size="14.00">house : varchar(40)</text>
<text xml:space="preserve" text-anchor="start" x="8" y="-8.7" font-family="Times,serif" font-size="14.00">apartment : varchar(40)</text>
</g>
<!-- listings&#45;&gt;listing_addresses -->
<g id="edge1" class="edge">
<title>listings-&gt;listing_addresses</title>
<path fill="none" stroke="black" d="M167.99,-187.45C156.32,-172.65 144.37,-157.47 133.06,-143.13"/>
<polygon fill="black" stroke="black" points="135.99,-141.19 127.05,-135.5 130.49,-145.52 135.99,-141.19"/>
<text xml:space="preserve" text-anchor="middle" x="161.04" y="-156.8" font-family="Times,serif" font-size="14.00">1:1</text>
</g>
<!-- listing_details -->
<g id="node3" class="node">
<title>listing_details</title>
<polygon fill="none" stroke="black" points="166.15,-8.9 166.15,-125.7 314.01,-125.7 314.01,-8.9 166.15,-8.9"/>
<text xml:space="preserve" text-anchor="middle" x="240.08" y="-109.1" font-family="Times,serif" font-size="14.00">listing_details</text>
<polyline fill="none" stroke="black" points="166.15,-100.9 314.01,-100.9"/>
<text xml:space="preserve" text-anchor="start" x="174.15" y="-84.3" font-family="Times,serif" font-size="14.00">listing_id : uuid PK/FK</text>
<text xml:space="preserve" text-anchor="start" x="174.15" y="-67.5" font-family="Times,serif" font-size="14.00">rooms : int</text>
<text xml:space="preserve" text-anchor="start" x="174.15" y="-50.7" font-family="Times,serif" font-size="14.00">floor : int</text>
<text xml:space="preserve" text-anchor="start" x="174.15" y="-33.9" font-family="Times,serif" font-size="14.00">total_floors : int</text>
<text xml:space="preserve" text-anchor="start" x="174.15" y="-17.1" font-family="Times,serif" font-size="14.00">area_m2 : numeric</text>
</g>
<!-- listings&#45;&gt;listing_details -->
<g id="edge2" class="edge">
<title>listings-&gt;listing_details</title>
<path fill="none" stroke="black" d="M240.08,-187.45C240.08,-170.65 240.08,-153.38 240.08,-137.38"/>
<polygon fill="black" stroke="black" points="243.58,-137.49 240.08,-127.49 236.58,-137.49 243.58,-137.49"/>
<text xml:space="preserve" text-anchor="middle" x="249.02" y="-156.8" font-family="Times,serif" font-size="14.00">1:1</text>
</g>
<!-- listing_outbox -->
<g id="node4" class="node">
<title>listing_outbox</title>
<polygon fill="none" stroke="black" points="332.28,-8.9 332.28,-125.7 485.88,-125.7 485.88,-8.9 332.28,-8.9"/>
<text xml:space="preserve" text-anchor="middle" x="409.08" y="-109.1" font-family="Times,serif" font-size="14.00">listing_outbox</text>
<polyline fill="none" stroke="black" points="332.28,-100.9 485.88,-100.9"/>
<text xml:space="preserve" text-anchor="start" x="340.28" y="-84.3" font-family="Times,serif" font-size="14.00">id : uuid PK</text>
<text xml:space="preserve" text-anchor="start" x="340.28" y="-67.5" font-family="Times,serif" font-size="14.00">aggregate_id : uuid</text>
<text xml:space="preserve" text-anchor="start" x="340.28" y="-50.7" font-family="Times,serif" font-size="14.00">event_type : varchar(80)</text>
<text xml:space="preserve" text-anchor="start" x="340.28" y="-33.9" font-family="Times,serif" font-size="14.00">payload : jsonb</text>
<text xml:space="preserve" text-anchor="start" x="340.28" y="-17.1" font-family="Times,serif" font-size="14.00">created_at : timestamptz</text>
</g>
<!-- listings&#45;&gt;listing_outbox -->
<g id="edge3" class="edge">
<title>listings-&gt;listing_outbox</title>
<path fill="none" stroke="black" d="M313.46,-187.45C327.73,-169.68 342.42,-151.37 355.87,-134.6"/>
<polygon fill="black" stroke="black" points="358.31,-137.15 361.84,-127.16 352.85,-132.77 358.31,-137.15"/>
<text xml:space="preserve" text-anchor="middle" x="350.21" y="-156.8" font-family="Times,serif" font-size="14.00">1:N</text>
</g>
</g>
</svg>