<svg xmlns="http://www.w3.org/2000/svg" xmlns:xlink="http://www.w3.org/1999/xlink" version="1.1" data-diagram-type="SEQUENCE" style="width:1364px;height:961px;background:#FFFFFF;" width="1364px" height="961px" viewBox="0 0 1364 961" zoomAndPan="magnify" preserveAspectRatio="none" contentStyleType="text/css"><?plantuml 1.2026.7beta5?><defs/><g font-family="sans-serif" lengthAdjust="spacing"><g class="title" data-source-line="1"><text x="439.406" y="27.995" fill="#000" font-size="14" textLength="478.953" font-weight="700">Login Flow - Identity Service as BFF with Authorization Code</text></g><g class="participant-lifeline" data-qualified-name="User" data-entity-uid="part1" id="part1-lifeline" data-source-line="3"><g><title>User</title><rect x="19.955" y="118.594" width="8" height="760.719" fill="#000" fill-opacity="0"/><line x1="23" y1="118.594" x2="23" y2="879.313" style="stroke:#181818;stroke-width:0.5;stroke-dasharray:5,5;"/></g></g><g class="participant-lifeline" data-qualified-name="Client" data-entity-uid="part2" id="part2-lifeline" data-source-line="4"><g><title>Public Client</title><rect x="167.514" y="118.594" width="8" height="760.719" fill="#000" fill-opacity="0"/><line x1="170.91" y1="118.594" x2="170.91" y2="879.313" style="stroke:#181818;stroke-width:0.5;stroke-dasharray:5,5;"/></g></g><g class="participant-lifeline" data-qualified-name="Identity" data-entity-uid="part3" id="part3-lifeline" data-source-line="5"><g><title>Identity Service</title><rect x="403.811" y="118.594" width="8" height="760.719" fill="#000" fill-opacity="0"/><line x1="406.888" y1="118.594" x2="406.888" y2="879.313" style="stroke:#181818;stroke-width:0.5;stroke-dasharray:5,5;"/></g></g><g class="participant-lifeline" data-qualified-name="Keycloak" data-entity-uid="part4" id="part4-lifeline" data-source-line="6"><g><title>Keycloak</title><rect x="748.215" y="118.594" width="8" height="760.719" fill="#000" fill-opacity="0"/><line x1="751.756" y1="118.594" x2="751.756" y2="879.313" style="stroke:#181818;stroke-width:0.5;stroke-dasharray:5,5;"/></g></g><g class="participant-lifeline" data-qualified-name="Gateway" data-entity-uid="part5" id="part5-lifeline" data-source-line="7"><g><title>API Gateway</title><rect x="888.819" y="118.594" width="8" height="760.719" fill="#000" fill-opacity="0"/><line x1="892.598" y1="118.594" x2="892.598" y2="879.313" style="stroke:#181818;stroke-width:0.5;stroke-dasharray:5,5;"/></g></g><g class="participant-lifeline" data-qualified-name="Service" data-entity-uid="part6" id="part6-lifeline" data-source-line="8"><g><title>Business Service</title><rect x="1140.224" y="118.594" width="8" height="760.719" fill="#000" fill-opacity="0"/><line x1="1143.261" y1="118.594" x2="1143.261" y2="879.313" style="stroke:#181818;stroke-width:0.5;stroke-dasharray:5,5;"/></g></g><g class="participant participant-head" data-qualified-name="User" data-entity-uid="part1" id="part1-head" data-source-line="3"><text x="5" y="115.292" fill="#000" font-size="14" textLength="31.91">User</text><ellipse cx="23.955" cy="50.797" rx="8" ry="8" fill="#E2E2F0" style="stroke:#181818;stroke-width:0.5;"/><path d="M23.955,58.797 L23.955,85.797 M10.955,66.797 L36.955,66.797 M23.955,85.797 L10.955,100.797 M23.955,85.797 L36.955,100.797" style="stroke:#181818;stroke-width:0.5;" fill="none"/></g><g class="participant participant-tail" data-qualified-name="User" data-entity-uid="part1" id="part1-tail" data-source-line="3"><text x="5" y="891.308" fill="#000" font-size="14" textLength="31.91">User</text><ellipse cx="23.955" cy="903.109" rx="8" ry="8" fill="#E2E2F0" style="stroke:#181818;stroke-width:0.5;"/><path d="M23.955,911.109 L23.955,938.109 M10.955,919.109 L36.955,919.109 M23.955,938.109 L10.955,953.109 M23.955,938.109 L36.955,953.109" style="stroke:#181818;stroke-width:0.5;" fill="none"/></g><g class="participant participant-head" data-qualified-name="Client" data-entity-uid="part2" id="part2-head" data-source-line="4"><rect x="52.91" y="71" width="237.207" height="46.594" fill="#E2E2F0" style="stroke:#181818;stroke-width:0.5;" rx="2.5" ry="2.5"/><text x="128.184" y="90.995" fill="#000" font-size="14" textLength="86.659">Public Client</text><text x="59.91" y="107.292" fill="#000" font-size="14" textLength="223.207">(Postman / Browser / API Client)</text></g><g class="participant participant-tail" data-qualified-name="Client" data-entity-uid="part2" id="part2-tail" data-source-line="4"><rect x="52.91" y="878.313" width="237.207" height="46.594" fill="#E2E2F0" style="stroke:#181818;stroke-width:0.5;" rx="2.5" ry="2.5"/><text x="128.184" y="898.308" fill="#000" font-size="14" textLength="86.659">Public Client</text><text x="59.91" y="914.604" fill="#000" font-size="14" textLength="223.207">(Postman / Browser / API Client)</text></g><g class="participant participant-head" data-qualified-name="Identity" data-entity-uid="part3" id="part3-head" data-source-line="5"><rect x="345.888" y="71" width="123.847" height="46.594" fill="#E2E2F0" style="stroke:#181818;stroke-width:0.5;" rx="2.5" ry="2.5"/><text x="352.888" y="90.995" fill="#000" font-size="14" textLength="109.847">Identity Service</text><text x="389.494" y="107.292" fill="#000" font-size="14" textLength="36.634">(BFF)</text></g><g class="participant participant-tail" data-qualified-name="Identity" data-entity-uid="part3" id="part3-tail" data-source-line="5"><rect x="345.888" y="878.313" width="123.847" height="46.594" fill="#E2E2F0" style="stroke:#181818;stroke-width:0.5;" rx="2.5" ry="2.5"/><text x="352.888" y="898.308" fill="#000" font-size="14" textLength="109.847">Identity Service</text><text x="389.494" y="914.604" fill="#000" font-size="14" textLength="36.634">(BFF)</text></g><g class="participant participant-head" data-qualified-name="Keycloak" data-entity-uid="part4" id="part4-head" data-source-line="6"><rect x="713.756" y="87.297" width="76.918" height="30.297" fill="#E2E2F0" style="stroke:#181818;stroke-width:0.5;" rx="2.5" ry="2.5"/><text x="720.756" y="107.292" fill="#000" font-size="14" textLength="62.918">Keycloak</text></g><g class="participant participant-tail" data-qualified-name="Keycloak" data-entity-uid="part4" id="part4-tail" data-source-line="6"><rect x="713.756" y="878.313" width="76.918" height="30.297" fill="#E2E2F0" style="stroke:#181818;stroke-width:0.5;" rx="2.5" ry="2.5"/><text x="720.756" y="898.308" fill="#000" font-size="14" textLength="62.918">Keycloak</text></g><g class="participant participant-head" data-qualified-name="Gateway" data-entity-uid="part5" id="part5-head" data-source-line="7"><rect x="841.598" y="87.297" width="102.443" height="30.297" fill="#E2E2F0" style="stroke:#181818;stroke-width:0.5;" rx="2.5" ry="2.5"/><text x="848.598" y="107.292" fill="#000" font-size="14" textLength="88.443">API Gateway</text></g><g class="participant participant-tail" data-qualified-name="Gateway" data-entity-uid="part5" id="part5-tail" data-source-line="7"><rect x="841.598" y="878.313" width="102.443" height="30.297" fill="#E2E2F0" style="stroke:#181818;stroke-width:0.5;" rx="2.5" ry="2.5"/><text x="848.598" y="898.308" fill="#000" font-size="14" textLength="88.443">API Gateway</text></g><g class="participant participant-head" data-qualified-name="Service" data-entity-uid="part6" id="part6-head" data-source-line="8"><rect x="1078.261" y="87.297" width="131.927" height="30.297" fill="#E2E2F0" style="stroke:#181818;stroke-width:0.5;" rx="2.5" ry="2.5"/><text x="1085.261" y="107.292" fill="#000" font-size="14" textLength="117.927">Business Service</text></g><g class="participant participant-tail" data-qualified-name="Service" data-entity-uid="part6" id="part6-tail" data-source-line="8"><rect x="1078.261" y="878.313" width="131.927" height="30.297" fill="#E2E2F0" style="stroke:#181818;stroke-width:0.5;" rx="2.5" ry="2.5"/><text x="1085.261" y="898.308" fill="#000" font-size="14" textLength="117.927">Business Service</text></g><g class="message" data-entity-1="part1" data-entity-2="part2" id="msg1" data-source-line="10"><polygon points="159.514,145.727,169.514,149.727,159.514,153.727,163.514,149.727" fill="#181818" style="stroke:#181818;stroke-width:1;stroke-linejoin:miter;stroke-miterlimit:10;"/><line x1="23.955" y1="149.727" x2="165.514" y2="149.727" style="stroke:#181818;stroke-width:1;"/><text x="30.955" y="144.661" fill="#000" font-size="13" textLength="67.558">Start login</text></g><g class="message" data-entity-1="part2" data-entity-2="part3" id="msg2" data-source-line="11"><polygon points="395.811,174.859,405.811,178.859,395.811,182.859,399.811,178.859" fill="#181818" style="stroke:#181818;stroke-width:1;stroke-linejoin:miter;stroke-miterlimit:10;"/><line x1="171.514" y1="178.859" x2="401.811" y2="178.859" style="stroke:#181818;stroke-width:1;"/><text x="178.514" y="173.793" fill="#000" font-size="13" textLength="144.6">GET /api/identity/login</text></g><g class="message" data-entity-1="part3" data-entity-2="part4" id="msg3" data-source-line="12"><polygon points="740.215,234.258,750.215,238.258,740.215,242.258,744.215,238.258" fill="#181818" style="stroke:#181818;stroke-width:1;stroke-linejoin:miter;stroke-miterlimit:10;"/><line x1="407.811" y1="238.258" x2="746.215" y2="238.258" style="stroke:#181818;stroke-width:1;"/><text x="414.811" y="202.926" fill="#000" font-size="13" textLength="272.613">Redirect to /protocol/openid-connect/auth</text><text x="414.811" y="218.059" fill="#000" font-size="13" textLength="320.404">(response_type=code, client_id=identity-service,</text><text x="414.811" y="233.192" fill="#000" font-size="13" textLength="214.989">redirect_uri, scope, state, nonce)</text></g><g class="message" data-entity-1="part4" data-entity-2="part1" id="msg4" data-source-line="13"><polygon points="34.955,263.391,24.955,267.391,34.955,271.391,30.955,267.391" fill="#181818" style="stroke:#181818;stroke-width:1;stroke-linejoin:miter;stroke-miterlimit:10;"/><line x1="28.955" y1="267.391" x2="751.215" y2="267.391" style="stroke:#181818;stroke-width:1;"/><text x="40.955" y="262.325" fill="#000" font-size="13" textLength="105.549">Show login form</text></g><g class="message" data-entity-1="part1" data-entity-2="part4" id="msg5" data-source-line="14"><polygon points="740.215,292.523,750.215,296.523,740.215,300.523,744.215,296.523" fill="#181818" style="stroke:#181818;stroke-width:1;stroke-linejoin:miter;stroke-miterlimit:10;"/><line x1="23.955" y1="296.523" x2="746.215" y2="296.523" style="stroke:#181818;stroke-width:1;"/><text x="30.955" y="291.458" fill="#000" font-size="13" textLength="122.288">Submit credentials</text></g><g class="message" data-entity-1="part4" data-entity-2="part4" id="msg6" data-source-line="15"><line x1="752.215" y1="340.789" x2="794.215" y2="340.789" style="stroke:#181818;stroke-width:1;"/><line x1="794.215" y1="340.789" x2="794.215" y2="353.789" style="stroke:#181818;stroke-width:1;"/><line x1="753.215" y1="353.789" x2="794.215" y2="353.789" style="stroke:#181818;stroke-width:1;"/><polygon points="763.215,349.789,753.215,353.789,763.215,357.789,759.215,353.789" fill="#181818" style="stroke:#181818;stroke-width:1;stroke-linejoin:miter;stroke-miterlimit:10;"/><text x="759.215" y="320.59" fill="#000" font-size="13" textLength="116.111">Authenticate user</text><text x="759.215" y="335.723" fill="#000" font-size="13" textLength="126.604">Create SSO session</text></g><g class="message" data-entity-1="part4" data-entity-2="part3" id="msg7" data-source-line="16"><polygon points="418.811,394.055,408.811,398.055,418.811,402.055,414.811,398.055" fill="#181818" style="stroke:#181818;stroke-width:1;stroke-linejoin:miter;stroke-miterlimit:10;"/><line x1="412.811" y1="398.055" x2="751.215" y2="398.055" style="stroke:#181818;stroke-width:1;"/><text x="424.811" y="377.856" fill="#000" font-size="13" textLength="261.746">Redirect to /api/identity/oauth2/callback</text><text x="424.811" y="392.989" fill="#000" font-size="13" textLength="127.899">?code=...&amp;state=...</text></g><g class="message" data-entity-1="part3" data-entity-2="part3" id="msg8" data-source-line="17"><line x1="407.811" y1="427.188" x2="449.811" y2="427.188" style="stroke:#181818;stroke-width:1;"/><line x1="449.811" y1="427.188" x2="449.811" y2="440.188" style="stroke:#181818;stroke-width:1;"/><line x1="408.811" y1="440.188" x2="449.811" y2="440.188" style="stroke:#181818;stroke-width:1;"/><polygon points="418.811,436.188,408.811,440.188,418.811,444.188,414.811,440.188" fill="#181818" style="stroke:#181818;stroke-width:1;stroke-linejoin:miter;stroke-miterlimit:10;"/><text x="414.811" y="422.122" fill="#000" font-size="13" textLength="90.46">Validate state</text></g><g class="message" data-entity-1="part3" data-entity-2="part4" id="msg9" data-source-line="18"><polygon points="740.215,495.586,750.215,499.586,740.215,503.586,744.215,499.586" fill="#181818" style="stroke:#181818;stroke-width:1;stroke-linejoin:miter;stroke-miterlimit:10;"/><line x1="407.811" y1="499.586" x2="746.215" y2="499.586" style="stroke:#181818;stroke-width:1;"/><text x="414.811" y="464.254" fill="#000" font-size="13" textLength="242.487">POST /protocol/openid-connect/token</text><text x="414.811" y="479.387" fill="#000" font-size="13" textLength="214.532">(grant_type=authorization_code,</text><text x="414.811" y="494.52" fill="#000" font-size="13" textLength="272.34">code, redirect_uri, client_id, client_secret)</text></g><g class="message" data-entity-1="part4" data-entity-2="part3" id="msg10" data-source-line="19"><polygon points="418.811,524.719,408.811,528.719,418.811,532.719,414.811,528.719" fill="#181818" style="stroke:#181818;stroke-width:1;stroke-linejoin:miter;stroke-miterlimit:10;"/><line x1="412.811" y1="528.719" x2="751.215" y2="528.719" style="stroke:#181818;stroke-width:1;stroke-dasharray:2,2;"/><text x="424.811" y="523.653" fill="#000" font-size="13" textLength="270.207">access_token + refresh_token + id_token</text></g><g class="message" data-entity-1="part3" data-entity-2="part3" id="msg11" data-source-line="20"><line x1="407.811" y1="572.984" x2="449.811" y2="572.984" style="stroke:#181818;stroke-width:1;"/><line x1="449.811" y1="572.984" x2="449.811" y2="585.984" style="stroke:#181818;stroke-width:1;"/><line x1="408.811" y1="585.984" x2="449.811" y2="585.984" style="stroke:#181818;stroke-width:1;"/><polygon points="418.811,581.984,408.811,585.984,418.811,589.984,414.811,585.984" fill="#181818" style="stroke:#181818;stroke-width:1;stroke-linejoin:miter;stroke-miterlimit:10;"/><text x="414.811" y="552.786" fill="#000" font-size="13" textLength="177.271">Store/protect refresh token</text><text x="414.811" y="567.918" fill="#000" font-size="13" textLength="179.683">or prepare secure response</text></g><g class="message" data-entity-1="part3" data-entity-2="part2" id="msg12" data-source-line="21"><polygon points="182.514,626.25,172.514,630.25,182.514,634.25,178.514,630.25" fill="#181818" style="stroke:#181818;stroke-width:1;stroke-linejoin:miter;stroke-miterlimit:10;"/><line x1="176.514" y1="630.25" x2="406.811" y2="630.25" style="stroke:#181818;stroke-width:1;stroke-dasharray:2,2;"/><text x="188.514" y="610.051" fill="#000" font-size="13" textLength="76.496">Login result</text><text x="188.514" y="625.184" fill="#000" font-size="13" textLength="212.297">access token / session reference</text></g><g class="message" data-entity-1="part2" data-entity-2="part5" id="msg13" data-source-line="22"><polygon points="880.819,670.516,890.819,674.516,880.819,678.516,884.819,674.516" fill="#181818" style="stroke:#181818;stroke-width:1;stroke-linejoin:miter;stroke-miterlimit:10;"/><line x1="171.514" y1="674.516" x2="886.819" y2="674.516" style="stroke:#181818;stroke-width:1;"/><text x="178.514" y="654.317" fill="#000" font-size="13" textLength="135.859">Business API request</text><text x="178.514" y="669.45" fill="#000" font-size="13" textLength="230.407">Authorization: Bearer access_token</text></g><g class="message" data-entity-1="part5" data-entity-2="part5" id="msg14" data-source-line="23"><line x1="892.819" y1="703.648" x2="934.819" y2="703.648" style="stroke:#181818;stroke-width:1;"/><line x1="934.819" y1="703.648" x2="934.819" y2="716.648" style="stroke:#181818;stroke-width:1;"/><line x1="893.819" y1="716.648" x2="934.819" y2="716.648" style="stroke:#181818;stroke-width:1;"/><polygon points="903.819,712.648,893.819,716.648,903.819,720.648,899.819,716.648" fill="#181818" style="stroke:#181818;stroke-width:1;stroke-linejoin:miter;stroke-miterlimit:10;"/><text x="899.819" y="698.583" fill="#000" font-size="13" textLength="208.813">Validate JWT signature via JWKS</text></g><g class="message" data-entity-1="part5" data-entity-2="part6" id="msg15" data-source-line="24"><polygon points="1132.224,741.781,1142.224,745.781,1132.224,749.781,1136.224,745.781" fill="#181818" style="stroke:#181818;stroke-width:1;stroke-linejoin:miter;stroke-miterlimit:10;"/><line x1="892.819" y1="745.781" x2="1138.224" y2="745.781" style="stroke:#181818;stroke-width:1;"/><text x="899.819" y="740.715" fill="#000" font-size="13" textLength="227.405">Forward request with access token</text></g><g class="message" data-entity-1="part6" data-entity-2="part6" id="msg16" data-source-line="25"><line x1="1144.224" y1="790.047" x2="1186.224" y2="790.047" style="stroke:#181818;stroke-width:1;"/><line x1="1186.224" y1="790.047" x2="1186.224" y2="803.047" style="stroke:#181818;stroke-width:1;"/><line x1="1145.224" y1="803.047" x2="1186.224" y2="803.047" style="stroke:#181818;stroke-width:1;"/><polygon points="1155.224,799.047,1145.224,803.047,1155.224,807.047,1151.224,803.047" fill="#181818" style="stroke:#181818;stroke-width:1;stroke-linejoin:miter;stroke-miterlimit:10;"/><text x="1151.224" y="769.848" fill="#000" font-size="13" textLength="127.886">Validate JWT locally</text><text x="1151.224" y="784.981" fill="#000" font-size="13" textLength="200.542">Enforce business authorization</text></g><g class="message" data-entity-1="part6" data-entity-2="part5" id="msg17" data-source-line="26"><polygon points="903.819,828.18,893.819,832.18,903.819,836.18,899.819,832.18" fill="#181818" style="stroke:#181818;stroke-width:1;stroke-linejoin:miter;stroke-miterlimit:10;"/><line x1="897.819" y1="832.18" x2="1143.224" y2="832.18" style="stroke:#181818;stroke-width:1;stroke-dasharray:2,2;"/><text x="909.819" y="827.114" fill="#000" font-size="13" textLength="63.02">Response</text></g><g class="message" data-entity-1="part5" data-entity-2="part2" id="msg18" data-source-line="27"><polygon points="182.514,857.313,172.514,861.313,182.514,865.313,178.514,861.313" fill="#181818" style="stroke:#181818;stroke-width:1;stroke-linejoin:miter;stroke-miterlimit:10;"/><line x1="176.514" y1="861.313" x2="891.819" y2="861.313" style="stroke:#181818;stroke-width:1;stroke-dasharray:2,2;"/><text x="188.514" y="856.247" fill="#000" font-size="13" textLength="63.02">Response</text></g><?plantuml-src TLJ1QXin4BtlLmmvb8RQNkZHu9ROn25D8IQRj1U3aRKJMrYMjf8snltwZbRIUbNmQRNIqvitRsRaX9C8F_LEA5XAVO8nFDQed71dgD1y28x0BCoNIpW9juUxrksr4N-P4rh1GjTO58mxRU3DeYaQPfpWec7AmSsgtKh1OI454QxLvvMsxiWKb30t-aHmMjsj7YFWziO72kkSvtz1H4Lw0ZwTvJUUyCobPeSEadvoY0_ym1oUsBb3nNKEchTMABGsHUwGSLqKFcCOVukQfr0vkWlIUrc4FN-Q54xXuVuLIjQ8KiIjCc3x_0YTn4xX1MjXa3jm6ih6QAUvbgLkK8bwpBLIT5OoAWVPOT0sMbdSk7E3CqvL6G7l56n4FKlXnZOe7wsLYUIRreWHM4wqz77amGYKLXnlYwJ4g_APKdvxwezEChnhS-pplsYkskrHEE14xqCoQJEQ2z2taKTmYWWjyQpLmg3_gQfdi6GvjLTszs9ZPancf_PsV2qvatBB-66jldihPfF9v5ENcrzbRbz8Vp4fQX-_0rufoUgvUhrU2wSFgAWOEqEz4oh1XjEowUgoLg4yUGNwOlLBY-IY6vOXqyiu9vCsNKpuGcplr0Fx_b_KONabsue65hj4l8_nCiG4Q9ORWpG7P0RobZwflGPiWxOFZmTXMabJ7eG5BfhlM4eV0mrIOmqc8uxS5FenyqDfy4-BbfYofuP0I8fCbdWH6JAolf8_Vh-25Jl5dC_XGp3QUQg6T-8aJs6fpOcPEiKEJzqmaoAzXSDRMIIfVTkTr-fUqN0GSfkIofhWGZJK_98CxiKD_4s7_m00?></g></svg>