<svg xmlns="http://www.w3.org/2000/svg" width="403" height="862" viewBox="0 0 403 862" role="img" aria-labelledby="title desc">
<title>Media Service Database Schema</title>
<desc>Entity relationship diagram for Media Service Database Schema.</desc>
<defs>
<filter id="shadow" x="-8%" y="-8%" width="116%" height="124%"><feDropShadow dx="0" dy="8" stdDeviation="8" flood-color="#0f172a" flood-opacity=".10"/></filter>
<marker id="arrow" markerWidth="12" markerHeight="12" refX="10" refY="6" orient="auto"><path d="M2,2 L10,6 L2,10" fill="none" stroke="#64748b" stroke-width="1.8" stroke-linecap="round" stroke-linejoin="round"/></marker>
</defs>
<rect width="100%" height="100%" fill="#ffffff"/>
<rect x="18" y="18" width="367" height="826" rx="18" fill="#f8fafc" stroke="#e2e8f0"/>
<text x="40" y="56" font-family="Inter, Segoe UI, Arial, sans-serif" font-size="22" font-weight="700" fill="#0f172a">Media Service Database Schema</text>
<path d="M 225.0 484 C 225.0 522.0, 225.0 522.0, 225.0 560" fill="none" stroke="#64748b" stroke-width="2.2" marker-end="url(#arrow)"/>
<text x="225.0" y="479.0" text-anchor="middle" font-family="Inter, Segoe UI, Arial, sans-serif" font-size="12" font-weight="700" fill="#475569">1:N</text>
<g filter="url(#shadow)">
<rect x="95" y="90" width="260" height="394" rx="10" fill="#ffffff" stroke="#cbd5e1"/>
<rect x="95" y="90" width="260" height="44" rx="10" fill="#7c3aed"/>
<path d="M 95 124 H 355 V 134 H 95 Z" fill="#7c3aed"/>
<text x="113" y="119" font-family="Inter, Segoe UI, Arial, sans-serif" font-size="16" font-weight="700" fill="#ffffff">media_assets</text>
<rect x="109" y="138" width="232" height="24" rx="6" fill="#f5f3ff"/>
<text x="119" y="156" font-family="Inter, Segoe UI, Arial, sans-serif" font-size="10" font-weight="800" fill="#7c3aed">PK</text>
<text x="151" y="156" font-family="Inter, Segoe UI, Arial, sans-serif" font-size="13" font-weight="600" fill="#0f172a">media_id</text>
<text x="337" y="156" text-anchor="end" font-family="Inter, Segoe UI, Arial, sans-serif" font-size="12" fill="#64748b">uuid</text>
<rect x="109" y="166" width="232" height="24" rx="6" fill="#ffffff"/>
<text x="119" y="184" font-family="Inter, Segoe UI, Arial, sans-serif" font-size="10" font-weight="800" fill="#7c3aed">FK</text>
<text x="151" y="184" font-family="Inter, Segoe UI, Arial, sans-serif" font-size="13" font-weight="600" fill="#0f172a">listing_id</text>
<text x="337" y="184" text-anchor="end" font-family="Inter, Segoe UI, Arial, sans-serif" font-size="12" fill="#64748b">uuid</text>
<rect x="109" y="194" width="232" height="24" rx="6" fill="#ffffff"/>
<text x="119" y="212" font-family="Inter, Segoe UI, Arial, sans-serif" font-size="10" font-weight="800" fill="#7c3aed">FK</text>
<text x="151" y="212" font-family="Inter, Segoe UI, Arial, sans-serif" font-size="13" font-weight="600" fill="#0f172a">owner_profile_id</text>
<text x="337" y="212" text-anchor="end" font-family="Inter, Segoe UI, Arial, sans-serif" font-size="12" fill="#64748b">uuid</text>
<rect x="109" y="222" width="232" height="24" rx="6" fill="#ffffff"/>
<text x="151" y="240" font-family="Inter, Segoe UI, Arial, sans-serif" font-size="13" font-weight="600" fill="#0f172a">bucket</text>
<text x="337" y="240" text-anchor="end" font-family="Inter, Segoe UI, Arial, sans-serif" font-size="12" fill="#64748b">varchar</text>
<rect x="109" y="250" width="232" height="24" rx="6" fill="#ffffff"/>
<text x="151" y="268" font-family="Inter, Segoe UI, Arial, sans-serif" font-size="13" font-weight="600" fill="#0f172a">storage_key</text>
<text x="337" y="268" text-anchor="end" font-family="Inter, Segoe UI, Arial, sans-serif" font-size="12" fill="#64748b">varchar</text>
<rect x="109" y="278" width="232" height="24" rx="6" fill="#ffffff"/>
<text x="151" y="296" font-family="Inter, Segoe UI, Arial, sans-serif" font-size="13" font-weight="600" fill="#0f172a">content_type</text>
<text x="337" y="296" text-anchor="end" font-family="Inter, Segoe UI, Arial, sans-serif" font-size="12" fill="#64748b">varchar</text>
<rect x="109" y="306" width="232" height="24" rx="6" fill="#ffffff"/>
<text x="151" y="324" font-family="Inter, Segoe UI, Arial, sans-serif" font-size="13" font-weight="600" fill="#0f172a">size_bytes</text>
<text x="337" y="324" text-anchor="end" font-family="Inter, Segoe UI, Arial, sans-serif" font-size="12" fill="#64748b">bigint</text>
<rect x="109" y="334" width="232" height="24" rx="6" fill="#ffffff"/>
<text x="151" y="352" font-family="Inter, Segoe UI, Arial, sans-serif" font-size="13" font-weight="600" fill="#0f172a">checksum</text>
<text x="337" y="352" text-anchor="end" font-family="Inter, Segoe UI, Arial, sans-serif" font-size="12" fill="#64748b">varchar</text>
<rect x="109" y="362" width="232" height="24" rx="6" fill="#ffffff"/>
<text x="151" y="380" font-family="Inter, Segoe UI, Arial, sans-serif" font-size="13" font-weight="600" fill="#0f172a">status</text>
<text x="337" y="380" text-anchor="end" font-family="Inter, Segoe UI, Arial, sans-serif" font-size="12" fill="#64748b">varchar</text>
<rect x="109" y="390" width="232" height="24" rx="6" fill="#ffffff"/>
<text x="151" y="408" font-family="Inter, Segoe UI, Arial, sans-serif" font-size="13" font-weight="600" fill="#0f172a">sort_order</text>
<text x="337" y="408" text-anchor="end" font-family="Inter, Segoe UI, Arial, sans-serif" font-size="12" fill="#64748b">integer</text>
<rect x="109" y="418" width="232" height="24" rx="6" fill="#ffffff"/>
<text x="151" y="436" font-family="Inter, Segoe UI, Arial, sans-serif" font-size="13" font-weight="600" fill="#0f172a">created_at</text>
<text x="337" y="436" text-anchor="end" font-family="Inter, Segoe UI, Arial, sans-serif" font-size="12" fill="#64748b">timestamp</text>
<rect x="109" y="446" width="232" height="24" rx="6" fill="#ffffff"/>
<text x="151" y="464" font-family="Inter, Segoe UI, Arial, sans-serif" font-size="13" font-weight="600" fill="#0f172a">updated_at</text>
<text x="337" y="464" text-anchor="end" font-family="Inter, Segoe UI, Arial, sans-serif" font-size="12" fill="#64748b">timestamp</text>
</g>
<g filter="url(#shadow)">
<rect x="95" y="560" width="260" height="254" rx="10" fill="#ffffff" stroke="#cbd5e1"/>
<rect x="95" y="560" width="260" height="44" rx="10" fill="#7c3aed"/>
<path d="M 95 594 H 355 V 604 H 95 Z" fill="#7c3aed"/>
<text x="113" y="589" font-family="Inter, Segoe UI, Arial, sans-serif" font-size="16" font-weight="700" fill="#ffffff">media_processing_jobs</text>
<rect x="109" y="608" width="232" height="24" rx="6" fill="#f5f3ff"/>
<text x="119" y="626" font-family="Inter, Segoe UI, Arial, sans-serif" font-size="10" font-weight="800" fill="#7c3aed">PK</text>
<text x="151" y="626" font-family="Inter, Segoe UI, Arial, sans-serif" font-size="13" font-weight="600" fill="#0f172a">job_id</text>
<text x="337" y="626" text-anchor="end" font-family="Inter, Segoe UI, Arial, sans-serif" font-size="12" fill="#64748b">uuid</text>
<rect x="109" y="636" width="232" height="24" rx="6" fill="#ffffff"/>
<text x="119" y="654" font-family="Inter, Segoe UI, Arial, sans-serif" font-size="10" font-weight="800" fill="#7c3aed">FK</text>
<text x="151" y="654" font-family="Inter, Segoe UI, Arial, sans-serif" font-size="13" font-weight="600" fill="#0f172a">media_id</text>
<text x="337" y="654" text-anchor="end" font-family="Inter, Segoe UI, Arial, sans-serif" font-size="12" fill="#64748b">uuid</text>
<rect x="109" y="664" width="232" height="24" rx="6" fill="#ffffff"/>
<text x="151" y="682" font-family="Inter, Segoe UI, Arial, sans-serif" font-size="13" font-weight="600" fill="#0f172a">job_type</text>
<text x="337" y="682" text-anchor="end" font-family="Inter, Segoe UI, Arial, sans-serif" font-size="12" fill="#64748b">varchar</text>
<rect x="109" y="692" width="232" height="24" rx="6" fill="#ffffff"/>
<text x="151" y="710" font-family="Inter, Segoe UI, Arial, sans-serif" font-size="13" font-weight="600" fill="#0f172a">status</text>
<text x="337" y="710" text-anchor="end" font-family="Inter, Segoe UI, Arial, sans-serif" font-size="12" fill="#64748b">varchar</text>
<rect x="109" y="720" width="232" height="24" rx="6" fill="#ffffff"/>
<text x="151" y="738" font-family="Inter, Segoe UI, Arial, sans-serif" font-size="13" font-weight="600" fill="#0f172a">error_message</text>
<text x="337" y="738" text-anchor="end" font-family="Inter, Segoe UI, Arial, sans-serif" font-size="12" fill="#64748b">text</text>
<rect x="109" y="748" width="232" height="24" rx="6" fill="#ffffff"/>
<text x="151" y="766" font-family="Inter, Segoe UI, Arial, sans-serif" font-size="13" font-weight="600" fill="#0f172a">created_at</text>
<text x="337" y="766" text-anchor="end" font-family="Inter, Segoe UI, Arial, sans-serif" font-size="12" fill="#64748b">timestamp</text>
<rect x="109" y="776" width="232" height="24" rx="6" fill="#ffffff"/>
<text x="151" y="794" font-family="Inter, Segoe UI, Arial, sans-serif" font-size="13" font-weight="600" fill="#0f172a">updated_at</text>
<text x="337" y="794" text-anchor="end" font-family="Inter, Segoe UI, Arial, sans-serif" font-size="12" fill="#64748b">timestamp</text>
</g>
</svg>
