<svg xmlns="http://www.w3.org/2000/svg" xmlns:xlink="http://www.w3.org/1999/xlink" width="1278pt" height="1010pt" viewBox="0.00 0.00 1278.00 1010.00">
<g id="graph0" class="graph" transform="scale(2.77778 2.77778) rotate(0) translate(4 359.6)">
<title>G</title>
<polygon fill="white" stroke="none" points="-4,4 -4,-359.6 456.14,-359.6 456.14,4 -4,4"/>
<!-- media_assets -->
<g id="node1" class="node">
<title>media_assets</title>
<polygon fill="none" stroke="black" points="174.33,-187.9 174.33,-355.1 345.82,-355.1 345.82,-187.9 174.33,-187.9"/>
<text xml:space="preserve" text-anchor="middle" x="260.08" y="-338.5" font-family="Times,serif" font-size="14.00">media_assets</text>
<polyline fill="none" stroke="black" points="174.33,-330.3 345.82,-330.3"/>
<text xml:space="preserve" text-anchor="start" x="182.33" y="-313.7" font-family="Times,serif" font-size="14.00">id : uuid PK</text>
<text xml:space="preserve" text-anchor="start" x="182.33" y="-296.9" font-family="Times,serif" font-size="14.00">listing_id : uuid</text>
<text xml:space="preserve" text-anchor="start" x="182.33" y="-280.1" font-family="Times,serif" font-size="14.00">uploader_profile_id : uuid</text>
<text xml:space="preserve" text-anchor="start" x="182.33" y="-263.3" font-family="Times,serif" font-size="14.00">object_key : varchar(512)</text>
<text xml:space="preserve" text-anchor="start" x="182.33" y="-246.5" font-family="Times,serif" font-size="14.00">content_type : varchar(120)</text>
<text xml:space="preserve" text-anchor="start" x="182.33" y="-229.7" font-family="Times,serif" font-size="14.00">status : varchar(32)</text>
<text xml:space="preserve" text-anchor="start" x="182.33" y="-212.9" font-family="Times,serif" font-size="14.00">created_at : timestamptz</text>
<text xml:space="preserve" text-anchor="start" x="182.33" y="-196.1" font-family="Times,serif" font-size="14.00">updated_at : timestamptz</text>
</g>
<!-- media_variants -->
<g id="node2" class="node">
<title>media_variants</title>
<polygon fill="none" stroke="black" points="0,-0.5 0,-134.1 162.15,-134.1 162.15,-0.5 0,-0.5"/>
<text xml:space="preserve" text-anchor="middle" x="81.08" y="-117.5" font-family="Times,serif" font-size="14.00">media_variants</text>
<polyline fill="none" stroke="black" points="0,-109.3 162.15,-109.3"/>
<text xml:space="preserve" text-anchor="start" x="8" y="-92.7" font-family="Times,serif" font-size="14.00">id : uuid PK</text>
<text xml:space="preserve" text-anchor="start" x="8" y="-75.9" font-family="Times,serif" font-size="14.00">media_asset_id : uuid FK</text>
<text xml:space="preserve" text-anchor="start" x="8" y="-59.1" font-family="Times,serif" font-size="14.00">variant_type : varchar(40)</text>
<text xml:space="preserve" text-anchor="start" x="8" y="-42.3" font-family="Times,serif" font-size="14.00">object_key : varchar(512)</text>
<text xml:space="preserve" text-anchor="start" x="8" y="-25.5" font-family="Times,serif" font-size="14.00">width : int</text>
<text xml:space="preserve" text-anchor="start" x="8" y="-8.7" font-family="Times,serif" font-size="14.00">height : int</text>
</g>
<!-- media_assets&#45;&gt;media_variants -->
<g id="edge1" class="edge">
<title>media_assets-&gt;media_variants</title>
<path fill="none" stroke="black" d="M186.75,-187.67C173.6,-172.81 159.96,-157.41 147.03,-142.8"/>
<polygon fill="black" stroke="black" points="149.76,-140.6 140.51,-135.43 144.52,-145.24 149.76,-140.6"/>
<text xml:space="preserve" text-anchor="middle" x="181.08" y="-156.8" font-family="Times,serif" font-size="14.00">1:N</text>
</g>
<!-- media_jobs -->
<g id="node3" class="node">
<title>media_jobs</title>
<polygon fill="none" stroke="black" points="180.33,-8.9 180.33,-125.7 339.82,-125.7 339.82,-8.9 180.33,-8.9"/>
<text xml:space="preserve" text-anchor="middle" x="260.08" y="-109.1" font-family="Times,serif" font-size="14.00">media_jobs</text>
<polyline fill="none" stroke="black" points="180.33,-100.9 339.82,-100.9"/>
<text xml:space="preserve" text-anchor="start" x="188.33" y="-84.3" font-family="Times,serif" font-size="14.00">id : uuid PK</text>
<text xml:space="preserve" text-anchor="start" x="188.33" y="-67.5" font-family="Times,serif" font-size="14.00">media_asset_id : uuid FK</text>
<text xml:space="preserve" text-anchor="start" x="188.33" y="-50.7" font-family="Times,serif" font-size="14.00">job_type : varchar(40)</text>
<text xml:space="preserve" text-anchor="start" x="188.33" y="-33.9" font-family="Times,serif" font-size="14.00">status : varchar(32)</text>
<text xml:space="preserve" text-anchor="start" x="188.33" y="-17.1" font-family="Times,serif" font-size="14.00">created_at : timestamptz</text>
</g>
<!-- media_assets&#45;&gt;media_jobs -->
<g id="edge2" class="edge">
<title>media_assets-&gt;media_jobs</title>
<path fill="none" stroke="black" d="M260.08,-187.67C260.08,-170.84 260.08,-153.3 260.08,-137.02"/>
<polygon fill="black" stroke="black" points="263.58,-137.48 260.08,-127.48 256.58,-137.48 263.58,-137.48"/>
<text xml:space="preserve" text-anchor="middle" x="270.58" y="-156.8" font-family="Times,serif" font-size="14.00">1:N</text>
</g>
<!-- object_storage -->
<g id="node4" class="node">
<title>object_storage</title>
<path fill="none" stroke="black" d="M452.14,-90.7C452.14,-93.57 431.05,-95.9 405.08,-95.9 379.11,-95.9 358.01,-93.57 358.01,-90.7 358.01,-90.7 358.01,-43.9 358.01,-43.9 358.01,-41.03 379.11,-38.7 405.08,-38.7 431.05,-38.7 452.14,-41.03 452.14,-43.9 452.14,-43.9 452.14,-90.7 452.14,-90.7"/>
<path fill="none" stroke="black" d="M452.14,-90.7C452.14,-87.83 431.05,-85.5 405.08,-85.5 379.11,-85.5 358.01,-87.83 358.01,-90.7"/>
<text xml:space="preserve" text-anchor="middle" x="405.08" y="-71.5" font-family="Times,serif" font-size="14.00">S3 / MinIO</text>
<text xml:space="preserve" text-anchor="middle" x="405.08" y="-54.7" font-family="Times,serif" font-size="14.00">object storage</text>
</g>
<!-- media_assets&#45;&gt;object_storage -->
<g id="edge3" class="edge">
<title>media_assets-&gt;object_storage</title>
<path fill="none" stroke="black" d="M319.47,-187.67C339.96,-159.11 361.88,-128.53 378.42,-105.47"/>
<polygon fill="black" stroke="black" points="381.06,-107.79 384.05,-97.63 375.37,-103.71 381.06,-107.79"/>
<text xml:space="preserve" text-anchor="middle" x="371.97" y="-156.8" font-family="Times,serif" font-size="14.00">object_key</text>
</g>
</g>
</svg>