<svg xmlns="http://www.w3.org/2000/svg" xmlns:xlink="http://www.w3.org/1999/xlink" width="729pt" height="480pt" viewBox="0.00 0.00 729.00 480.00">
<g id="graph0" class="graph" transform="scale(2.25162 2.25162) rotate(0) translate(4 209.18)">
<title>MediaServiceER</title>
<!-- media_assets -->
<g id="node1" class="node">
<title>media_assets</title>
<path fill="#f8fafc" stroke="#334155" d="M12,-56.32C12,-56.32 108.15,-56.32 108.15,-56.32 114.15,-56.32 120.15,-62.32 120.15,-68.32 120.15,-68.32 120.15,-107.68 120.15,-107.68 120.15,-113.68 114.15,-119.68 108.15,-119.68 108.15,-119.68 12,-119.68 12,-119.68 6,-119.68 0,-113.68 0,-107.68 0,-107.68 0,-68.32 0,-68.32 0,-62.32 6,-56.32 12,-56.32"/>
<text xml:space="preserve" text-anchor="middle" x="24.71" y="-85.6" font-family="Inter" font-size="8.00">media_assets</text>
<polyline fill="none" stroke="#334155" points="49.41,-56.32 49.41,-119.68"/>
<text xml:space="preserve" text-anchor="start" x="53.01" y="-109.6" font-family="Inter" font-size="8.00">id PK</text>
<text xml:space="preserve" text-anchor="start" x="53.01" y="-100" font-family="Inter" font-size="8.00">listing_id</text>
<text xml:space="preserve" text-anchor="start" x="53.01" y="-90.4" font-family="Inter" font-size="8.00">uploader_profile_id</text>
<text xml:space="preserve" text-anchor="start" x="53.01" y="-80.8" font-family="Inter" font-size="8.00">object_key</text>
<text xml:space="preserve" text-anchor="start" x="53.01" y="-71.2" font-family="Inter" font-size="8.00">content_type</text>
<text xml:space="preserve" text-anchor="start" x="53.01" y="-61.6" font-family="Inter" font-size="8.00">status</text>
</g>
<!-- media_variants -->
<g id="node2" class="node">
<title>media_variants</title>
<path fill="#f8fafc" stroke="#334155" d="M202.86,-141.32C202.86,-141.32 303.67,-141.32 303.67,-141.32 309.67,-141.32 315.67,-147.32 315.67,-153.32 315.67,-153.32 315.67,-192.68 315.67,-192.68 315.67,-198.68 309.67,-204.68 303.67,-204.68 303.67,-204.68 202.86,-204.68 202.86,-204.68 196.86,-204.68 190.86,-198.68 190.86,-192.68 190.86,-192.68 190.86,-153.32 190.86,-153.32 190.86,-147.32 196.86,-141.32 202.86,-141.32"/>
<text xml:space="preserve" text-anchor="middle" x="218.89" y="-170.6" font-family="Inter" font-size="8.00">media_variants</text>
<polyline fill="none" stroke="#334155" points="246.93,-141.32 246.93,-204.68"/>
<text xml:space="preserve" text-anchor="start" x="250.53" y="-194.6" font-family="Inter" font-size="8.00">id PK</text>
<text xml:space="preserve" text-anchor="start" x="250.53" y="-185" font-family="Inter" font-size="8.00">media_asset_id FK</text>
<text xml:space="preserve" text-anchor="start" x="250.53" y="-175.4" font-family="Inter" font-size="8.00">variant_type</text>
<text xml:space="preserve" text-anchor="start" x="250.53" y="-165.8" font-family="Inter" font-size="8.00">object_key</text>
<text xml:space="preserve" text-anchor="start" x="250.53" y="-156.2" font-family="Inter" font-size="8.00">width</text>
<text xml:space="preserve" text-anchor="start" x="250.53" y="-146.6" font-family="Inter" font-size="8.00">height</text>
</g>
<!-- media_assets&#45;&gt;media_variants -->
<g id="edge1" class="edge">
<title>media_assets-&gt;media_variants</title>
<path fill="none" stroke="#475569" stroke-width="0.9" d="M59.67,-120.13C59.67,-144.21 59.67,-173 59.67,-173 59.67,-173 183.55,-173 183.55,-173"/>
<polygon fill="#475569" stroke="#475569" stroke-width="0.9" points="183.55,-174.93 189.05,-173 183.55,-171.08 183.55,-174.93"/>
<text xml:space="preserve" text-anchor="middle" x="155.5" y="-175.1" font-family="Inter" font-size="7.00">1:N</text>
</g>
<!-- media_jobs -->
<g id="node3" class="node">
<title>media_jobs</title>
<path fill="#f8fafc" stroke="#334155" d="M208.85,-61.12C208.85,-61.12 297.68,-61.12 297.68,-61.12 303.68,-61.12 309.68,-67.12 309.68,-73.12 309.68,-73.12 309.68,-102.88 309.68,-102.88 309.68,-108.88 303.68,-114.88 297.68,-114.88 297.68,-114.88 208.85,-114.88 208.85,-114.88 202.85,-114.88 196.85,-108.88 196.85,-102.88 196.85,-102.88 196.85,-73.12 196.85,-73.12 196.85,-67.12 202.85,-61.12 208.85,-61.12"/>
<text xml:space="preserve" text-anchor="middle" x="218.89" y="-85.6" font-family="Inter" font-size="8.00">media_jobs</text>
<polyline fill="none" stroke="#334155" points="240.93,-61.12 240.93,-114.88"/>
<text xml:space="preserve" text-anchor="start" x="244.53" y="-104.8" font-family="Inter" font-size="8.00">id PK</text>
<text xml:space="preserve" text-anchor="start" x="244.53" y="-95.2" font-family="Inter" font-size="8.00">media_asset_id FK</text>
<text xml:space="preserve" text-anchor="start" x="244.53" y="-85.6" font-family="Inter" font-size="8.00">job_type</text>
<text xml:space="preserve" text-anchor="start" x="244.53" y="-76" font-family="Inter" font-size="8.00">status</text>
<text xml:space="preserve" text-anchor="start" x="244.53" y="-66.4" font-family="Inter" font-size="8.00">created_at</text>
</g>
<!-- media_assets&#45;&gt;media_jobs -->
<g id="edge2" class="edge">
<title>media_assets-&gt;media_jobs</title>
<path fill="none" stroke="#475569" stroke-width="0.9" d="M120.41,-88C120.41,-88 189.49,-88 189.49,-88"/>
<polygon fill="#475569" stroke="#475569" stroke-width="0.9" points="189.49,-89.93 194.99,-88 189.49,-86.08 189.49,-89.93"/>
<text xml:space="preserve" text-anchor="middle" x="155.5" y="-90.1" font-family="Inter" font-size="7.00">1:N</text>
</g>
<!-- object_storage -->
<g id="node4" class="node">
<title>object_storage</title>
<path fill="#f8fafc" stroke="#334155" d="M280.27,-32.73C280.27,-34.53 268.16,-36 253.27,-36 238.37,-36 226.27,-34.53 226.27,-32.73 226.27,-32.73 226.27,-3.27 226.27,-3.27 226.27,-1.47 238.37,0 253.27,0 268.16,0 280.27,-1.47 280.27,-3.27 280.27,-3.27 280.27,-32.73 280.27,-32.73"/>
<path fill="none" stroke="#334155" d="M280.27,-32.73C280.27,-30.92 268.16,-29.45 253.27,-29.45 238.37,-29.45 226.27,-30.92 226.27,-32.73"/>
<text xml:space="preserve" text-anchor="middle" x="253.27" y="-20.4" font-family="Inter" font-size="8.00">S3 / MinIO</text>
<text xml:space="preserve" text-anchor="middle" x="253.27" y="-10.8" font-family="Inter" font-size="8.00">object storage</text>
</g>
<!-- media_assets&#45;&gt;object_storage -->
<g id="edge3" class="edge">
<title>media_assets-&gt;object_storage</title>
<path fill="none" stroke="#475569" stroke-width="0.9" d="M59.67,-55.87C59.67,-37.47 59.67,-18 59.67,-18 59.67,-18 219.08,-18 219.08,-18"/>
<polygon fill="#475569" stroke="#475569" stroke-width="0.9" points="219.08,-19.93 224.58,-18 219.08,-16.08 219.08,-19.93"/>
<text xml:space="preserve" text-anchor="middle" x="155.5" y="-20.1" font-family="Inter" font-size="7.00">object_key</text>
</g>
</g>
</svg>