<svg xmlns="http://www.w3.org/2000/svg" xmlns:xlink="http://www.w3.org/1999/xlink" width="462pt" height="1531pt" viewBox="0.00 0.00 462.00 1531.00">
<g id="graph0" class="graph" transform="scale(2.77778 2.77778) rotate(0) translate(4 547)">
<title>G</title>
<polygon fill="white" stroke="none" points="-4,4 -4,-547 162.29,-547 162.29,4 -4,4"/>
<!-- moderation_cases -->
<g id="node1" class="node">
<title>moderation_cases</title>
<polygon fill="none" stroke="black" points="0.78,-187.9 0.78,-338.3 157.51,-338.3 157.51,-187.9 0.78,-187.9"/>
<text xml:space="preserve" text-anchor="middle" x="79.15" y="-321.7" font-family="Times,serif" font-size="14.00">moderation_cases</text>
<polyline fill="none" stroke="black" points="0.78,-313.5 157.51,-313.5"/>
<text xml:space="preserve" text-anchor="start" x="8.78" y="-296.9" font-family="Times,serif" font-size="14.00">id : uuid PK</text>
<text xml:space="preserve" text-anchor="start" x="8.78" y="-280.1" font-family="Times,serif" font-size="14.00">target_type : varchar(40)</text>
<text xml:space="preserve" text-anchor="start" x="8.78" y="-263.3" font-family="Times,serif" font-size="14.00">target_id : uuid</text>
<text xml:space="preserve" text-anchor="start" x="8.78" y="-246.5" font-family="Times,serif" font-size="14.00">status : varchar(32)</text>
<text xml:space="preserve" text-anchor="start" x="8.78" y="-229.7" font-family="Times,serif" font-size="14.00">reason : varchar(160)</text>
<text xml:space="preserve" text-anchor="start" x="8.78" y="-212.9" font-family="Times,serif" font-size="14.00">created_at : timestamptz</text>
<text xml:space="preserve" text-anchor="start" x="8.78" y="-196.1" font-family="Times,serif" font-size="14.00">updated_at : timestamptz</text>
</g>
<!-- moderation_decisions -->
<g id="node2" class="node">
<title>moderation_decisions</title>
<polygon fill="none" stroke="black" points="0.38,-0.5 0.38,-134.1 157.91,-134.1 157.91,-0.5 0.38,-0.5"/>
<text xml:space="preserve" text-anchor="middle" x="79.15" y="-117.5" font-family="Times,serif" font-size="14.00">moderation_decisions</text>
<polyline fill="none" stroke="black" points="0.38,-109.3 157.91,-109.3"/>
<text xml:space="preserve" text-anchor="start" x="8.38" y="-92.7" font-family="Times,serif" font-size="14.00">id : uuid PK</text>
<text xml:space="preserve" text-anchor="start" x="8.38" y="-75.9" font-family="Times,serif" font-size="14.00">case_id : uuid FK</text>
<text xml:space="preserve" text-anchor="start" x="8.38" y="-59.1" font-family="Times,serif" font-size="14.00">moderator_user_id : uuid</text>
<text xml:space="preserve" text-anchor="start" x="8.38" y="-42.3" font-family="Times,serif" font-size="14.00">decision : varchar(32)</text>
<text xml:space="preserve" text-anchor="start" x="8.38" y="-25.5" font-family="Times,serif" font-size="14.00">comment : text</text>
<text xml:space="preserve" text-anchor="start" x="8.38" y="-8.7" font-family="Times,serif" font-size="14.00">created_at : timestamptz</text>
</g>
<!-- moderation_cases&#45;&gt;moderation_decisions -->
<g id="edge1" class="edge">
<title>moderation_cases-&gt;moderation_decisions</title>
<path fill="none" stroke="black" d="M79.15,-187.45C79.15,-173.79 79.15,-159.5 79.15,-145.76"/>
<polygon fill="black" stroke="black" points="82.65,-145.88 79.15,-135.88 75.65,-145.88 82.65,-145.88"/>
<text xml:space="preserve" text-anchor="middle" x="89.65" y="-156.8" font-family="Times,serif" font-size="14.00">1:N</text>
</g>
<!-- complaints -->
<g id="node3" class="node">
<title>complaints</title>
<polygon fill="none" stroke="black" points="0,-392.1 0,-542.5 158.29,-542.5 158.29,-392.1 0,-392.1"/>
<text xml:space="preserve" text-anchor="middle" x="79.15" y="-525.9" font-family="Times,serif" font-size="14.00">complaints</text>
<polyline fill="none" stroke="black" points="0,-517.7 158.29,-517.7"/>
<text xml:space="preserve" text-anchor="start" x="8" y="-501.1" font-family="Times,serif" font-size="14.00">id : uuid PK</text>
<text xml:space="preserve" text-anchor="start" x="8" y="-484.3" font-family="Times,serif" font-size="14.00">reporter_profile_id : uuid</text>
<text xml:space="preserve" text-anchor="start" x="8" y="-467.5" font-family="Times,serif" font-size="14.00">target_type : varchar(40)</text>
<text xml:space="preserve" text-anchor="start" x="8" y="-450.7" font-family="Times,serif" font-size="14.00">target_id : uuid</text>
<text xml:space="preserve" text-anchor="start" x="8" y="-433.9" font-family="Times,serif" font-size="14.00">reason : varchar(160)</text>
<text xml:space="preserve" text-anchor="start" x="8" y="-417.1" font-family="Times,serif" font-size="14.00">status : varchar(32)</text>
<text xml:space="preserve" text-anchor="start" x="8" y="-400.3" font-family="Times,serif" font-size="14.00">created_at : timestamptz</text>
</g>
<!-- complaints&#45;&gt;moderation_cases -->
<g id="edge2" class="edge">
<title>complaints-&gt;moderation_cases</title>
<path fill="none" stroke="black" d="M79.15,-391.87C79.15,-378.19 79.15,-363.8 79.15,-349.82"/>
<polygon fill="black" stroke="black" points="82.65,-350.22 79.15,-340.22 75.65,-350.22 82.65,-350.22"/>
<text xml:space="preserve" text-anchor="middle" x="95.09" y="-361" font-family="Times,serif" font-size="14.00">0..1:1</text>
</g>
</g>
</svg>