<svg xmlns="http://www.w3.org/2000/svg" width="928" height="780" viewBox="0 0 928 780" role="img" aria-labelledby="title desc">
<title>Moderation Service Database Schema</title>
<desc>Entity relationship diagram for Moderation Service Database Schema.</desc>
<defs>
<filter id="shadow" x="-8%" y="-8%" width="116%" height="124%"><feDropShadow dx="0" dy="8" stdDeviation="8" flood-color="#0f172a" flood-opacity=".10"/></filter>
<marker id="arrow" markerWidth="12" markerHeight="12" refX="10" refY="6" orient="auto"><path d="M2,2 L10,6 L2,10" fill="none" stroke="#64748b" stroke-width="1.8" stroke-linecap="round" stroke-linejoin="round"/></marker>
</defs>
<rect width="100%" height="100%" fill="#ffffff"/>
<rect x="18" y="18" width="892" height="744" rx="18" fill="#f8fafc" stroke="#e2e8f0"/>
<text x="40" y="56" font-family="Inter, Segoe UI, Arial, sans-serif" font-size="22" font-weight="700" fill="#0f172a">Moderation Service Database Schema</text>
<path d="M 418.0 372 C 418.0 411.0, 205.0 411.0, 205.0 450" fill="none" stroke="#64748b" stroke-width="2.2" marker-end="url(#arrow)"/>
<text x="311.5" y="389.0" text-anchor="middle" font-family="Inter, Segoe UI, Arial, sans-serif" font-size="12" font-weight="700" fill="#475569">1:N</text>
<g filter="url(#shadow)">
<rect x="285" y="90" width="266" height="282" rx="10" fill="#ffffff" stroke="#cbd5e1"/>
<rect x="285" y="90" width="266" height="44" rx="10" fill="#475569"/>
<path d="M 285 124 H 551 V 134 H 285 Z" fill="#475569"/>
<text x="303" y="119" font-family="Inter, Segoe UI, Arial, sans-serif" font-size="16" font-weight="700" fill="#ffffff">moderation_cases</text>
<rect x="299" y="138" width="238" height="24" rx="6" fill="#f8fafc"/>
<text x="309" y="156" font-family="Inter, Segoe UI, Arial, sans-serif" font-size="10" font-weight="800" fill="#475569">PK</text>
<text x="341" y="156" font-family="Inter, Segoe UI, Arial, sans-serif" font-size="13" font-weight="600" fill="#0f172a">id</text>
<text x="533" y="156" text-anchor="end" font-family="Inter, Segoe UI, Arial, sans-serif" font-size="12" fill="#64748b">uuid</text>
<rect x="299" y="166" width="238" height="24" rx="6" fill="#ffffff"/>
<text x="309" y="184" font-family="Inter, Segoe UI, Arial, sans-serif" font-size="10" font-weight="800" fill="#475569">FK</text>
<text x="341" y="184" font-family="Inter, Segoe UI, Arial, sans-serif" font-size="13" font-weight="600" fill="#0f172a">listing_id</text>
<text x="533" y="184" text-anchor="end" font-family="Inter, Segoe UI, Arial, sans-serif" font-size="12" fill="#64748b">uuid</text>
<rect x="299" y="194" width="238" height="24" rx="6" fill="#ffffff"/>
<text x="309" y="212" font-family="Inter, Segoe UI, Arial, sans-serif" font-size="10" font-weight="800" fill="#475569">FK</text>
<text x="341" y="212" font-family="Inter, Segoe UI, Arial, sans-serif" font-size="13" font-weight="600" fill="#0f172a">landlord_profile_id</text>
<text x="533" y="212" text-anchor="end" font-family="Inter, Segoe UI, Arial, sans-serif" font-size="12" fill="#64748b">uuid</text>
<rect x="299" y="222" width="238" height="24" rx="6" fill="#ffffff"/>
<text x="341" y="240" font-family="Inter, Segoe UI, Arial, sans-serif" font-size="13" font-weight="600" fill="#0f172a">status</text>
<text x="533" y="240" text-anchor="end" font-family="Inter, Segoe UI, Arial, sans-serif" font-size="12" fill="#64748b">varchar(32)</text>
<rect x="299" y="250" width="238" height="24" rx="6" fill="#ffffff"/>
<text x="341" y="268" font-family="Inter, Segoe UI, Arial, sans-serif" font-size="13" font-weight="600" fill="#0f172a">priority</text>
<text x="533" y="268" text-anchor="end" font-family="Inter, Segoe UI, Arial, sans-serif" font-size="12" fill="#64748b">varchar(24)</text>
<rect x="299" y="278" width="238" height="24" rx="6" fill="#ffffff"/>
<text x="309" y="296" font-family="Inter, Segoe UI, Arial, sans-serif" font-size="10" font-weight="800" fill="#475569">FK</text>
<text x="341" y="296" font-family="Inter, Segoe UI, Arial, sans-serif" font-size="13" font-weight="600" fill="#0f172a">assigned_moderator_id</text>
<text x="533" y="296" text-anchor="end" font-family="Inter, Segoe UI, Arial, sans-serif" font-size="12" fill="#64748b">uuid</text>
<rect x="299" y="306" width="238" height="24" rx="6" fill="#ffffff"/>
<text x="341" y="324" font-family="Inter, Segoe UI, Arial, sans-serif" font-size="13" font-weight="600" fill="#0f172a">created_at</text>
<text x="533" y="324" text-anchor="end" font-family="Inter, Segoe UI, Arial, sans-serif" font-size="12" fill="#64748b">timestamptz</text>
<rect x="299" y="334" width="238" height="24" rx="6" fill="#ffffff"/>
<text x="341" y="352" font-family="Inter, Segoe UI, Arial, sans-serif" font-size="13" font-weight="600" fill="#0f172a">updated_at</text>
<text x="533" y="352" text-anchor="end" font-family="Inter, Segoe UI, Arial, sans-serif" font-size="12" fill="#64748b">timestamptz</text>
</g>
<g filter="url(#shadow)">
<rect x="75" y="450" width="260" height="226" rx="10" fill="#ffffff" stroke="#cbd5e1"/>
<rect x="75" y="450" width="260" height="44" rx="10" fill="#475569"/>
<path d="M 75 484 H 335 V 494 H 75 Z" fill="#475569"/>
<text x="93" y="479" font-family="Inter, Segoe UI, Arial, sans-serif" font-size="16" font-weight="700" fill="#ffffff">moderation_decisions</text>
<rect x="89" y="498" width="232" height="24" rx="6" fill="#f8fafc"/>
<text x="99" y="516" font-family="Inter, Segoe UI, Arial, sans-serif" font-size="10" font-weight="800" fill="#475569">PK</text>
<text x="131" y="516" font-family="Inter, Segoe UI, Arial, sans-serif" font-size="13" font-weight="600" fill="#0f172a">id</text>
<text x="317" y="516" text-anchor="end" font-family="Inter, Segoe UI, Arial, sans-serif" font-size="12" fill="#64748b">uuid</text>
<rect x="89" y="526" width="232" height="24" rx="6" fill="#ffffff"/>
<text x="99" y="544" font-family="Inter, Segoe UI, Arial, sans-serif" font-size="10" font-weight="800" fill="#475569">FK</text>
<text x="131" y="544" font-family="Inter, Segoe UI, Arial, sans-serif" font-size="13" font-weight="600" fill="#0f172a">case_id</text>
<text x="317" y="544" text-anchor="end" font-family="Inter, Segoe UI, Arial, sans-serif" font-size="12" fill="#64748b">uuid</text>
<rect x="89" y="554" width="232" height="24" rx="6" fill="#ffffff"/>
<text x="99" y="572" font-family="Inter, Segoe UI, Arial, sans-serif" font-size="10" font-weight="800" fill="#475569">FK</text>
<text x="131" y="572" font-family="Inter, Segoe UI, Arial, sans-serif" font-size="13" font-weight="600" fill="#0f172a">moderator_profile_id</text>
<text x="317" y="572" text-anchor="end" font-family="Inter, Segoe UI, Arial, sans-serif" font-size="12" fill="#64748b">uuid</text>
<rect x="89" y="582" width="232" height="24" rx="6" fill="#ffffff"/>
<text x="131" y="600" font-family="Inter, Segoe UI, Arial, sans-serif" font-size="13" font-weight="600" fill="#0f172a">decision</text>
<text x="317" y="600" text-anchor="end" font-family="Inter, Segoe UI, Arial, sans-serif" font-size="12" fill="#64748b">varchar(32)</text>
<rect x="89" y="610" width="232" height="24" rx="6" fill="#ffffff"/>
<text x="131" y="628" font-family="Inter, Segoe UI, Arial, sans-serif" font-size="13" font-weight="600" fill="#0f172a">reason</text>
<text x="317" y="628" text-anchor="end" font-family="Inter, Segoe UI, Arial, sans-serif" font-size="12" fill="#64748b">text</text>
<rect x="89" y="638" width="232" height="24" rx="6" fill="#ffffff"/>
<text x="131" y="656" font-family="Inter, Segoe UI, Arial, sans-serif" font-size="13" font-weight="600" fill="#0f172a">created_at</text>
<text x="317" y="656" text-anchor="end" font-family="Inter, Segoe UI, Arial, sans-serif" font-size="12" fill="#64748b">timestamptz</text>
</g>
<g filter="url(#shadow)">
<rect x="620" y="450" width="260" height="282" rx="10" fill="#ffffff" stroke="#cbd5e1"/>
<rect x="620" y="450" width="260" height="44" rx="10" fill="#475569"/>
<path d="M 620 484 H 880 V 494 H 620 Z" fill="#475569"/>
<text x="638" y="479" font-family="Inter, Segoe UI, Arial, sans-serif" font-size="16" font-weight="700" fill="#ffffff">complaints</text>
<rect x="634" y="498" width="232" height="24" rx="6" fill="#f8fafc"/>
<text x="644" y="516" font-family="Inter, Segoe UI, Arial, sans-serif" font-size="10" font-weight="800" fill="#475569">PK</text>
<text x="676" y="516" font-family="Inter, Segoe UI, Arial, sans-serif" font-size="13" font-weight="600" fill="#0f172a">id</text>
<text x="862" y="516" text-anchor="end" font-family="Inter, Segoe UI, Arial, sans-serif" font-size="12" fill="#64748b">uuid</text>
<rect x="634" y="526" width="232" height="24" rx="6" fill="#ffffff"/>
<text x="644" y="544" font-family="Inter, Segoe UI, Arial, sans-serif" font-size="10" font-weight="800" fill="#475569">FK</text>
<text x="676" y="544" font-family="Inter, Segoe UI, Arial, sans-serif" font-size="13" font-weight="600" fill="#0f172a">listing_id</text>
<text x="862" y="544" text-anchor="end" font-family="Inter, Segoe UI, Arial, sans-serif" font-size="12" fill="#64748b">uuid</text>
<rect x="634" y="554" width="232" height="24" rx="6" fill="#ffffff"/>
<text x="644" y="572" font-family="Inter, Segoe UI, Arial, sans-serif" font-size="10" font-weight="800" fill="#475569">FK</text>
<text x="676" y="572" font-family="Inter, Segoe UI, Arial, sans-serif" font-size="13" font-weight="600" fill="#0f172a">reporter_profile_id</text>
<text x="862" y="572" text-anchor="end" font-family="Inter, Segoe UI, Arial, sans-serif" font-size="12" fill="#64748b">uuid</text>
<rect x="634" y="582" width="232" height="24" rx="6" fill="#ffffff"/>
<text x="676" y="600" font-family="Inter, Segoe UI, Arial, sans-serif" font-size="13" font-weight="600" fill="#0f172a">reason</text>
<text x="862" y="600" text-anchor="end" font-family="Inter, Segoe UI, Arial, sans-serif" font-size="12" fill="#64748b">varchar(80)</text>
<rect x="634" y="610" width="232" height="24" rx="6" fill="#ffffff"/>
<text x="676" y="628" font-family="Inter, Segoe UI, Arial, sans-serif" font-size="13" font-weight="600" fill="#0f172a">description</text>
<text x="862" y="628" text-anchor="end" font-family="Inter, Segoe UI, Arial, sans-serif" font-size="12" fill="#64748b">text</text>
<rect x="634" y="638" width="232" height="24" rx="6" fill="#ffffff"/>
<text x="676" y="656" font-family="Inter, Segoe UI, Arial, sans-serif" font-size="13" font-weight="600" fill="#0f172a">status</text>
<text x="862" y="656" text-anchor="end" font-family="Inter, Segoe UI, Arial, sans-serif" font-size="12" fill="#64748b">varchar(32)</text>
<rect x="634" y="666" width="232" height="24" rx="6" fill="#ffffff"/>
<text x="676" y="684" font-family="Inter, Segoe UI, Arial, sans-serif" font-size="13" font-weight="600" fill="#0f172a">created_at</text>
<text x="862" y="684" text-anchor="end" font-family="Inter, Segoe UI, Arial, sans-serif" font-size="12" fill="#64748b">timestamptz</text>
<rect x="634" y="694" width="232" height="24" rx="6" fill="#ffffff"/>
<text x="676" y="712" font-family="Inter, Segoe UI, Arial, sans-serif" font-size="13" font-weight="600" fill="#0f172a">updated_at</text>
<text x="862" y="712" text-anchor="end" font-family="Inter, Segoe UI, Arial, sans-serif" font-size="12" fill="#64748b">timestamptz</text>
</g>
</svg>
