<svg xmlns="http://www.w3.org/2000/svg" width="1143" height="950" viewBox="0 0 1143 950" role="img" aria-labelledby="title desc">
<title>Profile Service Database Schema</title>
<desc>Entity relationship diagram for Profile Service Database Schema.</desc>
<defs>
<filter id="shadow" x="-8%" y="-8%" width="116%" height="124%"><feDropShadow dx="0" dy="8" stdDeviation="8" flood-color="#0f172a" flood-opacity=".10"/></filter>
<marker id="arrow" markerWidth="12" markerHeight="12" refX="10" refY="6" orient="auto"><path d="M2,2 L10,6 L2,10" fill="none" stroke="#64748b" stroke-width="1.8" stroke-linecap="round" stroke-linejoin="round"/></marker>
</defs>
<rect width="100%" height="100%" fill="#ffffff"/>
<rect x="18" y="18" width="1107" height="914" rx="18" fill="#f8fafc" stroke="#e2e8f0"/>
<text x="40" y="56" font-family="Inter, Segoe UI, Arial, sans-serif" font-size="22" font-weight="700" fill="#0f172a">Profile Service Database Schema</text>
<path d="M 420 231.0 C 386.5 231.0, 386.5 529.0, 353 529.0" fill="none" stroke="#64748b" stroke-width="2.2" marker-end="url(#arrow)"/>
<text x="383.25" y="372.0" text-anchor="middle" font-family="Inter, Segoe UI, Arial, sans-serif" font-size="12" font-weight="700" fill="#475569">1:1</text>
<path d="M 680 231.0 C 730.0 231.0, 730.0 543.0, 780 543.0" fill="none" stroke="#64748b" stroke-width="2.2" marker-end="url(#arrow)"/>
<text x="743.75" y="379.0" text-anchor="middle" font-family="Inter, Segoe UI, Arial, sans-serif" font-size="12" font-weight="700" fill="#475569">1:1</text>
<path d="M 216.5 628 C 216.5 694.0, 235.0 694.0, 235.0 760" fill="none" stroke="#64748b" stroke-width="2.2" marker-end="url(#arrow)"/>
<text x="225.75" y="672.0" text-anchor="middle" font-family="Inter, Segoe UI, Arial, sans-serif" font-size="12" font-weight="700" fill="#475569">1:N</text>
<g filter="url(#shadow)">
<rect x="420" y="90" width="260" height="282" rx="10" fill="#ffffff" stroke="#cbd5e1"/>
<rect x="420" y="90" width="260" height="44" rx="10" fill="#0f766e"/>
<path d="M 420 124 H 680 V 134 H 420 Z" fill="#0f766e"/>
<text x="438" y="119" font-family="Inter, Segoe UI, Arial, sans-serif" font-size="16" font-weight="700" fill="#ffffff">user_profiles</text>
<rect x="434" y="138" width="232" height="24" rx="6" fill="#ecfeff"/>
<text x="444" y="156" font-family="Inter, Segoe UI, Arial, sans-serif" font-size="10" font-weight="800" fill="#0f766e">PK</text>
<text x="476" y="156" font-family="Inter, Segoe UI, Arial, sans-serif" font-size="13" font-weight="600" fill="#0f172a">id</text>
<text x="662" y="156" text-anchor="end" font-family="Inter, Segoe UI, Arial, sans-serif" font-size="12" fill="#64748b">uuid</text>
<rect x="434" y="166" width="232" height="24" rx="6" fill="#ffffff"/>
<text x="444" y="184" font-family="Inter, Segoe UI, Arial, sans-serif" font-size="10" font-weight="800" fill="#0f766e">FK</text>
<text x="476" y="184" font-family="Inter, Segoe UI, Arial, sans-serif" font-size="13" font-weight="600" fill="#0f172a">keycloak_user_id</text>
<text x="662" y="184" text-anchor="end" font-family="Inter, Segoe UI, Arial, sans-serif" font-size="12" fill="#64748b">uuid</text>
<rect x="434" y="194" width="232" height="24" rx="6" fill="#ffffff"/>
<text x="476" y="212" font-family="Inter, Segoe UI, Arial, sans-serif" font-size="13" font-weight="600" fill="#0f172a">email</text>
<text x="662" y="212" text-anchor="end" font-family="Inter, Segoe UI, Arial, sans-serif" font-size="12" fill="#64748b">varchar(255)</text>
<rect x="434" y="222" width="232" height="24" rx="6" fill="#ffffff"/>
<text x="476" y="240" font-family="Inter, Segoe UI, Arial, sans-serif" font-size="13" font-weight="600" fill="#0f172a">display_name</text>
<text x="662" y="240" text-anchor="end" font-family="Inter, Segoe UI, Arial, sans-serif" font-size="12" fill="#64748b">varchar(160)</text>
<rect x="434" y="250" width="232" height="24" rx="6" fill="#ffffff"/>
<text x="476" y="268" font-family="Inter, Segoe UI, Arial, sans-serif" font-size="13" font-weight="600" fill="#0f172a">phone</text>
<text x="662" y="268" text-anchor="end" font-family="Inter, Segoe UI, Arial, sans-serif" font-size="12" fill="#64748b">varchar(32)</text>
<rect x="434" y="278" width="232" height="24" rx="6" fill="#ffffff"/>
<text x="476" y="296" font-family="Inter, Segoe UI, Arial, sans-serif" font-size="13" font-weight="600" fill="#0f172a">status</text>
<text x="662" y="296" text-anchor="end" font-family="Inter, Segoe UI, Arial, sans-serif" font-size="12" fill="#64748b">varchar(32)</text>
<rect x="434" y="306" width="232" height="24" rx="6" fill="#ffffff"/>
<text x="476" y="324" font-family="Inter, Segoe UI, Arial, sans-serif" font-size="13" font-weight="600" fill="#0f172a">created_at</text>
<text x="662" y="324" text-anchor="end" font-family="Inter, Segoe UI, Arial, sans-serif" font-size="12" fill="#64748b">timestamptz</text>
<rect x="434" y="334" width="232" height="24" rx="6" fill="#ffffff"/>
<text x="476" y="352" font-family="Inter, Segoe UI, Arial, sans-serif" font-size="13" font-weight="600" fill="#0f172a">updated_at</text>
<text x="662" y="352" text-anchor="end" font-family="Inter, Segoe UI, Arial, sans-serif" font-size="12" fill="#64748b">timestamptz</text>
</g>
<g filter="url(#shadow)">
<rect x="80" y="430" width="273" height="198" rx="10" fill="#ffffff" stroke="#cbd5e1"/>
<rect x="80" y="430" width="273" height="44" rx="10" fill="#0f766e"/>
<path d="M 80 464 H 353 V 474 H 80 Z" fill="#0f766e"/>
<text x="98" y="459" font-family="Inter, Segoe UI, Arial, sans-serif" font-size="16" font-weight="700" fill="#ffffff">tenant_profiles</text>
<rect x="94" y="478" width="245" height="24" rx="6" fill="#ecfeff"/>
<text x="104" y="496" font-family="Inter, Segoe UI, Arial, sans-serif" font-size="10" font-weight="800" fill="#0f766e">PK</text>
<text x="136" y="496" font-family="Inter, Segoe UI, Arial, sans-serif" font-size="13" font-weight="600" fill="#0f172a">profile_id</text>
<text x="335" y="496" text-anchor="end" font-family="Inter, Segoe UI, Arial, sans-serif" font-size="12" fill="#64748b">uuid</text>
<rect x="94" y="506" width="245" height="24" rx="6" fill="#ffffff"/>
<text x="136" y="524" font-family="Inter, Segoe UI, Arial, sans-serif" font-size="13" font-weight="600" fill="#0f172a">preferred_city</text>
<text x="335" y="524" text-anchor="end" font-family="Inter, Segoe UI, Arial, sans-serif" font-size="12" fill="#64748b">varchar(120)</text>
<rect x="94" y="534" width="245" height="24" rx="6" fill="#ffffff"/>
<text x="136" y="552" font-family="Inter, Segoe UI, Arial, sans-serif" font-size="13" font-weight="600" fill="#0f172a">preferences</text>
<text x="335" y="552" text-anchor="end" font-family="Inter, Segoe UI, Arial, sans-serif" font-size="12" fill="#64748b">jsonb</text>
<rect x="94" y="562" width="245" height="24" rx="6" fill="#ffffff"/>
<text x="136" y="580" font-family="Inter, Segoe UI, Arial, sans-serif" font-size="13" font-weight="600" fill="#0f172a">created_at</text>
<text x="335" y="580" text-anchor="end" font-family="Inter, Segoe UI, Arial, sans-serif" font-size="12" fill="#64748b">timestamptz</text>
<rect x="94" y="590" width="245" height="24" rx="6" fill="#ffffff"/>
<text x="136" y="608" font-family="Inter, Segoe UI, Arial, sans-serif" font-size="13" font-weight="600" fill="#0f172a">updated_at</text>
<text x="335" y="608" text-anchor="end" font-family="Inter, Segoe UI, Arial, sans-serif" font-size="12" fill="#64748b">timestamptz</text>
</g>
<g filter="url(#shadow)">
<rect x="780" y="430" width="315" height="226" rx="10" fill="#ffffff" stroke="#cbd5e1"/>
<rect x="780" y="430" width="315" height="44" rx="10" fill="#0f766e"/>
<path d="M 780 464 H 1095 V 474 H 780 Z" fill="#0f766e"/>
<text x="798" y="459" font-family="Inter, Segoe UI, Arial, sans-serif" font-size="16" font-weight="700" fill="#ffffff">landlord_profiles</text>
<rect x="794" y="478" width="287" height="24" rx="6" fill="#ecfeff"/>
<text x="804" y="496" font-family="Inter, Segoe UI, Arial, sans-serif" font-size="10" font-weight="800" fill="#0f766e">PK</text>
<text x="836" y="496" font-family="Inter, Segoe UI, Arial, sans-serif" font-size="13" font-weight="600" fill="#0f172a">profile_id</text>
<text x="1077" y="496" text-anchor="end" font-family="Inter, Segoe UI, Arial, sans-serif" font-size="12" fill="#64748b">uuid</text>
<rect x="794" y="506" width="287" height="24" rx="6" fill="#ffffff"/>
<text x="836" y="524" font-family="Inter, Segoe UI, Arial, sans-serif" font-size="13" font-weight="600" fill="#0f172a">display_company_name</text>
<text x="1077" y="524" text-anchor="end" font-family="Inter, Segoe UI, Arial, sans-serif" font-size="12" fill="#64748b">varchar(180)</text>
<rect x="794" y="534" width="287" height="24" rx="6" fill="#ffffff"/>
<text x="836" y="552" font-family="Inter, Segoe UI, Arial, sans-serif" font-size="13" font-weight="600" fill="#0f172a">verification_status</text>
<text x="1077" y="552" text-anchor="end" font-family="Inter, Segoe UI, Arial, sans-serif" font-size="12" fill="#64748b">varchar(32)</text>
<rect x="794" y="562" width="287" height="24" rx="6" fill="#ffffff"/>
<text x="836" y="580" font-family="Inter, Segoe UI, Arial, sans-serif" font-size="13" font-weight="600" fill="#0f172a">business_metadata</text>
<text x="1077" y="580" text-anchor="end" font-family="Inter, Segoe UI, Arial, sans-serif" font-size="12" fill="#64748b">jsonb</text>
<rect x="794" y="590" width="287" height="24" rx="6" fill="#ffffff"/>
<text x="836" y="608" font-family="Inter, Segoe UI, Arial, sans-serif" font-size="13" font-weight="600" fill="#0f172a">created_at</text>
<text x="1077" y="608" text-anchor="end" font-family="Inter, Segoe UI, Arial, sans-serif" font-size="12" fill="#64748b">timestamptz</text>
<rect x="794" y="618" width="287" height="24" rx="6" fill="#ffffff"/>
<text x="836" y="636" font-family="Inter, Segoe UI, Arial, sans-serif" font-size="13" font-weight="600" fill="#0f172a">updated_at</text>
<text x="1077" y="636" text-anchor="end" font-family="Inter, Segoe UI, Arial, sans-serif" font-size="12" fill="#64748b">timestamptz</text>
</g>
<g filter="url(#shadow)">
<rect x="105" y="760" width="260" height="142" rx="10" fill="#ffffff" stroke="#cbd5e1"/>
<rect x="105" y="760" width="260" height="44" rx="10" fill="#0f766e"/>
<path d="M 105 794 H 365 V 804 H 105 Z" fill="#0f766e"/>
<text x="123" y="789" font-family="Inter, Segoe UI, Arial, sans-serif" font-size="16" font-weight="700" fill="#ffffff">favorite_listings</text>
<rect x="119" y="808" width="232" height="24" rx="6" fill="#ecfeff"/>
<text x="129" y="826" font-family="Inter, Segoe UI, Arial, sans-serif" font-size="10" font-weight="800" fill="#0f766e">PK</text>
<text x="161" y="826" font-family="Inter, Segoe UI, Arial, sans-serif" font-size="13" font-weight="600" fill="#0f172a">tenant_profile_id</text>
<text x="347" y="826" text-anchor="end" font-family="Inter, Segoe UI, Arial, sans-serif" font-size="12" fill="#64748b">uuid</text>
<rect x="119" y="836" width="232" height="24" rx="6" fill="#ecfeff"/>
<text x="129" y="854" font-family="Inter, Segoe UI, Arial, sans-serif" font-size="10" font-weight="800" fill="#0f766e">PK</text>
<text x="161" y="854" font-family="Inter, Segoe UI, Arial, sans-serif" font-size="13" font-weight="600" fill="#0f172a">listing_id</text>
<text x="347" y="854" text-anchor="end" font-family="Inter, Segoe UI, Arial, sans-serif" font-size="12" fill="#64748b">uuid</text>
<rect x="119" y="864" width="232" height="24" rx="6" fill="#ffffff"/>
<text x="161" y="882" font-family="Inter, Segoe UI, Arial, sans-serif" font-size="13" font-weight="600" fill="#0f172a">created_at</text>
<text x="347" y="882" text-anchor="end" font-family="Inter, Segoe UI, Arial, sans-serif" font-size="12" fill="#64748b">timestamptz</text>
</g>
<g filter="url(#shadow)">
<rect x="760" y="120" width="260" height="170" rx="10" fill="#ffffff" stroke="#cbd5e1"/>
<rect x="760" y="120" width="260" height="44" rx="10" fill="#0f766e"/>
<path d="M 760 154 H 1020 V 164 H 760 Z" fill="#0f766e"/>
<text x="778" y="149" font-family="Inter, Segoe UI, Arial, sans-serif" font-size="16" font-weight="700" fill="#ffffff">processed_identity_events</text>
<rect x="774" y="168" width="232" height="24" rx="6" fill="#ecfeff"/>
<text x="784" y="186" font-family="Inter, Segoe UI, Arial, sans-serif" font-size="10" font-weight="800" fill="#0f766e">PK</text>
<text x="816" y="186" font-family="Inter, Segoe UI, Arial, sans-serif" font-size="13" font-weight="600" fill="#0f172a">event_id</text>
<text x="1002" y="186" text-anchor="end" font-family="Inter, Segoe UI, Arial, sans-serif" font-size="12" fill="#64748b">uuid</text>
<rect x="774" y="196" width="232" height="24" rx="6" fill="#ffffff"/>
<text x="816" y="214" font-family="Inter, Segoe UI, Arial, sans-serif" font-size="13" font-weight="600" fill="#0f172a">event_type</text>
<text x="1002" y="214" text-anchor="end" font-family="Inter, Segoe UI, Arial, sans-serif" font-size="12" fill="#64748b">varchar(80)</text>
<rect x="774" y="224" width="232" height="24" rx="6" fill="#ffffff"/>
<text x="784" y="242" font-family="Inter, Segoe UI, Arial, sans-serif" font-size="10" font-weight="800" fill="#0f766e">FK</text>
<text x="816" y="242" font-family="Inter, Segoe UI, Arial, sans-serif" font-size="13" font-weight="600" fill="#0f172a">keycloak_user_id</text>
<text x="1002" y="242" text-anchor="end" font-family="Inter, Segoe UI, Arial, sans-serif" font-size="12" fill="#64748b">uuid</text>
<rect x="774" y="252" width="232" height="24" rx="6" fill="#ffffff"/>
<text x="816" y="270" font-family="Inter, Segoe UI, Arial, sans-serif" font-size="13" font-weight="600" fill="#0f172a">processed_at</text>
<text x="1002" y="270" text-anchor="end" font-family="Inter, Segoe UI, Arial, sans-serif" font-size="12" fill="#64748b">timestamptz</text>
</g>
</svg>
