<svg xmlns="http://www.w3.org/2000/svg" xmlns:xlink="http://www.w3.org/1999/xlink" width="1111pt" height="1484pt" viewBox="0.00 0.00 1111.00 1484.00">
<g id="graph0" class="graph" transform="scale(2.77778 2.77778) rotate(0) translate(4 530.2)">
<title>G</title>
<polygon fill="white" stroke="none" points="-4,4 -4,-530.2 396.03,-530.2 396.03,4 -4,4"/>
<!-- profile_users -->
<g id="node1" class="node">
<title>profile_users</title>
<polygon fill="none" stroke="black" points="102.76,-375.3 102.76,-525.7 279.7,-525.7 279.7,-375.3 102.76,-375.3"/>
<text xml:space="preserve" text-anchor="middle" x="191.23" y="-509.1" font-family="Times,serif" font-size="14.00">profiles</text>
<polyline fill="none" stroke="black" points="102.76,-500.9 279.7,-500.9"/>
<text xml:space="preserve" text-anchor="start" x="110.76" y="-484.3" font-family="Times,serif" font-size="14.00">id : uuid PK</text>
<text xml:space="preserve" text-anchor="start" x="110.76" y="-467.5" font-family="Times,serif" font-size="14.00">user_id : uuid UQ</text>
<text xml:space="preserve" text-anchor="start" x="110.76" y="-450.7" font-family="Times,serif" font-size="14.00">display_name : varchar(160)</text>
<text xml:space="preserve" text-anchor="start" x="110.76" y="-433.9" font-family="Times,serif" font-size="14.00">phone : varchar(32)</text>
<text xml:space="preserve" text-anchor="start" x="110.76" y="-417.1" font-family="Times,serif" font-size="14.00">status : varchar(32)</text>
<text xml:space="preserve" text-anchor="start" x="110.76" y="-400.3" font-family="Times,serif" font-size="14.00">created_at : timestamptz</text>
<text xml:space="preserve" text-anchor="start" x="110.76" y="-383.5" font-family="Times,serif" font-size="14.00">updated_at : timestamptz</text>
</g>
<!-- tenant_profiles -->
<g id="node2" class="node">
<title>tenant_profiles</title>
<polygon fill="none" stroke="black" points="0,-154.3 0,-321.5 178.46,-321.5 178.46,-154.3 0,-154.3"/>
<text xml:space="preserve" text-anchor="middle" x="89.23" y="-304.9" font-family="Times,serif" font-size="14.00">tenants</text>
<polyline fill="none" stroke="black" points="0,-296.7 178.46,-296.7"/>
<text xml:space="preserve" text-anchor="start" x="8" y="-280.1" font-family="Times,serif" font-size="14.00">id : uuid PK</text>
<text xml:space="preserve" text-anchor="start" x="8" y="-263.3" font-family="Times,serif" font-size="14.00">user_id : uuid FK</text>
<text xml:space="preserve" text-anchor="start" x="8" y="-246.5" font-family="Times,serif" font-size="14.00">preferred_city : varchar(120)</text>
<text xml:space="preserve" text-anchor="start" x="8" y="-229.7" font-family="Times,serif" font-size="14.00">contact_name : varchar(160)</text>
<text xml:space="preserve" text-anchor="start" x="8" y="-212.9" font-family="Times,serif" font-size="14.00">contact_phone : varchar(32)</text>
<text xml:space="preserve" text-anchor="start" x="8" y="-196.1" font-family="Times,serif" font-size="14.00">status : varchar(32)</text>
<text xml:space="preserve" text-anchor="start" x="8" y="-179.3" font-family="Times,serif" font-size="14.00">created_at : timestamptz</text>
<text xml:space="preserve" text-anchor="start" x="8" y="-162.5" font-family="Times,serif" font-size="14.00">updated_at : timestamptz</text>
</g>
<!-- profile_users&#45;&gt;tenant_profiles -->
<g id="edge1" class="edge">
<title>profile_users-&gt;tenant_profiles</title>
<path fill="none" stroke="black" d="M155.13,-374.95C148.44,-361.15 141.38,-346.57 134.46,-332.28"/>
<polygon fill="black" stroke="black" points="137.62,-330.79 130.12,-323.31 131.32,-333.84 137.62,-330.79"/>
<text xml:space="preserve" text-anchor="middle" x="159.23" y="-344.2" font-family="Times,serif" font-size="14.00">1:0..1</text>
</g>
<!-- landlord_profiles -->
<g id="node3" class="node">
<title>landlord_profiles</title>
<polygon fill="none" stroke="black" points="196.43,-162.7 196.43,-313.1 392.03,-313.1 392.03,-162.7 196.43,-162.7"/>
<text xml:space="preserve" text-anchor="middle" x="294.23" y="-296.5" font-family="Times,serif" font-size="14.00">landlords</text>
<polyline fill="none" stroke="black" points="196.43,-288.3 392.03,-288.3"/>
<text xml:space="preserve" text-anchor="start" x="204.43" y="-271.7" font-family="Times,serif" font-size="14.00">id : uuid PK</text>
<text xml:space="preserve" text-anchor="start" x="204.43" y="-254.9" font-family="Times,serif" font-size="14.00">user_id : uuid FK</text>
<text xml:space="preserve" text-anchor="start" x="204.43" y="-238.1" font-family="Times,serif" font-size="14.00">public_name : varchar(180)</text>
<text xml:space="preserve" text-anchor="start" x="204.43" y="-221.3" font-family="Times,serif" font-size="14.00">contact_phone : varchar(32)</text>
<text xml:space="preserve" text-anchor="start" x="204.43" y="-204.5" font-family="Times,serif" font-size="14.00">verification_status : varchar(32)</text>
<text xml:space="preserve" text-anchor="start" x="204.43" y="-187.7" font-family="Times,serif" font-size="14.00">created_at : timestamptz</text>
<text xml:space="preserve" text-anchor="start" x="204.43" y="-170.9" font-family="Times,serif" font-size="14.00">updated_at : timestamptz</text>
</g>
<!-- profile_users&#45;&gt;landlord_profiles -->
<g id="edge2" class="edge">
<title>profile_users-&gt;landlord_profiles</title>
<path fill="none" stroke="black" d="M227.69,-374.95C235.87,-358.24 244.6,-340.39 252.95,-323.3"/>
<polygon fill="black" stroke="black" points="255.91,-325.23 257.16,-314.71 249.62,-322.15 255.91,-325.23"/>
<text xml:space="preserve" text-anchor="middle" x="258.68" y="-344.2" font-family="Times,serif" font-size="14.00">1:0..1</text>
</g>
<!-- favorite_listings -->
<g id="node4" class="node">
<title>favorite_listings</title>
<polygon fill="none" stroke="black" points="4.44,-0.5 4.44,-100.5 174.03,-100.5 174.03,-0.5 4.44,-0.5"/>
<text xml:space="preserve" text-anchor="middle" x="89.23" y="-83.9" font-family="Times,serif" font-size="14.00">favorite_listings</text>
<polyline fill="none" stroke="black" points="4.44,-75.7 174.03,-75.7"/>
<text xml:space="preserve" text-anchor="start" x="12.44" y="-59.1" font-family="Times,serif" font-size="14.00">id : uuid PK</text>
<text xml:space="preserve" text-anchor="start" x="12.44" y="-42.3" font-family="Times,serif" font-size="14.00">tenant_profile_id : uuid FK</text>
<text xml:space="preserve" text-anchor="start" x="12.44" y="-25.5" font-family="Times,serif" font-size="14.00">listing_id : uuid</text>
<text xml:space="preserve" text-anchor="start" x="12.44" y="-8.7" font-family="Times,serif" font-size="14.00">created_at : timestamptz</text>
</g>
<!-- tenant_profiles&#45;&gt;favorite_listings -->
<g id="edge3" class="edge">
<title>tenant_profiles-&gt;favorite_listings</title>
<path fill="none" stroke="black" d="M89.23,-153.96C89.23,-139.94 89.23,-125.62 89.23,-112.3"/>
<polygon fill="black" stroke="black" points="92.73,-112.4 89.23,-102.4 85.73,-112.4 92.73,-112.4"/>
<text xml:space="preserve" text-anchor="middle" x="99.73" y="-123.2" font-family="Times,serif" font-size="14.00">1:N</text>
</g>
</g>
</svg>