<svg xmlns="http://www.w3.org/2000/svg" xmlns:xlink="http://www.w3.org/1999/xlink" version="1.1" data-diagram-type="SEQUENCE" style="width:1469px;height:960px;background:#FFFFFF;" width="1469px" height="960px" viewBox="0 0 1469 960" zoomAndPan="magnify" preserveAspectRatio="none" contentStyleType="text/css"><?plantuml 1.2026.7beta5?><defs/><g font-family="sans-serif" lengthAdjust="spacing"><g class="title" data-source-line="1"><text x="514.523" y="27.995" fill="#000" font-size="14" textLength="433.111" font-weight="700">Refresh Token Flow - Refresh Through Identity Service</text></g><g class="participant-lifeline" data-qualified-name="User" data-entity-uid="part1" id="part1-lifeline" data-source-line="3"><g><title>User</title><rect x="19.955" y="118.594" width="8" height="759.719" fill="#000" fill-opacity="0"/><line x1="23" y1="118.594" x2="23" y2="878.313" style="stroke:#181818;stroke-width:0.5;stroke-dasharray:5,5;"/></g></g><g class="participant-lifeline" data-qualified-name="Client" data-entity-uid="part2" id="part2-lifeline" data-source-line="4"><g><title>Public Client</title><rect x="217.5" y="118.594" width="8" height="759.719" fill="#000" fill-opacity="0"/><line x1="220.896" y1="118.594" x2="220.896" y2="878.313" style="stroke:#181818;stroke-width:0.5;stroke-dasharray:5,5;"/></g></g><g class="participant-lifeline" data-qualified-name="Identity" data-entity-uid="part3" id="part3-lifeline" data-source-line="5"><g><title>Identity Service</title><rect x="476.211" y="118.594" width="8" height="759.719" fill="#000" fill-opacity="0"/><line x1="479.288" y1="118.594" x2="479.288" y2="878.313" style="stroke:#181818;stroke-width:0.5;stroke-dasharray:5,5;"/></g></g><g class="participant-lifeline" data-qualified-name="Keycloak" data-entity-uid="part4" id="part4-lifeline" data-source-line="6"><g><title>Keycloak</title><rect x="771.326" y="118.594" width="8" height="759.719" fill="#000" fill-opacity="0"/><line x1="774.867" y1="118.594" x2="774.867" y2="878.313" style="stroke:#181818;stroke-width:0.5;stroke-dasharray:5,5;"/></g></g><g class="participant-lifeline" data-qualified-name="Gateway" data-entity-uid="part5" id="part5-lifeline" data-source-line="7"><g><title>API Gateway</title><rect x="993.211" y="118.594" width="8" height="759.719" fill="#000" fill-opacity="0"/><line x1="996.99" y1="118.594" x2="996.99" y2="878.313" style="stroke:#181818;stroke-width:0.5;stroke-dasharray:5,5;"/></g></g><g class="participant-lifeline" data-qualified-name="Service" data-entity-uid="part6" id="part6-lifeline" data-source-line="8"><g><title>Business Service</title><rect x="1244.616" y="118.594" width="8" height="759.719" fill="#000" fill-opacity="0"/><line x1="1247.653" y1="118.594" x2="1247.653" y2="878.313" style="stroke:#181818;stroke-width:0.5;stroke-dasharray:5,5;"/></g></g><g class="participant participant-head" data-qualified-name="User" data-entity-uid="part1" id="part1-head" data-source-line="3"><text x="5" y="115.292" fill="#000" font-size="14" textLength="31.91">User</text><ellipse cx="23.955" cy="50.797" rx="8" ry="8" fill="#E2E2F0" style="stroke:#181818;stroke-width:0.5;"/><path d="M23.955,58.797 L23.955,85.797 M10.955,66.797 L36.955,66.797 M23.955,85.797 L10.955,100.797 M23.955,85.797 L36.955,100.797" style="stroke:#181818;stroke-width:0.5;" fill="none"/></g><g class="participant participant-tail" data-qualified-name="User" data-entity-uid="part1" id="part1-tail" data-source-line="3"><text x="5" y="890.308" fill="#000" font-size="14" textLength="31.91">User</text><ellipse cx="23.955" cy="902.109" rx="8" ry="8" fill="#E2E2F0" style="stroke:#181818;stroke-width:0.5;"/><path d="M23.955,910.109 L23.955,937.109 M10.955,918.109 L36.955,918.109 M23.955,937.109 L10.955,952.109 M23.955,937.109 L36.955,952.109" style="stroke:#181818;stroke-width:0.5;" fill="none"/></g><g class="participant participant-head" data-qualified-name="Client" data-entity-uid="part2" id="part2-head" data-source-line="4"><rect x="102.896" y="71" width="237.207" height="46.594" fill="#E2E2F0" style="stroke:#181818;stroke-width:0.5;" rx="2.5" ry="2.5"/><text x="178.17" y="90.995" fill="#000" font-size="14" textLength="86.659">Public Client</text><text x="109.896" y="107.292" fill="#000" font-size="14" textLength="223.207">(Postman / Browser / API Client)</text></g><g class="participant participant-tail" data-qualified-name="Client" data-entity-uid="part2" id="part2-tail" data-source-line="4"><rect x="102.896" y="877.313" width="237.207" height="46.594" fill="#E2E2F0" style="stroke:#181818;stroke-width:0.5;" rx="2.5" ry="2.5"/><text x="178.17" y="897.308" fill="#000" font-size="14" textLength="86.659">Public Client</text><text x="109.896" y="913.604" fill="#000" font-size="14" textLength="223.207">(Postman / Browser / API Client)</text></g><g class="participant participant-head" data-qualified-name="Identity" data-entity-uid="part3" id="part3-head" data-source-line="5"><rect x="418.288" y="71" width="123.847" height="46.594" fill="#E2E2F0" style="stroke:#181818;stroke-width:0.5;" rx="2.5" ry="2.5"/><text x="425.288" y="90.995" fill="#000" font-size="14" textLength="109.847">Identity Service</text><text x="461.894" y="107.292" fill="#000" font-size="14" textLength="36.634">(BFF)</text></g><g class="participant participant-tail" data-qualified-name="Identity" data-entity-uid="part3" id="part3-tail" data-source-line="5"><rect x="418.288" y="877.313" width="123.847" height="46.594" fill="#E2E2F0" style="stroke:#181818;stroke-width:0.5;" rx="2.5" ry="2.5"/><text x="425.288" y="897.308" fill="#000" font-size="14" textLength="109.847">Identity Service</text><text x="461.894" y="913.604" fill="#000" font-size="14" textLength="36.634">(BFF)</text></g><g class="participant participant-head" data-qualified-name="Keycloak" data-entity-uid="part4" id="part4-head" data-source-line="6"><rect x="736.867" y="87.297" width="76.918" height="30.297" fill="#E2E2F0" style="stroke:#181818;stroke-width:0.5;" rx="2.5" ry="2.5"/><text x="743.867" y="107.292" fill="#000" font-size="14" textLength="62.918">Keycloak</text></g><g class="participant participant-tail" data-qualified-name="Keycloak" data-entity-uid="part4" id="part4-tail" data-source-line="6"><rect x="736.867" y="877.313" width="76.918" height="30.297" fill="#E2E2F0" style="stroke:#181818;stroke-width:0.5;" rx="2.5" ry="2.5"/><text x="743.867" y="897.308" fill="#000" font-size="14" textLength="62.918">Keycloak</text></g><g class="participant participant-head" data-qualified-name="Gateway" data-entity-uid="part5" id="part5-head" data-source-line="7"><rect x="945.99" y="87.297" width="102.443" height="30.297" fill="#E2E2F0" style="stroke:#181818;stroke-width:0.5;" rx="2.5" ry="2.5"/><text x="952.99" y="107.292" fill="#000" font-size="14" textLength="88.443">API Gateway</text></g><g class="participant participant-tail" data-qualified-name="Gateway" data-entity-uid="part5" id="part5-tail" data-source-line="7"><rect x="945.99" y="877.313" width="102.443" height="30.297" fill="#E2E2F0" style="stroke:#181818;stroke-width:0.5;" rx="2.5" ry="2.5"/><text x="952.99" y="897.308" fill="#000" font-size="14" textLength="88.443">API Gateway</text></g><g class="participant participant-head" data-qualified-name="Service" data-entity-uid="part6" id="part6-head" data-source-line="8"><rect x="1182.653" y="87.297" width="131.927" height="30.297" fill="#E2E2F0" style="stroke:#181818;stroke-width:0.5;" rx="2.5" ry="2.5"/><text x="1189.653" y="107.292" fill="#000" font-size="14" textLength="117.927">Business Service</text></g><g class="participant participant-tail" data-qualified-name="Service" data-entity-uid="part6" id="part6-tail" data-source-line="8"><rect x="1182.653" y="877.313" width="131.927" height="30.297" fill="#E2E2F0" style="stroke:#181818;stroke-width:0.5;" rx="2.5" ry="2.5"/><text x="1189.653" y="897.308" fill="#000" font-size="14" textLength="117.927">Business Service</text></g><g class="message" data-entity-1="part1" data-entity-2="part2" id="msg1" data-source-line="10"><polygon points="209.5,145.727,219.5,149.727,209.5,153.727,213.5,149.727" fill="#181818" style="stroke:#181818;stroke-width:1;stroke-linejoin:miter;stroke-miterlimit:10;"/><line x1="23.955" y1="149.727" x2="215.5" y2="149.727" style="stroke:#181818;stroke-width:1;"/><text x="30.955" y="144.661" fill="#000" font-size="13" textLength="173.545">Continue using application</text></g><g class="message" data-entity-1="part2" data-entity-2="part5" id="msg2" data-source-line="11"><polygon points="985.211,189.992,995.211,193.992,985.211,197.992,989.211,193.992" fill="#181818" style="stroke:#181818;stroke-width:1;stroke-linejoin:miter;stroke-miterlimit:10;"/><line x1="221.5" y1="193.992" x2="991.211" y2="193.992" style="stroke:#181818;stroke-width:1;"/><text x="228.5" y="173.793" fill="#000" font-size="13" textLength="135.859">Business API request</text><text x="228.5" y="188.926" fill="#000" font-size="13" textLength="286.057">Authorization: Bearer expired_access_token</text></g><g class="message" data-entity-1="part5" data-entity-2="part5" id="msg3" data-source-line="12"><line x1="997.211" y1="223.125" x2="1039.211" y2="223.125" style="stroke:#181818;stroke-width:1;"/><line x1="1039.211" y1="223.125" x2="1039.211" y2="236.125" style="stroke:#181818;stroke-width:1;"/><line x1="998.211" y1="236.125" x2="1039.211" y2="236.125" style="stroke:#181818;stroke-width:1;"/><polygon points="1008.211,232.125,998.211,236.125,1008.211,240.125,1004.211,236.125" fill="#181818" style="stroke:#181818;stroke-width:1;stroke-linejoin:miter;stroke-miterlimit:10;"/><text x="1004.211" y="218.059" fill="#000" font-size="13" textLength="82.158">Validate JWT</text></g><g class="message" data-entity-1="part5" data-entity-2="part2" id="msg4" data-source-line="13"><polygon points="232.5,276.391,222.5,280.391,232.5,284.391,228.5,280.391" fill="#181818" style="stroke:#181818;stroke-width:1;stroke-linejoin:miter;stroke-miterlimit:10;"/><line x1="226.5" y1="280.391" x2="996.211" y2="280.391" style="stroke:#181818;stroke-width:1;stroke-dasharray:2,2;"/><text x="238.5" y="260.192" fill="#000" font-size="13" textLength="116.226">401 Unauthorized</text><text x="238.5" y="275.325" fill="#000" font-size="13" textLength="138.963">Access token expired</text></g><g class="message" data-entity-1="part2" data-entity-2="part3" id="msg5" data-source-line="15"><polygon points="468.211,320.656,478.211,324.656,468.211,328.656,472.211,324.656" fill="#181818" style="stroke:#181818;stroke-width:1;stroke-linejoin:miter;stroke-miterlimit:10;"/><line x1="221.5" y1="324.656" x2="474.211" y2="324.656" style="stroke:#181818;stroke-width:1;"/><text x="228.5" y="304.458" fill="#000" font-size="13" textLength="208.438">POST /api/identity/token/refresh</text><text x="228.5" y="319.59" fill="#000" font-size="13" textLength="213.376">(refresh token or session cookie)</text></g><g class="message" data-entity-1="part3" data-entity-2="part3" id="msg6" data-source-line="16"><line x1="480.211" y1="353.789" x2="522.211" y2="353.789" style="stroke:#181818;stroke-width:1;"/><line x1="522.211" y1="353.789" x2="522.211" y2="366.789" style="stroke:#181818;stroke-width:1;"/><line x1="481.211" y1="366.789" x2="522.211" y2="366.789" style="stroke:#181818;stroke-width:1;"/><polygon points="491.211,362.789,481.211,366.789,491.211,370.789,487.211,366.789" fill="#181818" style="stroke:#181818;stroke-width:1;stroke-linejoin:miter;stroke-miterlimit:10;"/><text x="487.211" y="348.723" fill="#000" font-size="13" textLength="199.094">Validate client/session context</text></g><g class="message" data-entity-1="part3" data-entity-2="part4" id="msg7" data-source-line="17"><polygon points="763.326,422.188,773.326,426.188,763.326,430.188,767.326,426.188" fill="#181818" style="stroke:#181818;stroke-width:1;stroke-linejoin:miter;stroke-miterlimit:10;"/><line x1="480.211" y1="426.188" x2="769.326" y2="426.188" style="stroke:#181818;stroke-width:1;"/><text x="487.211" y="390.856" fill="#000" font-size="13" textLength="242.487">POST /protocol/openid-connect/token</text><text x="487.211" y="405.989" fill="#000" font-size="13" textLength="180.127">(grant_type=refresh_token,</text><text x="487.211" y="421.122" fill="#000" font-size="13" textLength="271.115">refresh_token=..., client_id, client_secret)</text></g><g class="message" data-entity-1="part4" data-entity-2="part4" id="msg8" data-source-line="18"><line x1="775.326" y1="470.453" x2="817.326" y2="470.453" style="stroke:#181818;stroke-width:1;"/><line x1="817.326" y1="470.453" x2="817.326" y2="483.453" style="stroke:#181818;stroke-width:1;"/><line x1="776.326" y1="483.453" x2="817.326" y2="483.453" style="stroke:#181818;stroke-width:1;"/><polygon points="786.326,479.453,776.326,483.453,786.326,487.453,782.326,483.453" fill="#181818" style="stroke:#181818;stroke-width:1;stroke-linejoin:miter;stroke-miterlimit:10;"/><text x="782.326" y="450.254" fill="#000" font-size="13" textLength="144.752">Validate refresh token</text><text x="782.326" y="465.387" fill="#000" font-size="13" textLength="207.886">Apply rotation/revocation policy</text></g><g class="message" data-entity-1="part4" data-entity-2="part3" id="msg9" data-source-line="19"><polygon points="491.211,523.719,481.211,527.719,491.211,531.719,487.211,527.719" fill="#181818" style="stroke:#181818;stroke-width:1;stroke-linejoin:miter;stroke-miterlimit:10;"/><line x1="485.211" y1="527.719" x2="774.326" y2="527.719" style="stroke:#181818;stroke-width:1;stroke-dasharray:2,2;"/><text x="497.211" y="507.52" fill="#000" font-size="13" textLength="118.124">new access_token</text><text x="497.211" y="522.653" fill="#000" font-size="13" textLength="177.411">optional new refresh_token</text></g><g class="message" data-entity-1="part3" data-entity-2="part3" id="msg10" data-source-line="20"><line x1="480.211" y1="571.984" x2="522.211" y2="571.984" style="stroke:#181818;stroke-width:1;"/><line x1="522.211" y1="571.984" x2="522.211" y2="584.984" style="stroke:#181818;stroke-width:1;"/><line x1="481.211" y1="584.984" x2="522.211" y2="584.984" style="stroke:#181818;stroke-width:1;"/><polygon points="491.211,580.984,481.211,584.984,491.211,588.984,487.211,584.984" fill="#181818" style="stroke:#181818;stroke-width:1;stroke-linejoin:miter;stroke-miterlimit:10;"/><text x="487.211" y="551.786" fill="#000" font-size="13" textLength="188.913">Replace stored refresh token</text><text x="487.211" y="566.918" fill="#000" font-size="13" textLength="134.551">if rotation is enabled</text></g><g class="message" data-entity-1="part3" data-entity-2="part2" id="msg11" data-source-line="21"><polygon points="232.5,625.25,222.5,629.25,232.5,633.25,228.5,629.25" fill="#181818" style="stroke:#181818;stroke-width:1;stroke-linejoin:miter;stroke-miterlimit:10;"/><line x1="226.5" y1="629.25" x2="479.211" y2="629.25" style="stroke:#181818;stroke-width:1;stroke-dasharray:2,2;"/><text x="238.5" y="609.051" fill="#000" font-size="13" textLength="91.159">Refresh result</text><text x="238.5" y="624.184" fill="#000" font-size="13" textLength="234.711">new access token / updated session</text></g><g class="message" data-entity-1="part2" data-entity-2="part5" id="msg12" data-source-line="23"><polygon points="985.211,669.516,995.211,673.516,985.211,677.516,989.211,673.516" fill="#181818" style="stroke:#181818;stroke-width:1;stroke-linejoin:miter;stroke-miterlimit:10;"/><line x1="221.5" y1="673.516" x2="991.211" y2="673.516" style="stroke:#181818;stroke-width:1;"/><text x="228.5" y="653.317" fill="#000" font-size="13" textLength="174.491">Retry business API request</text><text x="228.5" y="668.45" fill="#000" font-size="13" textLength="263.777">Authorization: Bearer new_access_token</text></g><g class="message" data-entity-1="part5" data-entity-2="part5" id="msg13" data-source-line="24"><line x1="997.211" y1="702.648" x2="1039.211" y2="702.648" style="stroke:#181818;stroke-width:1;"/><line x1="1039.211" y1="702.648" x2="1039.211" y2="715.648" style="stroke:#181818;stroke-width:1;"/><line x1="998.211" y1="715.648" x2="1039.211" y2="715.648" style="stroke:#181818;stroke-width:1;"/><polygon points="1008.211,711.648,998.211,715.648,1008.211,719.648,1004.211,715.648" fill="#181818" style="stroke:#181818;stroke-width:1;stroke-linejoin:miter;stroke-miterlimit:10;"/><text x="1004.211" y="697.583" fill="#000" font-size="13" textLength="208.813">Validate JWT signature via JWKS</text></g><g class="message" data-entity-1="part5" data-entity-2="part6" id="msg14" data-source-line="25"><polygon points="1236.616,740.781,1246.616,744.781,1236.616,748.781,1240.616,744.781" fill="#181818" style="stroke:#181818;stroke-width:1;stroke-linejoin:miter;stroke-miterlimit:10;"/><line x1="997.211" y1="744.781" x2="1242.616" y2="744.781" style="stroke:#181818;stroke-width:1;"/><text x="1004.211" y="739.715" fill="#000" font-size="13" textLength="227.405">Forward request with access token</text></g><g class="message" data-entity-1="part6" data-entity-2="part6" id="msg15" data-source-line="26"><line x1="1248.616" y1="789.047" x2="1290.616" y2="789.047" style="stroke:#181818;stroke-width:1;"/><line x1="1290.616" y1="789.047" x2="1290.616" y2="802.047" style="stroke:#181818;stroke-width:1;"/><line x1="1249.616" y1="802.047" x2="1290.616" y2="802.047" style="stroke:#181818;stroke-width:1;"/><polygon points="1259.616,798.047,1249.616,802.047,1259.616,806.047,1255.616,802.047" fill="#181818" style="stroke:#181818;stroke-width:1;stroke-linejoin:miter;stroke-miterlimit:10;"/><text x="1255.616" y="768.848" fill="#000" font-size="13" textLength="127.886">Validate JWT locally</text><text x="1255.616" y="783.981" fill="#000" font-size="13" textLength="200.542">Enforce business authorization</text></g><g class="message" data-entity-1="part6" data-entity-2="part5" id="msg16" data-source-line="27"><polygon points="1008.211,827.18,998.211,831.18,1008.211,835.18,1004.211,831.18" fill="#181818" style="stroke:#181818;stroke-width:1;stroke-linejoin:miter;stroke-miterlimit:10;"/><line x1="1002.211" y1="831.18" x2="1247.616" y2="831.18" style="stroke:#181818;stroke-width:1;stroke-dasharray:2,2;"/><text x="1014.211" y="826.114" fill="#000" font-size="13" textLength="63.02">Response</text></g><g class="message" data-entity-1="part5" data-entity-2="part2" id="msg17" data-source-line="28"><polygon points="232.5,856.313,222.5,860.313,232.5,864.313,228.5,860.313" fill="#181818" style="stroke:#181818;stroke-width:1;stroke-linejoin:miter;stroke-miterlimit:10;"/><line x1="226.5" y1="860.313" x2="996.211" y2="860.313" style="stroke:#181818;stroke-width:1;stroke-dasharray:2,2;"/><text x="238.5" y="855.247" fill="#000" font-size="13" textLength="63.02">Response</text></g><?plantuml-src bLFDQzim5B_xhtZqj40JRx1Je8EcBAFhOI59jqiWAF9B8g99cYJ7zVxwFTkIRPNkq8kHxT_N-v0NNYAiyMZHdM6hBwXWANK5q-7ZsUhoT8R70fKNleODsglWc6MCUstXsQ7D3BDUS66Oyd2pAWzIS7YGWXWxzM6bdV_D5EImiBeYE9tkLuy1CBa1vi8vrNdjI5ABvRB3ntyfumbhBZMxj93uaa8Qus_COyNg5XNEAMXHEg7GkUZS8lkwcufX-YLadiE3fYYgH6XO9s36KFdC2wso3jA0WyySUkqcYSK_9JfgqdtfpzgAlosDGCWicU2B4HQBFUES67lVp2SBIedeJoP5GI_m_TTs08moVlxu2PuL2ovOa6Eh2QrcDCf6WME7vx3wiTb2pep8HVYMjwpSTYj2Smcde4PRuKYRAW6kzKNW9EjdcIZtiNbhcmyivV759wmupfZ7MEqrrpBN1fKefiHHo7qNZIATB8roxsk3To5Trx_RdKhUxsQpsMq8i1T5VtJ8BVf95dtJ37tof7BgAWs_1ehM3f8wTDNTAe3Hj1NrI2xfXC8AnbFUAMqQ6fFjhoJnVvgvHYCPHt1qAx5u7KmS-rGW7A1Y1qa37wH6onAlFZrAISivX0i3pg4qJVL5d7FsrgQlqTiQ3k_OTp9wtww34oV5V6aHheBHbwVDc1Ekx1oMsbRC5j4VAk7FIKbPW2Qin4dI8AMiT-ghEcfBoBumDgvb44fRuOnM3j-yc_7dFm00?></g></svg>