<svg xmlns="http://www.w3.org/2000/svg" width="928" height="772" viewBox="0 0 928 772" role="img" aria-labelledby="title desc">
<title>Rental Request Service Database Schema</title>
<desc>Entity relationship diagram for Rental Request Service Database Schema.</desc>
<defs>
<filter id="shadow" x="-8%" y="-8%" width="116%" height="124%"><feDropShadow dx="0" dy="8" stdDeviation="8" flood-color="#0f172a" flood-opacity=".10"/></filter>
<marker id="arrow" markerWidth="12" markerHeight="12" refX="10" refY="6" orient="auto"><path d="M2,2 L10,6 L2,10" fill="none" stroke="#64748b" stroke-width="1.8" stroke-linecap="round" stroke-linejoin="round"/></marker>
</defs>
<rect width="100%" height="100%" fill="#ffffff"/>
<rect x="18" y="18" width="892" height="736" rx="18" fill="#f8fafc" stroke="#e2e8f0"/>
<text x="40" y="56" font-family="Inter, Segoe UI, Arial, sans-serif" font-size="22" font-weight="700" fill="#0f172a">Rental Request Service Database Schema</text>
<path d="M 415.0 400 C 415.0 435.0, 210.0 435.0, 210.0 470" fill="none" stroke="#64748b" stroke-width="2.2" marker-end="url(#arrow)"/>
<text x="312.5" y="399.0" text-anchor="middle" font-family="Inter, Segoe UI, Arial, sans-serif" font-size="12" font-weight="700" fill="#475569">1:N</text>
<path d="M 415.0 400 C 415.0 435.0, 750.0 435.0, 750.0 470" fill="none" stroke="#64748b" stroke-width="2.2" marker-end="url(#arrow)"/>
<text x="582.5" y="413.0" text-anchor="middle" font-family="Inter, Segoe UI, Arial, sans-serif" font-size="12" font-weight="700" fill="#475569">1:N</text>
<g filter="url(#shadow)">
<rect x="285" y="90" width="260" height="310" rx="10" fill="#ffffff" stroke="#cbd5e1"/>
<rect x="285" y="90" width="260" height="44" rx="10" fill="#dc2626"/>
<path d="M 285 124 H 545 V 134 H 285 Z" fill="#dc2626"/>
<text x="303" y="119" font-family="Inter, Segoe UI, Arial, sans-serif" font-size="16" font-weight="700" fill="#ffffff">rental_requests</text>
<rect x="299" y="138" width="232" height="24" rx="6" fill="#fef2f2"/>
<text x="309" y="156" font-family="Inter, Segoe UI, Arial, sans-serif" font-size="10" font-weight="800" fill="#dc2626">PK</text>
<text x="341" y="156" font-family="Inter, Segoe UI, Arial, sans-serif" font-size="13" font-weight="600" fill="#0f172a">id</text>
<text x="527" y="156" text-anchor="end" font-family="Inter, Segoe UI, Arial, sans-serif" font-size="12" fill="#64748b">uuid</text>
<rect x="299" y="166" width="232" height="24" rx="6" fill="#ffffff"/>
<text x="309" y="184" font-family="Inter, Segoe UI, Arial, sans-serif" font-size="10" font-weight="800" fill="#dc2626">FK</text>
<text x="341" y="184" font-family="Inter, Segoe UI, Arial, sans-serif" font-size="13" font-weight="600" fill="#0f172a">listing_id</text>
<text x="527" y="184" text-anchor="end" font-family="Inter, Segoe UI, Arial, sans-serif" font-size="12" fill="#64748b">uuid</text>
<rect x="299" y="194" width="232" height="24" rx="6" fill="#ffffff"/>
<text x="309" y="212" font-family="Inter, Segoe UI, Arial, sans-serif" font-size="10" font-weight="800" fill="#dc2626">FK</text>
<text x="341" y="212" font-family="Inter, Segoe UI, Arial, sans-serif" font-size="13" font-weight="600" fill="#0f172a">tenant_profile_id</text>
<text x="527" y="212" text-anchor="end" font-family="Inter, Segoe UI, Arial, sans-serif" font-size="12" fill="#64748b">uuid</text>
<rect x="299" y="222" width="232" height="24" rx="6" fill="#ffffff"/>
<text x="309" y="240" font-family="Inter, Segoe UI, Arial, sans-serif" font-size="10" font-weight="800" fill="#dc2626">FK</text>
<text x="341" y="240" font-family="Inter, Segoe UI, Arial, sans-serif" font-size="13" font-weight="600" fill="#0f172a">landlord_profile_id</text>
<text x="527" y="240" text-anchor="end" font-family="Inter, Segoe UI, Arial, sans-serif" font-size="12" fill="#64748b">uuid</text>
<rect x="299" y="250" width="232" height="24" rx="6" fill="#ffffff"/>
<text x="341" y="268" font-family="Inter, Segoe UI, Arial, sans-serif" font-size="13" font-weight="600" fill="#0f172a">status</text>
<text x="527" y="268" text-anchor="end" font-family="Inter, Segoe UI, Arial, sans-serif" font-size="12" fill="#64748b">varchar(32)</text>
<rect x="299" y="278" width="232" height="24" rx="6" fill="#ffffff"/>
<text x="341" y="296" font-family="Inter, Segoe UI, Arial, sans-serif" font-size="13" font-weight="600" fill="#0f172a">initial_message</text>
<text x="527" y="296" text-anchor="end" font-family="Inter, Segoe UI, Arial, sans-serif" font-size="12" fill="#64748b">text</text>
<rect x="299" y="306" width="232" height="24" rx="6" fill="#ffffff"/>
<text x="341" y="324" font-family="Inter, Segoe UI, Arial, sans-serif" font-size="13" font-weight="600" fill="#0f172a">version</text>
<text x="527" y="324" text-anchor="end" font-family="Inter, Segoe UI, Arial, sans-serif" font-size="12" fill="#64748b">bigint</text>
<rect x="299" y="334" width="232" height="24" rx="6" fill="#ffffff"/>
<text x="341" y="352" font-family="Inter, Segoe UI, Arial, sans-serif" font-size="13" font-weight="600" fill="#0f172a">created_at</text>
<text x="527" y="352" text-anchor="end" font-family="Inter, Segoe UI, Arial, sans-serif" font-size="12" fill="#64748b">timestamptz</text>
<rect x="299" y="362" width="232" height="24" rx="6" fill="#ffffff"/>
<text x="341" y="380" font-family="Inter, Segoe UI, Arial, sans-serif" font-size="13" font-weight="600" fill="#0f172a">updated_at</text>
<text x="527" y="380" text-anchor="end" font-family="Inter, Segoe UI, Arial, sans-serif" font-size="12" fill="#64748b">timestamptz</text>
</g>
<g filter="url(#shadow)">
<rect x="80" y="470" width="260" height="198" rx="10" fill="#ffffff" stroke="#cbd5e1"/>
<rect x="80" y="470" width="260" height="44" rx="10" fill="#dc2626"/>
<path d="M 80 504 H 340 V 514 H 80 Z" fill="#dc2626"/>
<text x="98" y="499" font-family="Inter, Segoe UI, Arial, sans-serif" font-size="16" font-weight="700" fill="#ffffff">request_messages</text>
<rect x="94" y="518" width="232" height="24" rx="6" fill="#fef2f2"/>
<text x="104" y="536" font-family="Inter, Segoe UI, Arial, sans-serif" font-size="10" font-weight="800" fill="#dc2626">PK</text>
<text x="136" y="536" font-family="Inter, Segoe UI, Arial, sans-serif" font-size="13" font-weight="600" fill="#0f172a">id</text>
<text x="322" y="536" text-anchor="end" font-family="Inter, Segoe UI, Arial, sans-serif" font-size="12" fill="#64748b">uuid</text>
<rect x="94" y="546" width="232" height="24" rx="6" fill="#ffffff"/>
<text x="104" y="564" font-family="Inter, Segoe UI, Arial, sans-serif" font-size="10" font-weight="800" fill="#dc2626">FK</text>
<text x="136" y="564" font-family="Inter, Segoe UI, Arial, sans-serif" font-size="13" font-weight="600" fill="#0f172a">request_id</text>
<text x="322" y="564" text-anchor="end" font-family="Inter, Segoe UI, Arial, sans-serif" font-size="12" fill="#64748b">uuid</text>
<rect x="94" y="574" width="232" height="24" rx="6" fill="#ffffff"/>
<text x="104" y="592" font-family="Inter, Segoe UI, Arial, sans-serif" font-size="10" font-weight="800" fill="#dc2626">FK</text>
<text x="136" y="592" font-family="Inter, Segoe UI, Arial, sans-serif" font-size="13" font-weight="600" fill="#0f172a">sender_profile_id</text>
<text x="322" y="592" text-anchor="end" font-family="Inter, Segoe UI, Arial, sans-serif" font-size="12" fill="#64748b">uuid</text>
<rect x="94" y="602" width="232" height="24" rx="6" fill="#ffffff"/>
<text x="136" y="620" font-family="Inter, Segoe UI, Arial, sans-serif" font-size="13" font-weight="600" fill="#0f172a">body</text>
<text x="322" y="620" text-anchor="end" font-family="Inter, Segoe UI, Arial, sans-serif" font-size="12" fill="#64748b">text</text>
<rect x="94" y="630" width="232" height="24" rx="6" fill="#ffffff"/>
<text x="136" y="648" font-family="Inter, Segoe UI, Arial, sans-serif" font-size="13" font-weight="600" fill="#0f172a">created_at</text>
<text x="322" y="648" text-anchor="end" font-family="Inter, Segoe UI, Arial, sans-serif" font-size="12" fill="#64748b">timestamptz</text>
</g>
<g filter="url(#shadow)">
<rect x="620" y="470" width="260" height="254" rx="10" fill="#ffffff" stroke="#cbd5e1"/>
<rect x="620" y="470" width="260" height="44" rx="10" fill="#dc2626"/>
<path d="M 620 504 H 880 V 514 H 620 Z" fill="#dc2626"/>
<text x="638" y="499" font-family="Inter, Segoe UI, Arial, sans-serif" font-size="16" font-weight="700" fill="#ffffff">viewings</text>
<rect x="634" y="518" width="232" height="24" rx="6" fill="#fef2f2"/>
<text x="644" y="536" font-family="Inter, Segoe UI, Arial, sans-serif" font-size="10" font-weight="800" fill="#dc2626">PK</text>
<text x="676" y="536" font-family="Inter, Segoe UI, Arial, sans-serif" font-size="13" font-weight="600" fill="#0f172a">id</text>
<text x="862" y="536" text-anchor="end" font-family="Inter, Segoe UI, Arial, sans-serif" font-size="12" fill="#64748b">uuid</text>
<rect x="634" y="546" width="232" height="24" rx="6" fill="#ffffff"/>
<text x="644" y="564" font-family="Inter, Segoe UI, Arial, sans-serif" font-size="10" font-weight="800" fill="#dc2626">FK</text>
<text x="676" y="564" font-family="Inter, Segoe UI, Arial, sans-serif" font-size="13" font-weight="600" fill="#0f172a">request_id</text>
<text x="862" y="564" text-anchor="end" font-family="Inter, Segoe UI, Arial, sans-serif" font-size="12" fill="#64748b">uuid</text>
<rect x="634" y="574" width="232" height="24" rx="6" fill="#ffffff"/>
<text x="676" y="592" font-family="Inter, Segoe UI, Arial, sans-serif" font-size="13" font-weight="600" fill="#0f172a">starts_at</text>
<text x="862" y="592" text-anchor="end" font-family="Inter, Segoe UI, Arial, sans-serif" font-size="12" fill="#64748b">timestamptz</text>
<rect x="634" y="602" width="232" height="24" rx="6" fill="#ffffff"/>
<text x="676" y="620" font-family="Inter, Segoe UI, Arial, sans-serif" font-size="13" font-weight="600" fill="#0f172a">ends_at</text>
<text x="862" y="620" text-anchor="end" font-family="Inter, Segoe UI, Arial, sans-serif" font-size="12" fill="#64748b">timestamptz</text>
<rect x="634" y="630" width="232" height="24" rx="6" fill="#ffffff"/>
<text x="676" y="648" font-family="Inter, Segoe UI, Arial, sans-serif" font-size="13" font-weight="600" fill="#0f172a">status</text>
<text x="862" y="648" text-anchor="end" font-family="Inter, Segoe UI, Arial, sans-serif" font-size="12" fill="#64748b">varchar(32)</text>
<rect x="634" y="658" width="232" height="24" rx="6" fill="#ffffff"/>
<text x="676" y="676" font-family="Inter, Segoe UI, Arial, sans-serif" font-size="13" font-weight="600" fill="#0f172a">created_at</text>
<text x="862" y="676" text-anchor="end" font-family="Inter, Segoe UI, Arial, sans-serif" font-size="12" fill="#64748b">timestamptz</text>
<rect x="634" y="686" width="232" height="24" rx="6" fill="#ffffff"/>
<text x="676" y="704" font-family="Inter, Segoe UI, Arial, sans-serif" font-size="13" font-weight="600" fill="#0f172a">updated_at</text>
<text x="862" y="704" text-anchor="end" font-family="Inter, Segoe UI, Arial, sans-serif" font-size="12" fill="#64748b">timestamptz</text>
</g>
</svg>
