<svg xmlns="http://www.w3.org/2000/svg" xmlns:xlink="http://www.w3.org/1999/xlink" width="929pt" height="795pt" viewBox="0.00 0.00 929.00 795.00">
<g id="graph0" class="graph" transform="scale(2.77778 2.77778) rotate(0) translate(4 282.2)">
<title>G</title>
<polygon fill="white" stroke="none" points="-4,4 -4,-282.2 330.42,-282.2 330.42,4 -4,4"/>
<!-- listing_documents -->
<g id="node1" class="node">
<title>listing_documents</title>
<polygon fill="none" stroke="black" points="0,-110.5 0,-277.7 160.64,-277.7 160.64,-110.5 0,-110.5"/>
<text xml:space="preserve" text-anchor="middle" x="80.32" y="-261.1" font-family="Times,serif" font-size="14.00">listing_documents</text>
<polyline fill="none" stroke="black" points="0,-252.9 160.64,-252.9"/>
<text xml:space="preserve" text-anchor="start" x="8" y="-236.3" font-family="Times,serif" font-size="14.00">listing_id : uuid</text>
<text xml:space="preserve" text-anchor="start" x="8" y="-219.5" font-family="Times,serif" font-size="14.00">landlord_profile_id : uuid</text>
<text xml:space="preserve" text-anchor="start" x="8" y="-202.7" font-family="Times,serif" font-size="14.00">title : text</text>
<text xml:space="preserve" text-anchor="start" x="8" y="-185.9" font-family="Times,serif" font-size="14.00">city : keyword</text>
<text xml:space="preserve" text-anchor="start" x="8" y="-169.1" font-family="Times,serif" font-size="14.00">price_amount : numeric</text>
<text xml:space="preserve" text-anchor="start" x="8" y="-152.3" font-family="Times,serif" font-size="14.00">rooms : int</text>
<text xml:space="preserve" text-anchor="start" x="8" y="-135.5" font-family="Times,serif" font-size="14.00">status : keyword</text>
<text xml:space="preserve" text-anchor="start" x="8" y="-118.7" font-family="Times,serif" font-size="14.00">updated_at : date</text>
</g>
<!-- opensearch -->
<g id="node3" class="node">
<title>opensearch</title>
<path fill="none" stroke="black" d="M208.53,-52C208.53,-54.87 189.61,-57.2 166.32,-57.2 143.03,-57.2 124.11,-54.87 124.11,-52 124.11,-52 124.11,-5.2 124.11,-5.2 124.11,-2.33 143.03,0 166.32,0 189.61,0 208.53,-2.33 208.53,-5.2 208.53,-5.2 208.53,-52 208.53,-52"/>
<path fill="none" stroke="black" d="M208.53,-52C208.53,-49.13 189.61,-46.8 166.32,-46.8 143.03,-46.8 124.11,-49.13 124.11,-52"/>
<text xml:space="preserve" text-anchor="middle" x="166.32" y="-32.8" font-family="Times,serif" font-size="14.00">OpenSearch</text>
<text xml:space="preserve" text-anchor="middle" x="166.32" y="-16" font-family="Times,serif" font-size="14.00">index</text>
</g>
<!-- listing_documents&#45;&gt;opensearch -->
<g id="edge1" class="edge">
<title>listing_documents-&gt;opensearch</title>
<path fill="none" stroke="black" d="M123.82,-110.39C131.71,-95.39 139.58,-80.44 146.36,-67.54"/>
<polygon fill="black" stroke="black" points="149.29,-69.5 150.84,-59.02 143.09,-66.24 149.29,-69.5"/>
<text xml:space="preserve" text-anchor="middle" x="165.21" y="-79.4" font-family="Times,serif" font-size="14.00">stored in</text>
</g>
<!-- saved_searches -->
<g id="node2" class="node">
<title>saved_searches</title>
<polygon fill="none" stroke="black" points="178.22,-135.7 178.22,-252.5 326.42,-252.5 326.42,-135.7 178.22,-135.7"/>
<text xml:space="preserve" text-anchor="middle" x="252.32" y="-235.9" font-family="Times,serif" font-size="14.00">saved_searches</text>
<polyline fill="none" stroke="black" points="178.22,-227.7 326.42,-227.7"/>
<text xml:space="preserve" text-anchor="start" x="186.22" y="-211.1" font-family="Times,serif" font-size="14.00">id : uuid PK</text>
<text xml:space="preserve" text-anchor="start" x="186.22" y="-194.3" font-family="Times,serif" font-size="14.00">tenant_profile_id : uuid</text>
<text xml:space="preserve" text-anchor="start" x="186.22" y="-177.5" font-family="Times,serif" font-size="14.00">name : varchar(120)</text>
<text xml:space="preserve" text-anchor="start" x="186.22" y="-160.7" font-family="Times,serif" font-size="14.00">query : json</text>
<text xml:space="preserve" text-anchor="start" x="186.22" y="-143.9" font-family="Times,serif" font-size="14.00">created_at : date</text>
</g>
<!-- saved_searches&#45;&gt;opensearch -->
<g id="edge2" class="edge">
<title>saved_searches-&gt;opensearch</title>
<path fill="none" stroke="black" d="M224.47,-135.41C214.88,-116.12 203.9,-94.59 193.32,-75.2 191.88,-72.56 190.37,-69.86 188.83,-67.15"/>
<polygon fill="black" stroke="black" points="191.99,-65.61 183.96,-58.71 185.93,-69.12 191.99,-65.61"/>
<text xml:space="preserve" text-anchor="middle" x="224.73" y="-79.4" font-family="Times,serif" font-size="14.00">optional</text>
</g>
</g>
</svg>