<svg xmlns="http://www.w3.org/2000/svg" width="868" height="686" viewBox="0 0 868 686" role="img" aria-labelledby="title desc">
<title>Search Service Database Schema</title>
<desc>Entity relationship diagram for Search Service Database Schema.</desc>
<defs>
<filter id="shadow" x="-8%" y="-8%" width="116%" height="124%"><feDropShadow dx="0" dy="8" stdDeviation="8" flood-color="#0f172a" flood-opacity=".10"/></filter>
<marker id="arrow" markerWidth="12" markerHeight="12" refX="10" refY="6" orient="auto"><path d="M2,2 L10,6 L2,10" fill="none" stroke="#64748b" stroke-width="1.8" stroke-linecap="round" stroke-linejoin="round"/></marker>
</defs>
<rect width="100%" height="100%" fill="#ffffff"/>
<rect x="18" y="18" width="832" height="650" rx="18" fill="#f8fafc" stroke="#e2e8f0"/>
<text x="40" y="56" font-family="Inter, Segoe UI, Arial, sans-serif" font-size="22" font-weight="700" fill="#0f172a">Search Service Database Schema</text>
<g filter="url(#shadow)">
<rect x="80" y="90" width="260" height="506" rx="10" fill="#ffffff" stroke="#cbd5e1"/>
<rect x="80" y="90" width="260" height="44" rx="10" fill="#ca8a04"/>
<path d="M 80 124 H 340 V 134 H 80 Z" fill="#ca8a04"/>
<text x="98" y="119" font-family="Inter, Segoe UI, Arial, sans-serif" font-size="16" font-weight="700" fill="#ffffff">listing_search_documents</text>
<rect x="94" y="138" width="232" height="24" rx="6" fill="#fefce8"/>
<text x="104" y="156" font-family="Inter, Segoe UI, Arial, sans-serif" font-size="10" font-weight="800" fill="#ca8a04">PK</text>
<text x="136" y="156" font-family="Inter, Segoe UI, Arial, sans-serif" font-size="13" font-weight="600" fill="#0f172a">listing_id</text>
<text x="322" y="156" text-anchor="end" font-family="Inter, Segoe UI, Arial, sans-serif" font-size="12" fill="#64748b">uuid</text>
<rect x="94" y="166" width="232" height="24" rx="6" fill="#ffffff"/>
<text x="136" y="184" font-family="Inter, Segoe UI, Arial, sans-serif" font-size="13" font-weight="600" fill="#0f172a">listing_version</text>
<text x="322" y="184" text-anchor="end" font-family="Inter, Segoe UI, Arial, sans-serif" font-size="12" fill="#64748b">bigint</text>
<rect x="94" y="194" width="232" height="24" rx="6" fill="#ffffff"/>
<text x="136" y="212" font-family="Inter, Segoe UI, Arial, sans-serif" font-size="13" font-weight="600" fill="#0f172a">title</text>
<text x="322" y="212" text-anchor="end" font-family="Inter, Segoe UI, Arial, sans-serif" font-size="12" fill="#64748b">text</text>
<rect x="94" y="222" width="232" height="24" rx="6" fill="#ffffff"/>
<text x="136" y="240" font-family="Inter, Segoe UI, Arial, sans-serif" font-size="13" font-weight="600" fill="#0f172a">city</text>
<text x="322" y="240" text-anchor="end" font-family="Inter, Segoe UI, Arial, sans-serif" font-size="12" fill="#64748b">keyword</text>
<rect x="94" y="250" width="232" height="24" rx="6" fill="#ffffff"/>
<text x="136" y="268" font-family="Inter, Segoe UI, Arial, sans-serif" font-size="13" font-weight="600" fill="#0f172a">district</text>
<text x="322" y="268" text-anchor="end" font-family="Inter, Segoe UI, Arial, sans-serif" font-size="12" fill="#64748b">keyword</text>
<rect x="94" y="278" width="232" height="24" rx="6" fill="#ffffff"/>
<text x="136" y="296" font-family="Inter, Segoe UI, Arial, sans-serif" font-size="13" font-weight="600" fill="#0f172a">location</text>
<text x="322" y="296" text-anchor="end" font-family="Inter, Segoe UI, Arial, sans-serif" font-size="12" fill="#64748b">geo_point</text>
<rect x="94" y="306" width="232" height="24" rx="6" fill="#ffffff"/>
<text x="136" y="324" font-family="Inter, Segoe UI, Arial, sans-serif" font-size="13" font-weight="600" fill="#0f172a">property_type</text>
<text x="322" y="324" text-anchor="end" font-family="Inter, Segoe UI, Arial, sans-serif" font-size="12" fill="#64748b">keyword</text>
<rect x="94" y="334" width="232" height="24" rx="6" fill="#ffffff"/>
<text x="136" y="352" font-family="Inter, Segoe UI, Arial, sans-serif" font-size="13" font-weight="600" fill="#0f172a">deal_type</text>
<text x="322" y="352" text-anchor="end" font-family="Inter, Segoe UI, Arial, sans-serif" font-size="12" fill="#64748b">keyword</text>
<rect x="94" y="362" width="232" height="24" rx="6" fill="#ffffff"/>
<text x="136" y="380" font-family="Inter, Segoe UI, Arial, sans-serif" font-size="13" font-weight="600" fill="#0f172a">price_amount</text>
<text x="322" y="380" text-anchor="end" font-family="Inter, Segoe UI, Arial, sans-serif" font-size="12" fill="#64748b">decimal</text>
<rect x="94" y="390" width="232" height="24" rx="6" fill="#ffffff"/>
<text x="136" y="408" font-family="Inter, Segoe UI, Arial, sans-serif" font-size="13" font-weight="600" fill="#0f172a">price_currency</text>
<text x="322" y="408" text-anchor="end" font-family="Inter, Segoe UI, Arial, sans-serif" font-size="12" fill="#64748b">keyword</text>
<rect x="94" y="418" width="232" height="24" rx="6" fill="#ffffff"/>
<text x="136" y="436" font-family="Inter, Segoe UI, Arial, sans-serif" font-size="13" font-weight="600" fill="#0f172a">rooms</text>
<text x="322" y="436" text-anchor="end" font-family="Inter, Segoe UI, Arial, sans-serif" font-size="12" fill="#64748b">integer</text>
<rect x="94" y="446" width="232" height="24" rx="6" fill="#ffffff"/>
<text x="136" y="464" font-family="Inter, Segoe UI, Arial, sans-serif" font-size="13" font-weight="600" fill="#0f172a">total_area</text>
<text x="322" y="464" text-anchor="end" font-family="Inter, Segoe UI, Arial, sans-serif" font-size="12" fill="#64748b">decimal</text>
<rect x="94" y="474" width="232" height="24" rx="6" fill="#ffffff"/>
<text x="136" y="492" font-family="Inter, Segoe UI, Arial, sans-serif" font-size="13" font-weight="600" fill="#0f172a">media</text>
<text x="322" y="492" text-anchor="end" font-family="Inter, Segoe UI, Arial, sans-serif" font-size="12" fill="#64748b">nested</text>
<rect x="94" y="502" width="232" height="24" rx="6" fill="#ffffff"/>
<text x="136" y="520" font-family="Inter, Segoe UI, Arial, sans-serif" font-size="13" font-weight="600" fill="#0f172a">status</text>
<text x="322" y="520" text-anchor="end" font-family="Inter, Segoe UI, Arial, sans-serif" font-size="12" fill="#64748b">keyword</text>
<rect x="94" y="530" width="232" height="24" rx="6" fill="#ffffff"/>
<text x="136" y="548" font-family="Inter, Segoe UI, Arial, sans-serif" font-size="13" font-weight="600" fill="#0f172a">published_at</text>
<text x="322" y="548" text-anchor="end" font-family="Inter, Segoe UI, Arial, sans-serif" font-size="12" fill="#64748b">timestamp</text>
<rect x="94" y="558" width="232" height="24" rx="6" fill="#ffffff"/>
<text x="136" y="576" font-family="Inter, Segoe UI, Arial, sans-serif" font-size="13" font-weight="600" fill="#0f172a">updated_at</text>
<text x="322" y="576" text-anchor="end" font-family="Inter, Segoe UI, Arial, sans-serif" font-size="12" fill="#64748b">timestamp</text>
</g>
<g filter="url(#shadow)">
<rect x="560" y="150" width="260" height="198" rx="10" fill="#ffffff" stroke="#cbd5e1"/>
<rect x="560" y="150" width="260" height="44" rx="10" fill="#ca8a04"/>
<path d="M 560 184 H 820 V 194 H 560 Z" fill="#ca8a04"/>
<text x="578" y="179" font-family="Inter, Segoe UI, Arial, sans-serif" font-size="16" font-weight="700" fill="#ffffff">saved_searches</text>
<rect x="574" y="198" width="232" height="24" rx="6" fill="#fefce8"/>
<text x="584" y="216" font-family="Inter, Segoe UI, Arial, sans-serif" font-size="10" font-weight="800" fill="#ca8a04">PK</text>
<text x="616" y="216" font-family="Inter, Segoe UI, Arial, sans-serif" font-size="13" font-weight="600" fill="#0f172a">saved_search_id</text>
<text x="802" y="216" text-anchor="end" font-family="Inter, Segoe UI, Arial, sans-serif" font-size="12" fill="#64748b">uuid</text>
<rect x="574" y="226" width="232" height="24" rx="6" fill="#ffffff"/>
<text x="584" y="244" font-family="Inter, Segoe UI, Arial, sans-serif" font-size="10" font-weight="800" fill="#ca8a04">FK</text>
<text x="616" y="244" font-family="Inter, Segoe UI, Arial, sans-serif" font-size="13" font-weight="600" fill="#0f172a">tenant_profile_id</text>
<text x="802" y="244" text-anchor="end" font-family="Inter, Segoe UI, Arial, sans-serif" font-size="12" fill="#64748b">uuid</text>
<rect x="574" y="254" width="232" height="24" rx="6" fill="#ffffff"/>
<text x="616" y="272" font-family="Inter, Segoe UI, Arial, sans-serif" font-size="13" font-weight="600" fill="#0f172a">name</text>
<text x="802" y="272" text-anchor="end" font-family="Inter, Segoe UI, Arial, sans-serif" font-size="12" fill="#64748b">text</text>
<rect x="574" y="282" width="232" height="24" rx="6" fill="#ffffff"/>
<text x="616" y="300" font-family="Inter, Segoe UI, Arial, sans-serif" font-size="13" font-weight="600" fill="#0f172a">filters</text>
<text x="802" y="300" text-anchor="end" font-family="Inter, Segoe UI, Arial, sans-serif" font-size="12" fill="#64748b">json</text>
<rect x="574" y="310" width="232" height="24" rx="6" fill="#ffffff"/>
<text x="616" y="328" font-family="Inter, Segoe UI, Arial, sans-serif" font-size="13" font-weight="600" fill="#0f172a">created_at</text>
<text x="802" y="328" text-anchor="end" font-family="Inter, Segoe UI, Arial, sans-serif" font-size="12" fill="#64748b">timestamp</text>
</g>
<g filter="url(#shadow)">
<rect x="560" y="440" width="260" height="198" rx="10" fill="#ffffff" stroke="#cbd5e1"/>
<rect x="560" y="440" width="260" height="44" rx="10" fill="#ca8a04"/>
<path d="M 560 474 H 820 V 484 H 560 Z" fill="#ca8a04"/>
<text x="578" y="469" font-family="Inter, Segoe UI, Arial, sans-serif" font-size="16" font-weight="700" fill="#ffffff">projection_offsets</text>
<rect x="574" y="488" width="232" height="24" rx="6" fill="#fefce8"/>
<text x="584" y="506" font-family="Inter, Segoe UI, Arial, sans-serif" font-size="10" font-weight="800" fill="#ca8a04">PK</text>
<text x="616" y="506" font-family="Inter, Segoe UI, Arial, sans-serif" font-size="13" font-weight="600" fill="#0f172a">topic_partition</text>
<text x="802" y="506" text-anchor="end" font-family="Inter, Segoe UI, Arial, sans-serif" font-size="12" fill="#64748b">varchar</text>
<rect x="574" y="516" width="232" height="24" rx="6" fill="#ffffff"/>
<text x="616" y="534" font-family="Inter, Segoe UI, Arial, sans-serif" font-size="13" font-weight="600" fill="#0f172a">topic</text>
<text x="802" y="534" text-anchor="end" font-family="Inter, Segoe UI, Arial, sans-serif" font-size="12" fill="#64748b">varchar</text>
<rect x="574" y="544" width="232" height="24" rx="6" fill="#ffffff"/>
<text x="616" y="562" font-family="Inter, Segoe UI, Arial, sans-serif" font-size="13" font-weight="600" fill="#0f172a">partition</text>
<text x="802" y="562" text-anchor="end" font-family="Inter, Segoe UI, Arial, sans-serif" font-size="12" fill="#64748b">integer</text>
<rect x="574" y="572" width="232" height="24" rx="6" fill="#ffffff"/>
<text x="616" y="590" font-family="Inter, Segoe UI, Arial, sans-serif" font-size="13" font-weight="600" fill="#0f172a">offset</text>
<text x="802" y="590" text-anchor="end" font-family="Inter, Segoe UI, Arial, sans-serif" font-size="12" fill="#64748b">bigint</text>
<rect x="574" y="600" width="232" height="24" rx="6" fill="#ffffff"/>
<text x="616" y="618" font-family="Inter, Segoe UI, Arial, sans-serif" font-size="13" font-weight="600" fill="#0f172a">updated_at</text>
<text x="802" y="618" text-anchor="end" font-family="Inter, Segoe UI, Arial, sans-serif" font-size="12" fill="#64748b">timestamp</text>
</g>
</svg>
