<svg xmlns="http://www.w3.org/2000/svg" xmlns:xlink="http://www.w3.org/1999/xlink" width="2354pt" height="1384pt" viewBox="0.00 0.00 2354.00 1384.00">
<g id="graph0" class="graph" transform="scale(2.77778 2.77778) rotate(0) translate(4 494.16)">
<title>EstateBookingPlatform</title>
<g id="clust1" class="cluster">
<title>cluster_identity</title>
<path fill="none" stroke="#cbd5e1" stroke-dasharray="5,2" d="M711.56,-209.6C711.56,-209.6 819.56,-209.6 819.56,-209.6 825.56,-209.6 831.56,-215.6 831.56,-221.6 831.56,-221.6 831.56,-364.28 831.56,-364.28 831.56,-370.28 825.56,-376.28 819.56,-376.28 819.56,-376.28 711.56,-376.28 711.56,-376.28 705.56,-376.28 699.56,-370.28 699.56,-364.28 699.56,-364.28 699.56,-221.6 699.56,-221.6 699.56,-215.6 705.56,-209.6 711.56,-209.6"/>
<text xml:space="preserve" text-anchor="middle" x="765.56" y="-361.48" font-family="Inter" font-size="12.00">Identity plane</text>
</g>
<!-- Client -->
<g id="node1" class="node">
<title>Client</title>
<path fill="#eef2ff" stroke="#334155" stroke-width="1.2" d="M577.03,-490.16C577.03,-490.16 492.09,-490.16 492.09,-490.16 486.09,-490.16 480.09,-484.16 480.09,-478.16 480.09,-478.16 480.09,-464.24 480.09,-464.24 480.09,-458.24 486.09,-452.24 492.09,-452.24 492.09,-452.24 577.03,-452.24 577.03,-452.24 583.03,-452.24 589.03,-458.24 589.03,-464.24 589.03,-464.24 589.03,-478.16 589.03,-478.16 589.03,-484.16 583.03,-490.16 577.03,-490.16"/>
<text xml:space="preserve" text-anchor="middle" x="534.56" y="-474.5" font-family="Inter" font-size="11.00">API Client</text>
<text xml:space="preserve" text-anchor="middle" x="534.56" y="-461.3" font-family="Inter" font-size="11.00">Postman / curl / tests</text>
</g>
<!-- Gateway -->
<g id="node2" class="node">
<title>Gateway</title>
<path fill="#ecfeff" stroke="#334155" stroke-width="1.2" d="M345.98,-371.88C345.98,-371.88 293.14,-371.88 293.14,-371.88 287.14,-371.88 281.14,-365.88 281.14,-359.88 281.14,-359.88 281.14,-347.88 281.14,-347.88 281.14,-341.88 287.14,-335.88 293.14,-335.88 293.14,-335.88 345.98,-335.88 345.98,-335.88 351.98,-335.88 357.98,-341.88 357.98,-347.88 357.98,-347.88 357.98,-359.88 357.98,-359.88 357.98,-365.88 351.98,-371.88 345.98,-371.88"/>
<text xml:space="preserve" text-anchor="middle" x="319.56" y="-350.58" font-family="Inter" font-size="11.00">API Gateway</text>
</g>
<!-- Client&#45;&gt;Gateway -->
<g id="edge2" class="edge">
<title>Client-&gt;Gateway</title>
<path fill="none" stroke="#475569" stroke-width="1.1" d="M505.41,-451.86C505.41,-420.73 505.41,-363 505.41,-363 505.41,-363 367.68,-363 367.68,-363"/>
<polygon fill="#475569" stroke="#475569" stroke-width="1.1" points="367.68,-360.38 360.18,-363 367.68,-365.63 367.68,-360.38"/>
<text xml:space="preserve" text-anchor="middle" x="508.94" y="-413.14" font-family="Inter" font-size="9.00">business APIs</text>
</g>
<!-- Keycloak -->
<g id="node4" class="node">
<title>Keycloak</title>
<path fill="#fdf2f8" stroke="#334155" stroke-width="1.2" d="M784.94,-379.44C784.94,-379.44 720.18,-379.44 720.18,-379.44 714.18,-379.44 708.18,-373.44 708.18,-367.44 708.18,-367.44 708.18,-340.32 708.18,-340.32 708.18,-334.32 714.18,-328.32 720.18,-328.32 720.18,-328.32 784.94,-328.32 784.94,-328.32 790.94,-328.32 796.94,-334.32 796.94,-340.32 796.94,-340.32 796.94,-367.44 796.94,-367.44 796.94,-373.44 790.94,-379.44 784.94,-379.44"/>
<text xml:space="preserve" text-anchor="middle" x="752.56" y="-363.78" font-family="Inter" font-size="11.00">Keycloak</text>
<text xml:space="preserve" text-anchor="middle" x="752.56" y="-350.58" font-family="Inter" font-size="11.00">OAuth2 / OIDC</text>
<text xml:space="preserve" text-anchor="middle" x="752.56" y="-337.38" font-family="Inter" font-size="11.00">Self-registration</text>
</g>
<!-- Client&#45;&gt;Keycloak -->
<g id="edge1" class="edge">
<title>Client-&gt;Keycloak</title>
<path fill="none" stroke="#475569" stroke-width="1.1" d="M585.38,-451.93C585.38,-424.12 585.38,-376 585.38,-376 585.38,-376 698.59,-376 698.59,-376"/>
<polygon fill="#475569" stroke="#475569" stroke-width="1.1" points="698.59,-378.63 706.09,-376 698.59,-373.38 698.59,-378.63"/>
<text xml:space="preserve" text-anchor="middle" x="694.8" y="-413.14" font-family="Inter" font-size="9.00">register / login</text>
</g>
<!-- Profile -->
<g id="node6" class="node">
<title>Profile</title>
<path fill="#f8fafc" stroke="#334155" stroke-width="1.2" d="M649.03,-254.56C649.03,-254.56 590.08,-254.56 590.08,-254.56 584.08,-254.56 578.08,-248.56 578.08,-242.56 578.08,-242.56 578.08,-230.56 578.08,-230.56 578.08,-224.56 584.08,-218.56 590.08,-218.56 590.08,-218.56 649.03,-218.56 649.03,-218.56 655.03,-218.56 661.03,-224.56 661.03,-230.56 661.03,-230.56 661.03,-242.56 661.03,-242.56 661.03,-248.56 655.03,-254.56 649.03,-254.56"/>
<text xml:space="preserve" text-anchor="middle" x="619.56" y="-233.26" font-family="Inter" font-size="11.00">Profile Service</text>
</g>
<!-- Gateway&#45;&gt;Profile -->
<g id="edge5" class="edge">
<title>Gateway-&gt;Profile</title>
<path fill="none" stroke="#475569" stroke-width="1.1" d="M358.52,-354C431.56,-354 581.73,-354 581.73,-354 581.73,-354 581.73,-264.07 581.73,-264.07"/>
<polygon fill="#475569" stroke="#475569" stroke-width="1.1" points="584.36,-264.07 581.73,-256.57 579.11,-264.07 584.36,-264.07"/>
</g>
<!-- Listing -->
<g id="node7" class="node">
<title>Listing</title>
<path fill="#f8fafc" stroke="#334155" stroke-width="1.2" d="M200.65,-254.56C200.65,-254.56 140.47,-254.56 140.47,-254.56 134.47,-254.56 128.47,-248.56 128.47,-242.56 128.47,-242.56 128.47,-230.56 128.47,-230.56 128.47,-224.56 134.47,-218.56 140.47,-218.56 140.47,-218.56 200.65,-218.56 200.65,-218.56 206.65,-218.56 212.65,-224.56 212.65,-230.56 212.65,-230.56 212.65,-242.56 212.65,-242.56 212.65,-248.56 206.65,-254.56 200.65,-254.56"/>
<text xml:space="preserve" text-anchor="middle" x="170.56" y="-233.26" font-family="Inter" font-size="11.00">Listing Service</text>
</g>
<!-- Gateway&#45;&gt;Listing -->
<g id="edge6" class="edge">
<title>Gateway-&gt;Listing</title>
<path fill="none" stroke="#475569" stroke-width="1.1" d="M280.8,-345C236.65,-345 170.56,-345 170.56,-345 170.56,-345 170.56,-264.12 170.56,-264.12"/>
<polygon fill="#475569" stroke="#475569" stroke-width="1.1" points="173.18,-264.12 170.56,-256.62 167.93,-264.12 173.18,-264.12"/>
</g>
<!-- Media -->
<g id="node8" class="node">
<title>Media</title>
<path fill="#f8fafc" stroke="#334155" stroke-width="1.2" d="M69.12,-254.56C69.12,-254.56 12,-254.56 12,-254.56 6,-254.56 0,-248.56 0,-242.56 0,-242.56 0,-230.56 0,-230.56 0,-224.56 6,-218.56 12,-218.56 12,-218.56 69.12,-218.56 69.12,-218.56 75.12,-218.56 81.12,-224.56 81.12,-230.56 81.12,-230.56 81.12,-242.56 81.12,-242.56 81.12,-248.56 75.12,-254.56 69.12,-254.56"/>
<text xml:space="preserve" text-anchor="middle" x="40.56" y="-233.26" font-family="Inter" font-size="11.00">Media Service</text>
</g>
<!-- Gateway&#45;&gt;Media -->
<g id="edge7" class="edge">
<title>Gateway-&gt;Media</title>
<path fill="none" stroke="#475569" stroke-width="1.1" d="M280.76,-363C204.1,-363 40.56,-363 40.56,-363 40.56,-363 40.56,-264.11 40.56,-264.11"/>
<polygon fill="#475569" stroke="#475569" stroke-width="1.1" points="43.18,-264.11 40.56,-256.61 37.93,-264.11 43.18,-264.11"/>
</g>
<!-- Rental -->
<g id="node9" class="node">
<title>Rental</title>
<path fill="#f8fafc" stroke="#334155" stroke-width="1.2" d="M367.52,-254.56C367.52,-254.56 271.6,-254.56 271.6,-254.56 265.6,-254.56 259.6,-248.56 259.6,-242.56 259.6,-242.56 259.6,-230.56 259.6,-230.56 259.6,-224.56 265.6,-218.56 271.6,-218.56 271.6,-218.56 367.52,-218.56 367.52,-218.56 373.52,-218.56 379.52,-224.56 379.52,-230.56 379.52,-230.56 379.52,-242.56 379.52,-242.56 379.52,-248.56 373.52,-254.56 367.52,-254.56"/>
<text xml:space="preserve" text-anchor="middle" x="319.56" y="-233.26" font-family="Inter" font-size="11.00">Rental Request Service</text>
</g>
<!-- Gateway&#45;&gt;Rental -->
<g id="edge8" class="edge">
<title>Gateway-&gt;Rental</title>
<path fill="none" stroke="#475569" stroke-width="1.1" d="M319.56,-335.29C319.56,-335.29 319.56,-264.23 319.56,-264.23"/>
<polygon fill="#475569" stroke="#475569" stroke-width="1.1" points="322.18,-264.23 319.56,-256.73 316.93,-264.23 322.18,-264.23"/>
</g>
<!-- Moderation -->
<g id="node10" class="node">
<title>Moderation</title>
<path fill="#f8fafc" stroke="#334155" stroke-width="1.2" d="M518.73,-254.56C518.73,-254.56 438.39,-254.56 438.39,-254.56 432.39,-254.56 426.39,-248.56 426.39,-242.56 426.39,-242.56 426.39,-230.56 426.39,-230.56 426.39,-224.56 432.39,-218.56 438.39,-218.56 438.39,-218.56 518.73,-218.56 518.73,-218.56 524.73,-218.56 530.73,-224.56 530.73,-230.56 530.73,-230.56 530.73,-242.56 530.73,-242.56 530.73,-248.56 524.73,-254.56 518.73,-254.56"/>
<text xml:space="preserve" text-anchor="middle" x="478.56" y="-233.26" font-family="Inter" font-size="11.00">Moderation Service</text>
</g>
<!-- Gateway&#45;&gt;Moderation -->
<g id="edge9" class="edge">
<title>Gateway-&gt;Moderation</title>
<path fill="none" stroke="#475569" stroke-width="1.1" d="M358.22,-345C397.7,-345 453.24,-345 453.24,-345 453.24,-345 453.24,-264.12 453.24,-264.12"/>
<polygon fill="#475569" stroke="#475569" stroke-width="1.1" points="455.86,-264.12 453.24,-256.62 450.61,-264.12 455.86,-264.12"/>
</g>
<!-- Search -->
<g id="node11" class="node">
<title>Search</title>
<path fill="#f8fafc" stroke="#334155" stroke-width="1.2" d="M86.03,-36C86.03,-36 27.09,-36 27.09,-36 21.09,-36 15.09,-30 15.09,-24 15.09,-24 15.09,-12 15.09,-12 15.09,-6 21.09,0 27.09,0 27.09,0 86.03,0 86.03,0 92.03,0 98.03,-6 98.03,-12 98.03,-12 98.03,-24 98.03,-24 98.03,-30 92.03,-36 86.03,-36"/>
<text xml:space="preserve" text-anchor="middle" x="56.56" y="-14.7" font-family="Inter" font-size="11.00">Search Service</text>
</g>
<!-- Gateway&#45;&gt;Search -->
<g id="edge10" class="edge">
<title>Gateway-&gt;Search</title>
<path fill="none" stroke="#475569" stroke-width="1.1" d="M280.59,-354C214.32,-354 86.75,-354 86.75,-354 86.75,-354 86.75,-45.71 86.75,-45.71"/>
<polygon fill="#475569" stroke="#475569" stroke-width="1.1" points="89.38,-45.71 86.75,-38.21 84.13,-45.71 89.38,-45.71"/>
</g>
<!-- Kafka -->
<g id="node3" class="node">
<title>Kafka</title>
<path fill="#fff7ed" stroke="#334155" stroke-width="1.2" d="M346.56,-141.53C346.56,-143.33 334.46,-144.8 319.56,-144.8 304.66,-144.8 292.56,-143.33 292.56,-141.53 292.56,-141.53 292.56,-112.07 292.56,-112.07 292.56,-110.27 304.66,-108.8 319.56,-108.8 334.46,-108.8 346.56,-110.27 346.56,-112.07 346.56,-112.07 346.56,-141.53 346.56,-141.53"/>
<path fill="none" stroke="#334155" stroke-width="1.2" d="M346.56,-141.53C346.56,-139.72 334.46,-138.25 319.56,-138.25 304.66,-138.25 292.56,-139.72 292.56,-141.53"/>
<text xml:space="preserve" text-anchor="middle" x="319.56" y="-123.5" font-family="Inter" font-size="11.00">Kafka</text>
</g>
<!-- Kafka&#45;&gt;Profile -->
<g id="edge15" class="edge">
<title>Kafka-&gt;Profile</title>
<path fill="none" stroke="#475569" stroke-width="1.1" d="M346.98,-130C421.03,-130 619.56,-130 619.56,-130 619.56,-130 619.56,-208.83 619.56,-208.83"/>
<polygon fill="#475569" stroke="#475569" stroke-width="1.1" points="616.93,-208.83 619.56,-216.33 622.18,-208.83 616.93,-208.83"/>
<text xml:space="preserve" text-anchor="middle" x="620.3" y="-178.5" font-family="Inter" font-size="9.00">UserRegistered</text>
</g>
<!-- Kafka&#45;&gt;Search -->
<g id="edge16" class="edge">
<title>Kafka-&gt;Search</title>
<path fill="none" stroke="#475569" stroke-width="1.1" d="M292.16,-123C231.74,-123 92.39,-123 92.39,-123 92.39,-123 92.39,-45.45 92.39,-45.45"/>
<polygon fill="#475569" stroke="#475569" stroke-width="1.1" points="95.02,-45.45 92.39,-37.95 89.77,-45.45 95.02,-45.45"/>
<text xml:space="preserve" text-anchor="middle" x="136.42" y="-69.7" font-family="Inter" font-size="9.00">projection events</text>
</g>
<!-- Notification -->
<g id="node12" class="node">
<title>Notification</title>
<path fill="#f8fafc" stroke="#334155" stroke-width="1.2" d="M434.64,-36C434.64,-36 352.47,-36 352.47,-36 346.47,-36 340.47,-30 340.47,-24 340.47,-24 340.47,-12 340.47,-12 340.47,-6 346.47,0 352.47,0 352.47,0 434.64,0 434.64,0 440.64,0 446.64,-6 446.64,-12 446.64,-12 446.64,-24 446.64,-24 446.64,-30 440.64,-36 434.64,-36"/>
<text xml:space="preserve" text-anchor="middle" x="393.56" y="-14.7" font-family="Inter" font-size="11.00">Notification Service</text>
</g>
<!-- Kafka&#45;&gt;Notification -->
<g id="edge17" class="edge">
<title>Kafka-&gt;Notification</title>
<path fill="none" stroke="#475569" stroke-width="1.1" d="M346.85,-116C355.58,-116 363.04,-116 363.04,-116 363.04,-116 363.04,-45.6 363.04,-45.6"/>
<polygon fill="#475569" stroke="#475569" stroke-width="1.1" points="365.66,-45.6 363.04,-38.1 360.41,-45.6 365.66,-45.6"/>
<text xml:space="preserve" text-anchor="middle" x="434.92" y="-69.7" font-family="Inter" font-size="9.00">notification commands</text>
</g>
<!-- Analytics -->
<g id="node13" class="node">
<title>Analytics</title>
<path fill="#f8fafc" stroke="#334155" stroke-width="1.2" d="M281.14,-36C281.14,-36 209.97,-36 209.97,-36 203.97,-36 197.97,-30 197.97,-24 197.97,-24 197.97,-12 197.97,-12 197.97,-6 203.97,0 209.97,0 209.97,0 281.14,0 281.14,0 287.14,0 293.14,-6 293.14,-12 293.14,-12 293.14,-24 293.14,-24 293.14,-30 287.14,-36 281.14,-36"/>
<text xml:space="preserve" text-anchor="middle" x="245.56" y="-14.7" font-family="Inter" font-size="11.00">Analytics Service</text>
</g>
<!-- Kafka&#45;&gt;Analytics -->
<g id="edge18" class="edge">
<title>Kafka-&gt;Analytics</title>
<path fill="none" stroke="#475569" stroke-width="1.1" d="M292.27,-116C283.53,-116 276.08,-116 276.08,-116 276.08,-116 276.08,-45.6 276.08,-45.6"/>
<polygon fill="#475569" stroke="#475569" stroke-width="1.1" points="278.7,-45.6 276.08,-38.1 273.45,-45.6 278.7,-45.6"/>
<text xml:space="preserve" text-anchor="middle" x="274.17" y="-69.7" font-family="Inter" font-size="9.00">analytics events</text>
</g>
<!-- RegistrationSPI -->
<g id="node5" class="node">
<title>RegistrationSPI</title>
<path fill="#fdf2f8" stroke="#334155" stroke-width="1.2" d="M811.53,-255.52C811.53,-255.52 719.58,-255.52 719.58,-255.52 713.58,-255.52 707.58,-249.52 707.58,-243.52 707.58,-243.52 707.58,-229.6 707.58,-229.6 707.58,-223.6 713.58,-217.6 719.58,-217.6 719.58,-217.6 811.53,-217.6 811.53,-217.6 817.53,-217.6 823.53,-223.6 823.53,-229.6 823.53,-229.6 823.53,-243.52 823.53,-243.52 823.53,-249.52 817.53,-255.52 811.53,-255.52"/>
<text xml:space="preserve" text-anchor="middle" x="765.56" y="-239.86" font-family="Inter" font-size="11.00">Keycloak Registration</text>
<text xml:space="preserve" text-anchor="middle" x="765.56" y="-226.66" font-family="Inter" font-size="11.00">Event SPI</text>
</g>
<!-- Keycloak&#45;&gt;RegistrationSPI -->
<g id="edge3" class="edge">
<title>Keycloak-&gt;RegistrationSPI</title>
<path fill="none" stroke="#475569" stroke-width="1.1" d="M752.56,-327.84C752.56,-327.84 752.56,-265.13 752.56,-265.13"/>
<polygon fill="#475569" stroke="#475569" stroke-width="1.1" points="755.18,-265.13 752.56,-257.63 749.93,-265.13 755.18,-265.13"/>
<text xml:space="preserve" text-anchor="middle" x="785.92" y="-289.22" font-family="Inter" font-size="9.00">user registered</text>
</g>
<!-- RegistrationSPI&#45;&gt;Kafka -->
<g id="edge4" class="edge">
<title>RegistrationSPI-&gt;Kafka</title>
<path fill="none" stroke="#475569" stroke-width="1.1" d="M765.56,-217.04C765.56,-184.57 765.56,-123 765.56,-123 765.56,-123 356.29,-123 356.29,-123"/>
<polygon fill="#475569" stroke="#475569" stroke-width="1.1" points="356.29,-120.38 348.79,-123 356.29,-125.63 356.29,-120.38"/>
<text xml:space="preserve" text-anchor="middle" x="760.3" y="-178.5" font-family="Inter" font-size="9.00">UserRegistered</text>
</g>
<!-- Listing&#45;&gt;Kafka -->
<g id="edge11" class="edge">
<title>Listing-&gt;Kafka</title>
<path fill="none" stroke="#475569" stroke-width="1.1" d="M205.31,-218.02C205.31,-189.47 205.31,-138 205.31,-138 205.31,-138 283.03,-138 283.03,-138"/>
<polygon fill="#475569" stroke="#475569" stroke-width="1.1" points="283.03,-140.63 290.53,-138 283.03,-135.38 283.03,-140.63"/>
<text xml:space="preserve" text-anchor="middle" x="218.43" y="-178.5" font-family="Inter" font-size="9.00">listing events</text>
</g>
<!-- Media&#45;&gt;Kafka -->
<g id="edge12" class="edge">
<title>Media-&gt;Kafka</title>
<path fill="none" stroke="#475569" stroke-width="1.1" d="M48.1,-218C48.1,-187.47 48.1,-130 48.1,-130 48.1,-130 282.87,-130 282.87,-130"/>
<polygon fill="#475569" stroke="#475569" stroke-width="1.1" points="282.87,-132.63 290.37,-130 282.87,-127.38 282.87,-132.63"/>
<text xml:space="preserve" text-anchor="middle" x="91.17" y="-178.5" font-family="Inter" font-size="9.00">media events</text>
</g>
<!-- Rental&#45;&gt;Kafka -->
<g id="edge13" class="edge">
<title>Rental-&gt;Kafka</title>
<path fill="none" stroke="#475569" stroke-width="1.1" d="M319.56,-218.44C319.56,-218.44 319.56,-154.48 319.56,-154.48"/>
<polygon fill="#475569" stroke="#475569" stroke-width="1.1" points="322.18,-154.48 319.56,-146.98 316.93,-154.48 322.18,-154.48"/>
<text xml:space="preserve" text-anchor="middle" x="342.42" y="-178.5" font-family="Inter" font-size="9.00">rental events</text>
</g>
<!-- Moderation&#45;&gt;Kafka -->
<g id="edge14" class="edge">
<title>Moderation-&gt;Kafka</title>
<path fill="none" stroke="#475569" stroke-width="1.1" d="M436.52,-218.02C436.52,-189.47 436.52,-138 436.52,-138 436.52,-138 356.14,-138 356.14,-138"/>
<polygon fill="#475569" stroke="#475569" stroke-width="1.1" points="356.14,-135.38 348.64,-138 356.14,-140.63 356.14,-135.38"/>
<text xml:space="preserve" text-anchor="middle" x="480.67" y="-178.5" font-family="Inter" font-size="9.00">moderation events</text>
</g>
</g>
</svg>